Perun-Italic.ufo
<glyph name="exclam" format="2">
  <advance width="362"/>
  <unicode hex="0021"/>
  <outline>
    <contour>
      <point x="61" y="0" type="line"/>
      <point x="161" y="0" type="line"/>
      <point x="179" y="95" type="line"/>
      <point x="79" y="95" type="line"/>
    </contour>
    <contour>
      <point x="111" y="169" type="line"/>
      <point x="174" y="169" type="line"/>
      <point x="301" y="722" type="line"/>
      <point x="198" y="722" type="line"/>
    </contour>
  </outline>
</glyph>
<glyph name="quotedbl" format="2">
  <advance width="466"/>
  <unicode hex="0022"/>
  <outline>
    <contour>
      <point x="60" y="434" type="line"/>
      <point x="93" y="722" type="line"/>
      <point x="199" y="722" type="line"/>
      <point x="120" y="434" type="line"/>
    </contour>
    <contour>
      <point x="266" y="434" type="line"/>
      <point x="299" y="722" type="line"/>
      <point x="405" y="722" type="line"/>
      <point x="326" y="434" type="line"/>
    </contour>
  </outline>
</glyph>
<glyph name="numbersign" format="2">
  <advance width="745"/>
  <unicode hex="0023"/>
  <outline>
    <contour>
      <point x="50" y="0" type="line"/>
      <point x="410" y="722" type="line"/>
      <point x="485" y="722" type="line"/>
      <point x="124" y="0" type="line"/>
    </contour>
    <contour>
      <point x="255" y="0" type="line"/>
      <point x="615" y="722" type="line"/>
      <point x="690" y="722" type="line"/>
      <point x="329" y="0" type="line"/>
    </contour>
    <contour>
      <point x="130" y="444" type="line"/>
      <point x="165" y="513" type="line"/>
      <point x="726" y="513" type="line"/>
      <point x="691" y="444" type="line"/>
    </contour>
    <contour>
      <point x="26" y="239" type="line"/>
      <point x="61" y="308" type="line"/>
      <point x="622" y="308" type="line"/>
      <point x="587" y="239" type="line"/>
    </contour>
  </outline>
</glyph>
<glyph name="dollar" format="2">
  <advance width="1788"/>
  <unicode hex="0024"/>
  <outline>
    <contour>
      <point x="191" y="700" type="line"/>
      <point x="211" y="800" type="line"/>
      <point x="267" y="800" type="line"/>
      <point x="247" y="700" type="line"/>
    </contour>
    <contour>
      <point x="131" y="390" type="line"/>
      <point x="186" y="673" type="line"/>
      <point x="242" y="673" type="line"/>
      <point x="187" y="390" type="line"/>
    </contour>
    <contour>
      <point x="67" y="58" type="line"/>
      <point x="123" y="350" type="line"/>
      <point x="179" y="350" type="line"/>
      <point x="123" y="58" type="line"/>
    </contour>
    <contour>
      <point x="40" y="-76" type="line"/>
      <point x="55" y="1" type="line"/>
      <point x="111" y="1" type="line"/>
      <point x="96" y="-76" type="line"/>
    </contour>
    <contour>
      <point x="1603" y="168" type="qcurve" smooth="yes"/>
      <point x="1603" y="190"/>
      <point x="1608" y="214" type="qcurve"/>
      <point x="1708" y="214" type="line"/>
      <point x="1706" y="203"/>
      <point x="1706" y="192" type="qcurve" smooth="yes"/>
      <point x="1706" y="158"/>
      <point x="1745" y="104"/>
      <point x="1812" y="73"/>
      <point x="1855" y="73" type="qcurve" smooth="yes"/>
      <point x="1945" y="73"/>
      <point x="2050" y="153"/>
      <point x="2050" y="222" type="qcurve" smooth="yes"/>
      <point x="2050" y="264"/>
      <point x="1975" y="314"/>
      <point x="1884" y="332" type="qcurve" smooth="yes"/>
      <point x="1770" y="354"/>
      <point x="1675" y="426"/>
      <point x="1675" y="490" type="qcurve" smooth="yes"/>
      <point x="1675" y="562"/>
      <point x="1750" y="674"/>
      <point x="1881" y="737"/>
      <point x="1966" y="737" type="qcurve" smooth="yes"/>
      <point x="2038" y="737"/>
      <point x="2138" y="701"/>
      <point x="2190" y="633"/>
      <point x="2190" y="583" type="qcurve" smooth="yes"/>
      <point x="2190" y="562"/>
      <point x="2185" y="540" type="qcurve"/>
      <point x="2085" y="540" type="line"/>
      <point x="2088" y="555"/>
      <point x="2088" y="567" type="qcurve" smooth="yes"/>
      <point x="2088" y="610"/>
      <point x="2018" y="649"/>
      <point x="1942" y="649" type="qcurve" smooth="yes"/>
      <point x="1891" y="649"/>
      <point x="1818" y="617"/>
      <point x="1778" y="558"/>
      <point x="1778" y="517" type="qcurve" smooth="yes"/>
      <point x="1778" y="481"/>
      <point x="1823" y="442"/>
      <point x="1896" y="421"/>
      <point x="1937" y="412" type="qcurve" smooth="yes"/>
      <point x="2017" y="395"/>
      <point x="2111" y="353"/>
      <point x="2153" y="293"/>
      <point x="2153" y="250" type="qcurve" smooth="yes"/>
      <point x="2153" y="167"/>
      <point x="2075" y="48"/>
      <point x="1931" y="-15"/>
      <point x="1829" y="-15" type="qcurve" smooth="yes"/>
      <point x="1760" y="-15"/>
      <point x="1659" y="30"/>
      <point x="1603" y="111"/>
    </contour>
  </outline>
</glyph>
<glyph name="ampersand" format="2">
  <advance width="765"/>
  <unicode hex="0026"/>
  <outline>
    <contour>
      <point x="231" y="371" type="line" smooth="yes"/>
      <point x="194" y="420"/>
      <point x="161" y="499"/>
      <point x="161" y="538" type="qcurve" smooth="yes"/>
      <point x="161" y="581"/>
      <point x="197" y="654"/>
      <point x="260" y="707"/>
      <point x="341" y="736"/>
      <point x="384" y="736" type="qcurve" smooth="yes"/>
      <point x="429" y="736"/>
      <point x="495" y="706"/>
      <point x="531" y="653"/>
      <point x="531" y="616" type="qcurve" smooth="yes"/>
      <point x="531" y="572"/>
      <point x="481" y="498"/>
      <point x="406" y="440"/>
      <point x="369" y="420" type="qcurve" smooth="yes"/>
      <point x="294" y="379" type="line"/>
      <point x="265" y="432" type="line"/>
      <point x="339" y="474" type="line" smooth="yes"/>
      <point x="363" y="487"/>
      <point x="412" y="522"/>
      <point x="446" y="568"/>
      <point x="446" y="596" type="qcurve" smooth="yes"/>
      <point x="446" y="627"/>
      <point x="405" y="661"/>
      <point x="370" y="661" type="qcurve" smooth="yes"/>
      <point x="339" y="661"/>
      <point x="287" y="635"/>
      <point x="255" y="588"/>
      <point x="255" y="557" type="qcurve" smooth="yes"/>
      <point x="255" y="539"/>
      <point x="267" y="503"/>
      <point x="291" y="461"/>
      <point x="311" y="435" type="qcurve" smooth="yes"/>
      <point x="629" y="0" type="line"/>
      <point x="503" y="0" type="line"/>
    </contour>
    <contour>
      <point x="33" y="161" type="qcurve" smooth="yes"/>
      <point x="33" y="210"/>
      <point x="73" y="299"/>
      <point x="144" y="370"/>
      <point x="189" y="394" type="qcurve" smooth="yes"/>
      <point x="252" y="428" type="line"/>
      <point x="281" y="375" type="line"/>
      <point x="257" y="362" type="line" smooth="yes"/>
      <point x="224" y="344"/>
      <point x="168" y="288"/>
      <point x="134" y="221"/>
      <point x="134" y="185" type="qcurve" smooth="yes"/>
      <point x="134" y="134"/>
      <point x="205" y="75"/>
      <point x="265" y="75" type="qcurve" smooth="yes"/>
      <point x="297" y="75"/>
      <point x="366" y="92"/>
      <point x="430" y="124"/>
      <point x="454" y="144" type="qcurve"/>
      <point x="494" y="82" type="line"/>
      <point x="458" y="53"/>
      <point x="366" y="11"/>
      <point x="270" y="-13"/>
      <point x="225" y="-13" type="qcurve" smooth="yes"/>
      <point x="136" y="-13"/>
      <point x="33" y="81"/>
    </contour>
    <contour>
      <point x="462" y="155" type="line"/>
      <point x="488" y="183"/>
      <point x="524" y="245"/>
      <point x="546" y="313"/>
      <point x="556" y="384"/>
      <point x="556" y="421" type="qcurve"/>
      <point x="558" y="423" type="line"/>
      <point x="661" y="423" type="line"/>
      <point x="649" y="357"/>
      <point x="602" y="232"/>
      <point x="543" y="130"/>
      <point x="512" y="101" type="qcurve"/>
    </contour>
  </outline>
</glyph>
<glyph name="quotesingle" format="2">
  <advance width="260"/>
  <unicode hex="0027"/>
  <outline>
    <contour>
      <point x="60" y="434" type="line"/>
      <point x="93" y="722" type="line"/>
      <point x="199" y="722" type="line"/>
      <point x="120" y="434" type="line"/>
    </contour>
  </outline>
</glyph>
<glyph name="parenleft" format="2">
  <advance width="327"/>
  <unicode hex="0028"/>
  <outline>
    <contour>
      <point x="30" y="132" type="qcurve" smooth="yes"/>
      <point x="30" y="296"/>
      <point x="147" y="605"/>
      <point x="245" y="736" type="qcurve"/>
      <point x="309" y="736" type="line"/>
      <point x="222" y="580"/>
      <point x="122" y="263"/>
      <point x="122" y="84" type="qcurve" smooth="yes"/>
      <point x="122" y="31"/>
      <point x="131" y="-77"/>
      <point x="140" y="-133" type="qcurve"/>
      <point x="76" y="-133" type="line"/>
      <point x="30" y="-4"/>
    </contour>
  </outline>
</glyph>
<glyph name="parenright" format="2">
  <advance width="359"/>
  <unicode hex="0029"/>
  <outline>
    <contour>
      <point x="-5" y="-130" type="line"/>
      <point x="52" y="-26"/>
      <point x="136" y="183"/>
      <point x="182" y="403"/>
      <point x="182" y="522" type="qcurve" smooth="yes"/>
      <point x="182" y="627"/>
      <point x="164" y="738" type="qcurve"/>
      <point x="228" y="738" type="line"/>
      <point x="273" y="610"/>
      <point x="273" y="473" type="qcurve" smooth="yes"/>
      <point x="273" y="308"/>
      <point x="156" y="1"/>
      <point x="59" y="-130" type="qcurve"/>
    </contour>
  </outline>
</glyph>
<glyph name="asterisk" format="2">
  <advance width="656"/>
  <unicode hex="002A"/>
  <outline>
    <contour>
      <point x="195" y="375" type="line"/>
      <point x="322" y="509" type="line"/>
      <point x="153" y="488" type="line"/>
      <point x="169" y="570" type="line"/>
      <point x="330" y="549" type="line"/>
      <point x="255" y="683" type="line"/>
      <point x="335" y="722" type="line"/>
      <point x="371" y="576" type="line"/>
      <point x="463" y="722" type="line"/>
      <point x="528" y="683" type="line"/>
      <point x="401" y="549" type="line"/>
      <point x="570" y="570" type="line"/>
      <point x="554" y="488" type="line"/>
      <point x="393" y="509" type="line"/>
      <point x="468" y="375" type="line"/>
      <point x="388" y="335" type="line"/>
      <point x="353" y="482" type="line"/>
      <point x="260" y="335" type="line"/>
    </contour>
  </outline>
</glyph>
<glyph name="plus" format="2">
  <advance width="654"/>
  <unicode hex="002B"/>
  <outline>
    <contour>
      <point x="41" y="267" type="line"/>
      <point x="53" y="331" type="line"/>
      <point x="322" y="331" type="line"/>
      <point x="374" y="600" type="line"/>
      <point x="436" y="600" type="line"/>
      <point x="384" y="331" type="line"/>
      <point x="653" y="331" type="line"/>
      <point x="641" y="267" type="line"/>
      <point x="372" y="267" type="line"/>
      <point x="319" y="-2" type="line"/>
      <point x="257" y="-2" type="line"/>
      <point x="310" y="267" type="line"/>
    </contour>
  </outline>
</glyph>
<glyph name="comma" format="2">
  <advance width="275"/>
  <unicode hex="002C"/>
  <outline>
    <contour>
      <point x="11" y="-127" type="line"/>
      <point x="120" y="123" type="line"/>
      <point x="240" y="123" type="line"/>
      <point x="81" y="-127" type="line"/>
    </contour>
  </outline>
</glyph>
<glyph name="hyphen" format="2">
  <advance width="377"/>
  <unicode hex="002D"/>
  <outline>
    <contour>
      <point x="61" y="203" type="line"/>
      <point x="77" y="285" type="line"/>
      <point x="317" y="285" type="line"/>
      <point x="301" y="203" type="line"/>
    </contour>
  </outline>
</glyph>
<glyph name="period" format="2">
  <advance width="252"/>
  <unicode hex="002E"/>
  <outline>
    <contour>
      <point x="60" y="0" type="line"/>
      <point x="84" y="123" type="line"/>
      <point x="192" y="123" type="line"/>
      <point x="168" y="0" type="line"/>
    </contour>
  </outline>
</glyph>
<glyph name="zero" format="2">
  <advance width="558"/>
  <unicode hex="0030"/>
  <outline>
    <contour>
      <point x="35" y="216" type="qcurve" smooth="yes"/>
      <point x="35" y="274"/>
      <point x="55" y="413"/>
      <point x="100" y="551"/>
      <point x="172" y="666"/>
      <point x="278" y="736"/>
      <point x="349" y="736" type="qcurve" smooth="yes"/>
      <point x="417" y="736"/>
      <point x="494" y="677"/>
      <point x="527" y="578"/>
      <point x="527" y="518" type="qcurve" smooth="yes"/>
      <point x="527" y="461"/>
      <point x="505" y="321"/>
      <point x="458" y="178"/>
      <point x="384" y="59"/>
      <point x="280" y="-14"/>
      <point x="211" y="-14" type="qcurve" smooth="yes"/>
      <point x="143" y="-14"/>
      <point x="67" y="49"/>
      <point x="35" y="154"/>
    </contour>
    <contour>
      <point x="128" y="232" type="qcurve" smooth="yes"/>
      <point x="128" y="179"/>
      <point x="145" y="106"/>
      <point x="185" y="68"/>
      <point x="221" y="68" type="qcurve" smooth="yes"/>
      <point x="259" y="68"/>
      <point x="320" y="116"/>
      <point x="367" y="196"/>
      <point x="401" y="292"/>
      <point x="422" y="391"/>
      <point x="432" y="478"/>
      <point x="432" y="507" type="qcurve" smooth="yes"/>
      <point x="432" y="573"/>
      <point x="392" y="650"/>
      <point x="340" y="650" type="qcurve" smooth="yes"/>
      <point x="300" y="650"/>
      <point x="237" y="603"/>
      <point x="190" y="525"/>
      <point x="158" y="432"/>
      <point x="138" y="337"/>
      <point x="128" y="257"/>
    </contour>
  </outline>
</glyph>
<glyph name="one" format="2">
  <advance width="558"/>
  <unicode hex="0031"/>
  <outline>
    <contour>
      <point x="216" y="0" type="line"/>
      <point x="333" y="602" type="line"/>
      <point x="301" y="583"/>
      <point x="215" y="541"/>
      <point x="161" y="519" type="qcurve"/>
      <point x="177" y="602" type="line"/>
      <point x="206" y="618"/>
      <point x="278" y="664"/>
      <point x="338" y="709"/>
      <point x="349" y="722" type="qcurve"/>
      <point x="449" y="722" type="line"/>
      <point x="309" y="0" type="line"/>
    </contour>
  </outline>
</glyph>
<glyph name="two" format="2">
  <advance width="558"/>
  <unicode hex="0032"/>
  <outline>
    <contour>
      <point x="-12" y="0" type="line"/>
      <point x="7" y="93" type="line"/>
      <point x="40" y="113"/>
      <point x="129" y="174"/>
      <point x="224" y="249"/>
      <point x="315" y="335"/>
      <point x="388" y="427"/>
      <point x="432" y="520"/>
      <point x="432" y="565" type="qcurve" smooth="yes"/>
      <point x="432" y="609"/>
      <point x="385" y="653"/>
      <point x="342" y="653" type="qcurve" smooth="yes"/>
      <point x="291" y="653"/>
      <point x="220" y="589"/>
      <point x="201" y="526" type="qcurve"/>
      <point x="99" y="526" type="line"/>
      <point x="118" y="596"/>
      <point x="188" y="689"/>
      <point x="289" y="736"/>
      <point x="356" y="736" type="qcurve" smooth="yes"/>
      <point x="435" y="736"/>
      <point x="531" y="646"/>
      <point x="531" y="574" type="qcurve" smooth="yes"/>
      <point x="531" y="525"/>
      <point x="489" y="426"/>
      <point x="418" y="330"/>
      <point x="328" y="240"/>
      <point x="232" y="161"/>
      <point x="141" y="96"/>
      <point x="104" y="72" type="qcurve"/>
      <point x="102" y="78" type="line"/>
      <point x="439" y="78" type="line"/>
      <point x="423" y="0" type="line"/>
    </contour>
  </outline>
</glyph>
<glyph name="three" format="2">
  <advance width="558"/>
  <unicode hex="0033"/>
  <outline>
    <contour>
      <point x="7" y="147" type="qcurve" smooth="yes"/>
      <point x="7" y="167"/>
      <point x="11" y="190" type="qcurve"/>
      <point x="117" y="190" type="line"/>
      <point x="114" y="174"/>
      <point x="114" y="160" type="qcurve" smooth="yes"/>
      <point x="114" y="116"/>
      <point x="170" y="63"/>
      <point x="219" y="63" type="qcurve" smooth="yes"/>
      <point x="255" y="63"/>
      <point x="316" y="92"/>
      <point x="361" y="143"/>
      <point x="386" y="207"/>
      <point x="386" y="242" type="qcurve" smooth="yes"/>
      <point x="386" y="269"/>
      <point x="364" y="311"/>
      <point x="321" y="336"/>
      <point x="288" y="336" type="qcurve" smooth="yes"/>
      <point x="204" y="336" type="line"/>
      <point x="220" y="416" type="line"/>
      <point x="292" y="416" type="line" smooth="yes"/>
      <point x="335" y="416"/>
      <point x="401" y="459"/>
      <point x="438" y="529"/>
      <point x="438" y="571" type="qcurve" smooth="yes"/>
      <point x="438" y="612"/>
      <point x="388" y="659"/>
      <point x="344" y="659" type="qcurve" smooth="yes"/>
      <point x="306" y="659"/>
      <point x="243" y="626"/>
      <point x="200" y="569"/>
      <point x="193" y="532" type="qcurve"/>
      <point x="93" y="532" type="line"/>
      <point x="104" y="591"/>
      <point x="182" y="683"/>
      <point x="297" y="736"/>
      <point x="365" y="736" type="qcurve" smooth="yes"/>
      <point x="447" y="736"/>
      <point x="541" y="658"/>
      <point x="541" y="591" type="qcurve" smooth="yes"/>
      <point x="541" y="542"/>
      <point x="501" y="456"/>
      <point x="430" y="394"/>
      <point x="383" y="380" type="qcurve"/>
      <point x="384" y="384" type="line"/>
      <point x="435" y="372"/>
      <point x="485" y="300"/>
      <point x="485" y="248" type="qcurve" smooth="yes"/>
      <point x="485" y="189"/>
      <point x="440" y="93"/>
      <point x="361" y="23"/>
      <point x="258" y="-14"/>
      <point x="201" y="-14" type="qcurve" smooth="yes"/>
      <point x="111" y="-14"/>
      <point x="7" y="72"/>
    </contour>
  </outline>
</glyph>
<glyph name="four" format="2">
  <advance width="558"/>
  <unicode hex="0034"/>
  <outline>
    <contour>
      <point x="-6" y="176" type="line"/>
      <point x="14" y="281" type="line"/>
      <point x="400" y="722" type="line"/>
      <point x="510" y="722" type="line"/>
      <point x="370" y="0" type="line"/>
      <point x="277" y="0" type="line"/>
      <point x="398" y="624" type="line"/>
      <point x="404" y="622" type="line"/>
      <point x="82" y="249" type="line"/>
      <point x="78" y="259" type="line"/>
      <point x="342" y="259" type="line"/>
      <point x="326" y="176" type="line"/>
    </contour>
    <contour>
      <point x="389" y="176" type="line"/>
      <point x="405" y="259" type="line"/>
      <point x="509" y="259" type="line"/>
      <point x="493" y="176" type="line"/>
    </contour>
  </outline>
</glyph>
<glyph name="five" format="2">
  <advance width="558"/>
  <unicode hex="0035"/>
  <outline>
    <contour>
      <point x="13" y="135" type="qcurve" smooth="yes"/>
      <point x="13" y="154"/>
      <point x="17" y="176" type="qcurve"/>
      <point x="122" y="176" type="line"/>
      <point x="119" y="162"/>
      <point x="119" y="150" type="qcurve" smooth="yes"/>
      <point x="119" y="109"/>
      <point x="175" y="67"/>
      <point x="222" y="67" type="qcurve" smooth="yes"/>
      <point x="264" y="67"/>
      <point x="326" y="113"/>
      <point x="368" y="185"/>
      <point x="388" y="266"/>
      <point x="388" y="302" type="qcurve" smooth="yes"/>
      <point x="388" y="354"/>
      <point x="343" y="406"/>
      <point x="298" y="406" type="qcurve" smooth="yes"/>
      <point x="268" y="406"/>
      <point x="214" y="383"/>
      <point x="165" y="337"/>
      <point x="143" y="302" type="qcurve"/>
      <point x="66" y="302" type="line"/>
      <point x="147" y="722" type="line"/>
      <point x="530" y="722" type="line"/>
      <point x="514" y="639" type="line"/>
      <point x="217" y="639" type="line"/>
      <point x="231" y="651" type="line"/>
      <point x="183" y="400" type="line"/>
      <point x="177" y="405" type="line"/>
      <point x="206" y="433"/>
      <point x="286" y="480"/>
      <point x="346" y="480" type="qcurve" smooth="yes"/>
      <point x="416" y="480"/>
      <point x="493" y="405"/>
      <point x="493" y="329" type="qcurve" smooth="yes"/>
      <point x="493" y="274"/>
      <point x="453" y="155"/>
      <point x="378" y="51"/>
      <point x="277" y="-13"/>
      <point x="217" y="-13" type="qcurve" smooth="yes"/>
      <point x="127" y="-13"/>
      <point x="13" y="59"/>
    </contour>
  </outline>
</glyph>
<glyph name="six" format="2">
  <advance width="558"/>
  <unicode hex="0036"/>
  <outline>
    <contour>
      <point x="22" y="184" type="qcurve" smooth="yes"/>
      <point x="22" y="234"/>
      <point x="39" y="354"/>
      <point x="74" y="478"/>
      <point x="129" y="593"/>
      <point x="205" y="684"/>
      <point x="303" y="737"/>
      <point x="363" y="737" type="qcurve" smooth="yes"/>
      <point x="442" y="737"/>
      <point x="531" y="657"/>
      <point x="531" y="591" type="qcurve" smooth="yes"/>
      <point x="531" y="571"/>
      <point x="527" y="550" type="qcurve"/>
      <point x="427" y="550" type="line"/>
      <point x="430" y="563"/>
      <point x="430" y="576" type="qcurve" smooth="yes"/>
      <point x="430" y="613"/>
      <point x="388" y="660"/>
      <point x="353" y="660" type="qcurve" smooth="yes"/>
      <point x="315" y="660"/>
      <point x="251" y="624"/>
      <point x="200" y="549"/>
      <point x="160" y="434"/>
      <point x="144" y="354" type="qcurve"/>
      <point x="170" y="393"/>
      <point x="263" y="446"/>
      <point x="307" y="446" type="qcurve" smooth="yes"/>
      <point x="398" y="446"/>
      <point x="490" y="365"/>
      <point x="490" y="286" type="qcurve" smooth="yes"/>
      <point x="490" y="223"/>
      <point x="450" y="114"/>
      <point x="375" y="32"/>
      <point x="269" y="-14"/>
      <point x="204" y="-14" type="qcurve" smooth="yes"/>
      <point x="142" y="-14"/>
      <point x="62" y="30"/>
      <point x="22" y="118"/>
    </contour>
    <contour>
      <point x="123" y="171" type="qcurve" smooth="yes"/>
      <point x="123" y="119"/>
      <point x="176" y="63"/>
      <point x="226" y="63" type="qcurve" smooth="yes"/>
      <point x="280" y="63"/>
      <point x="352" y="125"/>
      <point x="388" y="218"/>
      <point x="388" y="266" type="qcurve" smooth="yes"/>
      <point x="388" y="316"/>
      <point x="336" y="369"/>
      <point x="287" y="369" type="qcurve" smooth="yes"/>
      <point x="233" y="369"/>
      <point x="160" y="310"/>
      <point x="123" y="219"/>
    </contour>
  </outline>
</glyph>
<glyph name="seven" format="2">
  <advance width="558"/>
  <unicode hex="0037"/>
  <outline>
    <contour>
      <point x="87" y="0" type="line"/>
      <point x="473" y="653" type="line"/>
      <point x="479" y="642" type="line"/>
      <point x="112" y="642" type="line"/>
      <point x="127" y="722" type="line"/>
      <point x="572" y="722" type="line"/>
      <point x="553" y="622" type="line"/>
      <point x="197" y="0" type="line"/>
    </contour>
  </outline>
</glyph>
<glyph name="eight" format="2">
  <advance width="558"/>
  <unicode hex="0038"/>
  <outline>
    <contour>
      <point x="98" y="165" type="qcurve" smooth="yes"/>
      <point x="98" y="117"/>
      <point x="161" y="64"/>
      <point x="218" y="64" type="qcurve" smooth="yes"/>
      <point x="270" y="64"/>
      <point x="345" y="109"/>
      <point x="385" y="188"/>
      <point x="385" y="238" type="qcurve" smooth="yes"/>
      <point x="385" y="287"/>
      <point x="327" y="343"/>
      <point x="273" y="343" type="qcurve" smooth="yes"/>
      <point x="223" y="343"/>
      <point x="144" y="295"/>
      <point x="98" y="214"/>
    </contour>
    <contour>
      <point x="187" y="517" type="qcurve" smooth="yes"/>
      <point x="187" y="474"/>
      <point x="242" y="420"/>
      <point x="288" y="420" type="qcurve" smooth="yes"/>
      <point x="320" y="420"/>
      <point x="374" y="444"/>
      <point x="415" y="487"/>
      <point x="438" y="542"/>
      <point x="438" y="573" type="qcurve" smooth="yes"/>
      <point x="438" y="614"/>
      <point x="384" y="661"/>
      <point x="335" y="661" type="qcurve" smooth="yes"/>
      <point x="293" y="661"/>
      <point x="226" y="624"/>
      <point x="187" y="559"/>
    </contour>
    <contour>
      <point x="0" y="145" type="qcurve" smooth="yes"/>
      <point x="0" y="200"/>
      <point x="48" y="296"/>
      <point x="129" y="367"/>
      <point x="182" y="383" type="qcurve"/>
      <point x="140" y="402"/>
      <point x="95" y="475"/>
      <point x="95" y="521" type="qcurve" smooth="yes"/>
      <point x="95" y="571"/>
      <point x="139" y="652"/>
      <point x="213" y="708"/>
      <point x="303" y="738"/>
      <point x="350" y="738" type="qcurve" smooth="yes"/>
      <point x="434" y="738"/>
      <point x="534" y="655"/>
      <point x="534" y="587" type="qcurve" smooth="yes"/>
      <point x="534" y="538"/>
      <point x="491" y="462"/>
      <point x="421" y="405"/>
      <point x="379" y="384" type="qcurve"/>
      <point x="431" y="365"/>
      <point x="484" y="293"/>
      <point x="484" y="239" type="qcurve" smooth="yes"/>
      <point x="484" y="179"/>
      <point x="439" y="85"/>
      <point x="361" y="20"/>
      <point x="259" y="-13"/>
      <point x="201" y="-13" type="qcurve" smooth="yes"/>
      <point x="107" y="-13"/>
      <point x="0" y="71"/>
    </contour>
  </outline>
</glyph>
<glyph name="nine" format="2">
  <advance width="558"/>
  <unicode hex="0039"/>
  <outline>
    <contour>
      <point x="24" y="124" type="qcurve" smooth="yes"/>
      <point x="24" y="146"/>
      <point x="29" y="172" type="qcurve"/>
      <point x="125" y="172" type="line"/>
      <point x="121" y="153"/>
      <point x="121" y="137" type="qcurve" smooth="yes"/>
      <point x="121" y="98"/>
      <point x="167" y="63"/>
      <point x="213" y="63" type="qcurve" smooth="yes"/>
      <point x="254" y="63"/>
      <point x="316" y="108"/>
      <point x="361" y="180"/>
      <point x="392" y="263"/>
      <point x="411" y="342"/>
      <point x="416" y="370" type="qcurve"/>
      <point x="395" y="341"/>
      <point x="339" y="300"/>
      <point x="269" y="278"/>
      <point x="229" y="278" type="qcurve" smooth="yes"/>
      <point x="173" y="278"/>
      <point x="101" y="320"/>
      <point x="68" y="393"/>
      <point x="68" y="440" type="qcurve" smooth="yes"/>
      <point x="68" y="501"/>
      <point x="106" y="608"/>
      <point x="177" y="690"/>
      <point x="279" y="737"/>
      <point x="344" y="737" type="qcurve" smooth="yes"/>
      <point x="420" y="737"/>
      <point x="505" y="694"/>
      <point x="538" y="616"/>
      <point x="538" y="564" type="qcurve" smooth="yes"/>
      <point x="538" y="510"/>
      <point x="523" y="384"/>
      <point x="489" y="254"/>
      <point x="434" y="135"/>
      <point x="356" y="41"/>
      <point x="252" y="-14"/>
      <point x="187" y="-14" type="qcurve" smooth="yes"/>
      <point x="106" y="-14"/>
      <point x="24" y="59"/>
    </contour>
    <contour>
      <point x="171" y="451" type="qcurve" smooth="yes"/>
      <point x="171" y="405"/>
      <point x="218" y="355"/>
      <point x="273" y="355" type="qcurve" smooth="yes"/>
      <point x="332" y="355"/>
      <point x="404" y="417"/>
      <point x="436" y="512"/>
      <point x="436" y="563" type="qcurve" smooth="yes"/>
      <point x="436" y="610"/>
      <point x="388" y="660"/>
      <point x="333" y="660" type="qcurve" smooth="yes"/>
      <point x="273" y="660"/>
      <point x="202" y="598"/>
      <point x="171" y="503"/>
    </contour>
  </outline>
</glyph>
<glyph name="colon" format="2">
  <advance width="326"/>
  <unicode hex="003A"/>
  <outline>
    <contour>
      <point x="60" y="0" type="line"/>
      <point x="84" y="123" type="line"/>
      <point x="192" y="123" type="line"/>
      <point x="168" y="0" type="line"/>
    </contour>
    <contour>
      <point x="134" y="377" type="line"/>
      <point x="158" y="500" type="line"/>
      <point x="266" y="500" type="line"/>
      <point x="242" y="377" type="line"/>
    </contour>
  </outline>
</glyph>
<glyph name="semicolon" format="2">
  <advance width="275"/>
  <unicode hex="003B"/>
  <outline>
    <contour>
      <point x="-39" y="-127" type="line"/>
      <point x="69" y="123" type="line"/>
      <point x="189" y="123" type="line"/>
      <point x="31" y="-127" type="line"/>
    </contour>
    <contour>
      <point x="123" y="377" type="line"/>
      <point x="147" y="500" type="line"/>
      <point x="255" y="500" type="line"/>
      <point x="231" y="377" type="line"/>
    </contour>
  </outline>
</glyph>
<glyph name="less" format="2">
  <advance width="758"/>
  <unicode hex="003C"/>
  <outline>
    <contour>
      <point x="51" y="269" type="line"/>
      <point x="63" y="331" type="line"/>
      <point x="708" y="561" type="line"/>
      <point x="695" y="499" type="line"/>
      <point x="109" y="296" type="line"/>
      <point x="110" y="304" type="line"/>
      <point x="618" y="101" type="line"/>
      <point x="606" y="39" type="line"/>
    </contour>
  </outline>
</glyph>
<glyph name="equal" format="2">
  <advance width="700"/>
  <unicode hex="003D"/>
  <outline>
    <contour>
      <point x="44" y="178" type="line"/>
      <point x="56" y="240" type="line"/>
      <point x="656" y="240" type="line"/>
      <point x="644" y="178" type="line"/>
    </contour>
    <contour>
      <point x="79" y="360" type="line"/>
      <point x="91" y="422" type="line"/>
      <point x="691" y="422" type="line"/>
      <point x="679" y="360" type="line"/>
    </contour>
  </outline>
</glyph>
<glyph name="greater" format="2">
  <advance width="700"/>
  <unicode hex="003E"/>
  <outline>
    <contour>
      <point x="3" y="39" type="line"/>
      <point x="15" y="101" type="line"/>
      <point x="602" y="304" type="line"/>
      <point x="600" y="296" type="line"/>
      <point x="92" y="499" type="line"/>
      <point x="105" y="561" type="line"/>
      <point x="660" y="331" type="line"/>
      <point x="648" y="269" type="line"/>
    </contour>
  </outline>
</glyph>
<glyph name="question" format="2">
  <advance width="516"/>
  <unicode hex="003F"/>
  <outline>
    <contour>
      <point x="94" y="0" type="line"/>
      <point x="118" y="123" type="line"/>
      <point x="226" y="123" type="line"/>
      <point x="202" y="0" type="line"/>
    </contour>
    <contour>
      <point x="134" y="165" type="line"/>
      <point x="148" y="234" type="line" smooth="yes"/>
      <point x="158" y="285"/>
      <point x="203" y="351"/>
      <point x="260" y="396"/>
      <point x="320" y="432"/>
      <point x="372" y="471"/>
      <point x="403" y="527"/>
      <point x="403" y="570" type="qcurve" smooth="yes"/>
      <point x="403" y="604"/>
      <point x="352" y="647"/>
      <point x="303" y="647" type="qcurve" smooth="yes"/>
      <point x="267" y="647"/>
      <point x="206" y="624"/>
      <point x="157" y="583"/>
      <point x="138" y="557" type="qcurve"/>
      <point x="71" y="605" type="line"/>
      <point x="115" y="666"/>
      <point x="248" y="737"/>
      <point x="320" y="737" type="qcurve" smooth="yes"/>
      <point x="407" y="737"/>
      <point x="501" y="661"/>
      <point x="501" y="596" type="qcurve" smooth="yes"/>
      <point x="501" y="540"/>
      <point x="467" y="465"/>
      <point x="413" y="412"/>
      <point x="349" y="370"/>
      <point x="289" y="323"/>
      <point x="243" y="260"/>
      <point x="234" y="213" type="qcurve" smooth="yes"/>
      <point x="224" y="165" type="line"/>
    </contour>
  </outline>
</glyph>
<glyph name="at" format="2">
  <advance width="1000"/>
  <unicode hex="0040"/>
  <outline>
    <contour>
      <point x="34" y="167" type="qcurve" smooth="yes"/>
      <point x="34" y="257"/>
      <point x="84" y="422"/>
      <point x="176" y="559"/>
      <point x="306" y="660"/>
      <point x="468" y="716"/>
      <point x="562" y="716" type="qcurve" smooth="yes"/>
      <point x="676" y="716"/>
      <point x="846" y="647"/>
      <point x="939" y="507"/>
      <point x="939" y="403" type="qcurve" smooth="yes"/>
      <point x="939" y="358"/>
      <point x="917" y="254"/>
      <point x="873" y="154"/>
      <point x="809" y="71"/>
      <point x="725" y="21"/>
      <point x="672" y="21" type="qcurve" smooth="yes"/>
      <point x="643" y="21"/>
      <point x="598" y="42"/>
      <point x="567" y="85"/>
      <point x="559" y="116" type="qcurve"/>
      <point x="538" y="88"/>
      <point x="492" y="48"/>
      <point x="433" y="26"/>
      <point x="392" y="26" type="qcurve" smooth="yes"/>
      <point x="347" y="26"/>
      <point x="285" y="74"/>
      <point x="254" y="154"/>
      <point x="254" y="203" type="qcurve" smooth="yes"/>
      <point x="254" y="251"/>
      <point x="285" y="353"/>
      <point x="344" y="439"/>
      <point x="429" y="492"/>
      <point x="483" y="492" type="qcurve" smooth="yes"/>
      <point x="523" y="492"/>
      <point x="568" y="477"/>
      <point x="596" y="449"/>
      <point x="610" y="427" type="qcurve"/>
      <point x="622" y="485" type="line"/>
      <point x="712" y="485" type="line"/>
      <point x="655" y="191" type="line" smooth="yes"/>
      <point x="652" y="176"/>
      <point x="652" y="162" type="qcurve" smooth="yes"/>
      <point x="652" y="140"/>
      <point x="671" y="108"/>
      <point x="694" y="108" type="qcurve" smooth="yes"/>
      <point x="724" y="108"/>
      <point x="772" y="150"/>
      <point x="807" y="218"/>
      <point x="830" y="297"/>
      <point x="842" y="370"/>
      <point x="842" y="396" type="qcurve" smooth="yes"/>
      <point x="842" y="515"/>
      <point x="693" y="626"/>
      <point x="552" y="626" type="qcurve" smooth="yes"/>
      <point x="452" y="626"/>
      <point x="296" y="559"/>
      <point x="187" y="439"/>
      <point x="130" y="278"/>
      <point x="130" y="183" type="qcurve" smooth="yes"/>
      <point x="130" y="99"/>
      <point x="193" y="-22"/>
      <point x="324" y="-88"/>
      <point x="424" y="-88" type="qcurve" smooth="yes"/>
      <point x="465" y="-88"/>
      <point x="522" y="-85"/>
      <point x="569" y="-77"/>
      <point x="598" y="-71" type="qcurve"/>
      <point x="582" y="-152" type="line"/>
      <point x="557" y="-160"/>
      <point x="503" y="-172"/>
      <point x="444" y="-178"/>
      <point x="412" y="-178" type="qcurve" smooth="yes"/>
      <point x="288" y="-178"/>
      <point x="120" y="-95"/>
      <point x="34" y="60"/>
    </contour>
    <contour>
      <point x="350" y="196" type="qcurve" smooth="yes"/>
      <point x="350" y="146"/>
      <point x="389" y="95"/>
      <point x="426" y="95" type="qcurve" smooth="yes"/>
      <point x="464" y="95"/>
      <point x="521" y="139"/>
      <point x="561" y="209"/>
      <point x="581" y="286"/>
      <point x="581" y="319" type="qcurve" smooth="yes"/>
      <point x="581" y="362"/>
      <point x="542" y="423"/>
      <point x="497" y="423" type="qcurve" smooth="yes"/>
      <point x="457" y="423"/>
      <point x="401" y="378"/>
      <point x="366" y="307"/>
      <point x="350" y="229"/>
    </contour>
  </outline>
</glyph>
<glyph name="A" format="2">
  <advance width="681"/>
  <unicode hex="0041"/>
  <outline>
    <contour>
      <point x="-59" y="0" type="line"/>
      <point x="384" y="722" type="line"/>
      <point x="494" y="722" type="line"/>
      <point x="661" y="0" type="line"/>
      <point x="555" y="0" type="line"/>
      <point x="416" y="613" type="line"/>
      <point x="44" y="0" type="line"/>
    </contour>
    <contour>
      <point x="135" y="193" type="line"/>
      <point x="191" y="278" type="line"/>
      <point x="514" y="278" type="line"/>
      <point x="539" y="193" type="line"/>
    </contour>
  </outline>
</glyph>
<glyph name="B" format="2">
  <advance width="660"/>
  <unicode hex="0042"/>
  <outline>
    <contour>
      <point x="95" y="0" type="line"/>
      <point x="112" y="87" type="line"/>
      <point x="315" y="87" type="line" smooth="yes"/>
      <point x="372" y="87"/>
      <point x="450" y="127"/>
      <point x="491" y="195"/>
      <point x="491" y="237" type="qcurve" smooth="yes"/>
      <point x="491" y="270"/>
      <point x="454" y="315"/>
      <point x="381" y="337"/>
      <point x="328" y="337" type="qcurve" smooth="yes"/>
      <point x="160" y="337" type="line"/>
      <point x="177" y="420" type="line"/>
      <point x="357" y="420" type="line" smooth="yes"/>
      <point x="408" y="420"/>
      <point x="486" y="450"/>
      <point x="529" y="504"/>
      <point x="529" y="540" type="qcurve" smooth="yes"/>
      <point x="529" y="590"/>
      <point x="461" y="635"/>
      <point x="393" y="635" type="qcurve" smooth="yes"/>
      <point x="218" y="635" type="line"/>
      <point x="235" y="722" type="line"/>
      <point x="440" y="722" type="line" smooth="yes"/>
      <point x="527" y="722"/>
      <point x="623" y="643"/>
      <point x="623" y="568" type="qcurve" smooth="yes"/>
      <point x="623" y="508"/>
      <point x="564" y="411"/>
      <point x="458" y="349"/>
      <point x="388" y="341" type="qcurve"/>
      <point x="511" y="398" type="line"/>
      <point x="511" y="358" type="line"/>
      <point x="388" y="415" type="line"/>
      <point x="447" y="410"/>
      <point x="536" y="366"/>
      <point x="585" y="296"/>
      <point x="585" y="252" type="qcurve" smooth="yes"/>
      <point x="585" y="177"/>
      <point x="520" y="63"/>
      <point x="404" y="0"/>
      <point x="326" y="0" type="qcurve" smooth="yes"/>
    </contour>
    <contour>
      <point x="40" y="0" type="line"/>
      <point x="180" y="722" type="line"/>
      <point x="280" y="722" type="line"/>
      <point x="140" y="0" type="line"/>
    </contour>
  </outline>
</glyph>
<glyph name="C" format="2">
  <advance width="673"/>
  <unicode hex="0043"/>
  <outline>
    <contour>
      <point x="31" y="255" type="qcurve" smooth="yes"/>
      <point x="31" y="327"/>
      <point x="66" y="467"/>
      <point x="134" y="588"/>
      <point x="234" y="681"/>
      <point x="365" y="734"/>
      <point x="445" y="734" type="qcurve" smooth="yes"/>
      <point x="544" y="734"/>
      <point x="655" y="649"/>
      <point x="655" y="573" type="qcurve" smooth="yes"/>
      <point x="655" y="562"/>
      <point x="652" y="539"/>
      <point x="650" y="527" type="qcurve"/>
      <point x="549" y="527" type="line"/>
      <point x="551" y="534"/>
      <point x="552" y="548"/>
      <point x="552" y="555" type="qcurve" smooth="yes"/>
      <point x="552" y="600"/>
      <point x="487" y="646"/>
      <point x="425" y="646" type="qcurve" smooth="yes"/>
      <point x="362" y="646"/>
      <point x="266" y="601"/>
      <point x="197" y="523"/>
      <point x="154" y="423"/>
      <point x="134" y="312"/>
      <point x="134" y="258" type="qcurve" smooth="yes"/>
      <point x="134" y="200"/>
      <point x="171" y="118"/>
      <point x="246" y="76"/>
      <point x="305" y="76" type="qcurve" smooth="yes"/>
      <point x="378" y="76"/>
      <point x="478" y="140"/>
      <point x="489" y="195" type="qcurve"/>
      <point x="590" y="195" type="line"/>
      <point x="577" y="130"/>
      <point x="500" y="37"/>
      <point x="380" y="-12"/>
      <point x="302" y="-12" type="qcurve" smooth="yes"/>
      <point x="209" y="-12"/>
      <point x="89" y="55"/>
      <point x="31" y="175"/>
    </contour>
  </outline>
</glyph>
<glyph name="D" format="2">
  <advance width="712"/>
  <unicode hex="0044"/>
  <outline>
    <contour>
      <point x="40" y="0" type="line"/>
      <point x="180" y="722" type="line"/>
      <point x="280" y="722" type="line"/>
      <point x="140" y="0" type="line"/>
    </contour>
    <contour>
      <point x="104" y="0" type="line"/>
      <point x="104" y="87" type="line"/>
      <point x="283" y="87" type="line" smooth="yes"/>
      <point x="342" y="87"/>
      <point x="440" y="124"/>
      <point x="517" y="191"/>
      <point x="570" y="280"/>
      <point x="597" y="383"/>
      <point x="597" y="438" type="qcurve" smooth="yes"/>
      <point x="597" y="530"/>
      <point x="492" y="635"/>
      <point x="389" y="635" type="qcurve" smooth="yes"/>
      <point x="204" y="635" type="line"/>
      <point x="204" y="722" type="line"/>
      <point x="404" y="722" type="line" smooth="yes"/>
      <point x="503" y="722"/>
      <point x="635" y="662"/>
      <point x="701" y="548"/>
      <point x="701" y="465" type="qcurve" smooth="yes"/>
      <point x="701" y="387"/>
      <point x="663" y="248"/>
      <point x="589" y="132"/>
      <point x="482" y="47"/>
      <point x="345" y="0"/>
      <point x="264" y="0" type="qcurve" smooth="yes"/>
    </contour>
  </outline>
</glyph>
<glyph name="E" format="2">
  <advance width="538"/>
  <unicode hex="0045"/>
  <outline>
    <contour>
      <point x="70" y="0" type="line"/>
      <point x="87" y="87" type="line"/>
      <point x="444" y="87" type="line"/>
      <point x="427" y="0" type="line"/>
    </contour>
    <contour>
      <point x="40" y="0" type="line"/>
      <point x="180" y="722" type="line"/>
      <point x="280" y="722" type="line"/>
      <point x="140" y="0" type="line"/>
    </contour>
    <contour>
      <point x="133" y="326" type="line"/>
      <point x="150" y="413" type="line"/>
      <point x="487" y="413" type="line"/>
      <point x="470" y="326" type="line"/>
    </contour>
    <contour>
      <point x="193" y="635" type="line"/>
      <point x="210" y="722" type="line"/>
      <point x="557" y="722" type="line"/>
      <point x="540" y="635" type="line"/>
    </contour>
  </outline>
</glyph>
<glyph name="F" format="2">
  <advance width="528"/>
  <unicode hex="0046"/>
  <outline>
    <contour>
      <point x="40" y="0" type="line"/>
      <point x="180" y="722" type="line"/>
      <point x="280" y="722" type="line"/>
      <point x="140" y="0" type="line"/>
    </contour>
    <contour>
      <point x="133" y="326" type="line"/>
      <point x="150" y="413" type="line"/>
      <point x="487" y="413" type="line"/>
      <point x="470" y="326" type="line"/>
    </contour>
    <contour>
      <point x="183" y="635" type="line"/>
      <point x="200" y="722" type="line"/>
      <point x="547" y="722" type="line"/>
      <point x="530" y="635" type="line"/>
    </contour>
  </outline>
</glyph>
<glyph name="G" format="2">
  <advance width="683"/>
  <unicode hex="0047"/>
  <outline>
    <contour>
      <point x="31" y="255" type="qcurve" smooth="yes"/>
      <point x="31" y="327"/>
      <point x="66" y="466"/>
      <point x="133" y="588"/>
      <point x="233" y="681"/>
      <point x="363" y="734"/>
      <point x="442" y="734" type="qcurve" smooth="yes"/>
      <point x="513" y="734"/>
      <point x="622" y="692"/>
      <point x="682" y="617"/>
      <point x="682" y="569" type="qcurve" smooth="yes"/>
      <point x="682" y="555"/>
      <point x="680" y="540" type="qcurve"/>
      <point x="579" y="540" type="line"/>
      <point x="580" y="546"/>
      <point x="580" y="551" type="qcurve" smooth="yes"/>
      <point x="580" y="578"/>
      <point x="537" y="621"/>
      <point x="464" y="646"/>
      <point x="418" y="646" type="qcurve" smooth="yes"/>
      <point x="357" y="646"/>
      <point x="263" y="601"/>
      <point x="196" y="522"/>
      <point x="154" y="422"/>
      <point x="134" y="312"/>
      <point x="134" y="258" type="qcurve" smooth="yes"/>
      <point x="134" y="200"/>
      <point x="171" y="118"/>
      <point x="251" y="76"/>
      <point x="314" y="76" type="qcurve" smooth="yes"/>
      <point x="344" y="76"/>
      <point x="409" y="81"/>
      <point x="473" y="92"/>
      <point x="503" y="100" type="qcurve"/>
      <point x="542" y="299" type="line"/>
      <point x="378" y="299" type="line"/>
      <point x="395" y="386" type="line"/>
      <point x="660" y="386" type="line"/>
      <point x="592" y="38" type="line"/>
      <point x="549" y="21"/>
      <point x="445" y="-1"/>
      <point x="341" y="-12"/>
      <point x="297" y="-12" type="qcurve" smooth="yes"/>
      <point x="207" y="-12"/>
      <point x="89" y="55"/>
      <point x="31" y="175"/>
    </contour>
  </outline>
</glyph>
<glyph name="H" format="2">
  <advance width="731"/>
  <unicode hex="0048"/>
  <outline>
    <contour>
      <point x="183" y="326" type="line"/>
      <point x="200" y="414" type="line"/>
      <point x="589" y="414" type="line"/>
      <point x="572" y="326" type="line"/>
    </contour>
    <contour>
      <point x="41" y="0" type="line"/>
      <point x="181" y="722" type="line"/>
      <point x="281" y="722" type="line"/>
      <point x="141" y="0" type="line"/>
    </contour>
    <contour>
      <point x="490" y="0" type="line"/>
      <point x="630" y="722" type="line"/>
      <point x="730" y="722" type="line"/>
      <point x="590" y="0" type="line"/>
    </contour>
  </outline>
</glyph>
<glyph name="I" format="2">
  <advance width="320"/>
  <unicode hex="0049"/>
  <outline>
    <contour>
      <point x="50" y="0" type="line"/>
      <point x="190" y="722" type="line"/>
      <point x="290" y="722" type="line"/>
      <point x="150" y="0" type="line"/>
    </contour>
  </outline>
</glyph>
<glyph name="J" format="2">
  <advance width="528"/>
  <unicode hex="004A"/>
  <outline>
    <contour>
      <point x="-9" y="148" type="qcurve" smooth="yes"/>
      <point x="-9" y="170"/>
      <point x="-4" y="194" type="qcurve"/>
      <point x="96" y="194" type="line"/>
      <point x="92" y="175"/>
      <point x="92" y="158" type="qcurve" smooth="yes"/>
      <point x="92" y="116"/>
      <point x="138" y="74"/>
      <point x="179" y="74" type="qcurve" smooth="yes"/>
      <point x="240" y="74"/>
      <point x="317" y="155"/>
      <point x="329" y="215" type="qcurve" smooth="yes"/>
      <point x="427" y="722" type="line"/>
      <point x="527" y="722" type="line"/>
      <point x="429" y="215" type="line" smooth="yes"/>
      <point x="416" y="148"/>
      <point x="341" y="45"/>
      <point x="231" y="-14"/>
      <point x="166" y="-14" type="qcurve" smooth="yes"/>
      <point x="85" y="-14"/>
      <point x="-9" y="75"/>
    </contour>
  </outline>
</glyph>
<glyph name="K" format="2">
  <advance width="624"/>
  <unicode hex="004B"/>
  <outline>
    <contour>
      <point x="40" y="0" type="line"/>
      <point x="180" y="722" type="line"/>
      <point x="280" y="722" type="line"/>
      <point x="140" y="0" type="line"/>
    </contour>
    <contour>
      <point x="212" y="399" type="line"/>
      <point x="589" y="722" type="line"/>
      <point x="713" y="722" type="line"/>
      <point x="321" y="390" type="line"/>
      <point x="330" y="436" type="line"/>
      <point x="610" y="0" type="line"/>
      <point x="475" y="0" type="line"/>
    </contour>
  </outline>
</glyph>
<glyph name="L" format="2">
  <advance width="454"/>
  <unicode hex="004C"/>
  <outline>
    <contour>
      <point x="70" y="0" type="line"/>
      <point x="87" y="87" type="line"/>
      <point x="444" y="87" type="line"/>
      <point x="427" y="0" type="line"/>
    </contour>
    <contour>
      <point x="40" y="0" type="line"/>
      <point x="180" y="722" type="line"/>
      <point x="280" y="722" type="line"/>
      <point x="140" y="0" type="line"/>
    </contour>
  </outline>
</glyph>
<glyph name="M" format="2">
  <advance width="882"/>
  <unicode hex="004D"/>
  <outline>
    <contour>
      <point x="41" y="0" type="line"/>
      <point x="181" y="722" type="line"/>
      <point x="281" y="722" type="line"/>
      <point x="141" y="0" type="line"/>
    </contour>
    <contour>
      <point x="641" y="0" type="line"/>
      <point x="781" y="722" type="line"/>
      <point x="881" y="722" type="line"/>
      <point x="741" y="0" type="line"/>
    </contour>
    <contour>
      <point x="349" y="0" type="line"/>
      <point x="220" y="722" type="line"/>
      <point x="315" y="722" type="line"/>
      <point x="418" y="126" type="line"/>
      <point x="408" y="126" type="line"/>
      <point x="748" y="722" type="line"/>
      <point x="841" y="722" type="line"/>
      <point x="429" y="0" type="line"/>
    </contour>
  </outline>
</glyph>
<glyph name="N" format="2">
  <advance width="745"/>
  <unicode hex="004E"/>
  <outline>
    <contour>
      <point x="211" y="722" type="line"/>
      <point x="323" y="722" type="line"/>
      <point x="574" y="0" type="line"/>
      <point x="461" y="0" type="line"/>
    </contour>
    <contour>
      <point x="41" y="0" type="line"/>
      <point x="181" y="722" type="line"/>
      <point x="281" y="722" type="line"/>
      <point x="141" y="0" type="line"/>
    </contour>
    <contour>
      <point x="504" y="0" type="line"/>
      <point x="644" y="722" type="line"/>
      <point x="744" y="722" type="line"/>
      <point x="604" y="0" type="line"/>
    </contour>
  </outline>
</glyph>
<glyph name="P" format="2">
  <advance width="610"/>
  <unicode hex="0050"/>
  <outline>
    <contour>
      <point x="185" y="306" type="line"/>
      <point x="202" y="394" type="line"/>
      <point x="324" y="394" type="line" smooth="yes"/>
      <point x="394" y="394"/>
      <point x="486" y="426"/>
      <point x="530" y="493"/>
      <point x="530" y="544" type="qcurve" smooth="yes"/>
      <point x="530" y="592"/>
      <point x="455" y="635"/>
      <point x="371" y="635" type="qcurve" smooth="yes"/>
      <point x="249" y="635" type="line"/>
      <point x="179" y="709" type="line"/>
      <point x="181" y="722" type="line"/>
      <point x="385" y="722" type="line" smooth="yes"/>
      <point x="469" y="722"/>
      <point x="578" y="689"/>
      <point x="630" y="622"/>
      <point x="630" y="569" type="qcurve" smooth="yes"/>
      <point x="630" y="482"/>
      <point x="556" y="365"/>
      <point x="411" y="306"/>
      <point x="304" y="306" type="qcurve" smooth="yes"/>
    </contour>
    <contour>
      <point x="41" y="0" type="line"/>
      <point x="181" y="722" type="line"/>
      <point x="198" y="722" type="line"/>
      <point x="267" y="650" type="line"/>
      <point x="141" y="0" type="line"/>
    </contour>
  </outline>
</glyph>
<glyph name="Q" format="2">
  <advance width="719"/>
  <unicode hex="0051"/>
  <outline>
    <contour>
      <point x="354" y="-8" type="line"/>
      <point x="523" y="70" type="line" smooth="yes"/>
      <point x="527" y="72"/>
      <point x="556" y="77"/>
      <point x="596" y="82"/>
      <point x="640" y="86"/>
      <point x="680" y="88"/>
      <point x="694" y="88" type="qcurve"/>
      <point x="677" y="0" type="line"/>
      <point x="498" y="0" type="line" smooth="yes"/>
      <point x="490" y="0"/>
      <point x="453" y="-1"/>
      <point x="409" y="-3"/>
      <point x="370" y="-5"/>
      <point x="361" y="-7" type="qcurve"/>
    </contour>
    <contour>
      <point x="31" y="255" type="qcurve" smooth="yes"/>
      <point x="31" y="358"/>
      <point x="93" y="533"/>
      <point x="205" y="662"/>
      <point x="356" y="734"/>
      <point x="445" y="734" type="qcurve" smooth="yes"/>
      <point x="571" y="734"/>
      <point x="709" y="595"/>
      <point x="709" y="467" type="qcurve" smooth="yes"/>
      <point x="709" y="364"/>
      <point x="647" y="189"/>
      <point x="535" y="60"/>
      <point x="384" y="-12"/>
      <point x="295" y="-12" type="qcurve" smooth="yes"/>
      <point x="210" y="-12"/>
      <point x="93" y="51"/>
      <point x="31" y="170"/>
    </contour>
    <contour>
      <point x="134" y="258" type="qcurve" smooth="yes"/>
      <point x="134" y="197"/>
      <point x="173" y="117"/>
      <point x="251" y="76"/>
      <point x="309" y="76" type="qcurve" smooth="yes"/>
      <point x="376" y="76"/>
      <point x="485" y="132"/>
      <point x="563" y="235"/>
      <point x="606" y="377"/>
      <point x="606" y="464" type="qcurve" smooth="yes"/>
      <point x="606" y="555"/>
      <point x="518" y="646"/>
      <point x="430" y="646" type="qcurve" smooth="yes"/>
      <point x="364" y="646"/>
      <point x="255" y="590"/>
      <point x="176" y="487"/>
      <point x="134" y="345"/>
    </contour>
  </outline>
</glyph>
<glyph name="R" format="2">
  <advance width="627"/>
  <unicode hex="0052"/>
  <outline>
    <contour>
      <point x="199" y="328" type="line"/>
      <point x="215" y="414" type="line"/>
      <point x="356" y="414" type="line" smooth="yes"/>
      <point x="403" y="414"/>
      <point x="489" y="437"/>
      <point x="543" y="496"/>
      <point x="543" y="551" type="qcurve" smooth="yes"/>
      <point x="543" y="594"/>
      <point x="473" y="634"/>
      <point x="399" y="634" type="qcurve" smooth="yes"/>
      <point x="173" y="634" type="line"/>
      <point x="190" y="722" type="line"/>
      <point x="419" y="722" type="line" smooth="yes"/>
      <point x="478" y="722"/>
      <point x="564" y="705"/>
      <point x="619" y="669"/>
      <point x="647" y="612"/>
      <point x="647" y="572" type="qcurve" smooth="yes"/>
      <point x="647" y="520"/>
      <point x="604" y="439"/>
      <point x="526" y="383"/>
      <point x="473" y="367" type="qcurve"/>
      <point x="474" y="371" type="line"/>
      <point x="505" y="366"/>
      <point x="540" y="336"/>
      <point x="554" y="271"/>
      <point x="554" y="215" type="qcurve" smooth="yes"/>
      <point x="554" y="155" type="line" smooth="yes"/>
      <point x="554" y="112"/>
      <point x="558" y="27"/>
      <point x="560" y="0" type="qcurve"/>
      <point x="460" y="0" type="line"/>
      <point x="457" y="26"/>
      <point x="457" y="96"/>
      <point x="457" y="143" type="qcurve" smooth="yes"/>
      <point x="457" y="173" type="line" smooth="yes"/>
      <point x="457" y="233"/>
      <point x="437" y="300"/>
      <point x="384" y="328"/>
      <point x="334" y="328" type="qcurve" smooth="yes"/>
    </contour>
    <contour>
      <point x="40" y="0" type="line"/>
      <point x="180" y="722" type="line"/>
      <point x="280" y="722" type="line"/>
      <point x="140" y="0" type="line"/>
    </contour>
  </outline>
</glyph>
<glyph name="S" format="2">
  <advance width="667"/>
  <unicode hex="0053"/>
  <outline>
    <contour>
      <point x="40" y="168" type="qcurve" smooth="yes"/>
      <point x="40" y="190"/>
      <point x="45" y="214" type="qcurve"/>
      <point x="145" y="214" type="line"/>
      <point x="143" y="203"/>
      <point x="143" y="192" type="qcurve" smooth="yes"/>
      <point x="143" y="158"/>
      <point x="182" y="104"/>
      <point x="249" y="73"/>
      <point x="292" y="73" type="qcurve" smooth="yes"/>
      <point x="382" y="73"/>
      <point x="487" y="153"/>
      <point x="487" y="222" type="qcurve" smooth="yes"/>
      <point x="487" y="264"/>
      <point x="412" y="314"/>
      <point x="321" y="332" type="qcurve" smooth="yes"/>
      <point x="207" y="354"/>
      <point x="112" y="426"/>
      <point x="112" y="490" type="qcurve" smooth="yes"/>
      <point x="112" y="562"/>
      <point x="187" y="674"/>
      <point x="318" y="737"/>
      <point x="403" y="737" type="qcurve" smooth="yes"/>
      <point x="475" y="737"/>
      <point x="575" y="701"/>
      <point x="627" y="633"/>
      <point x="627" y="583" type="qcurve" smooth="yes"/>
      <point x="627" y="562"/>
      <point x="622" y="540" type="qcurve"/>
      <point x="522" y="540" type="line"/>
      <point x="525" y="555"/>
      <point x="525" y="567" type="qcurve" smooth="yes"/>
      <point x="525" y="610"/>
      <point x="455" y="649"/>
      <point x="379" y="649" type="qcurve" smooth="yes"/>
      <point x="328" y="649"/>
      <point x="255" y="617"/>
      <point x="215" y="558"/>
      <point x="215" y="517" type="qcurve" smooth="yes"/>
      <point x="215" y="481"/>
      <point x="260" y="442"/>
      <point x="333" y="421"/>
      <point x="374" y="412" type="qcurve" smooth="yes"/>
      <point x="454" y="395"/>
      <point x="548" y="353"/>
      <point x="590" y="293"/>
      <point x="590" y="250" type="qcurve" smooth="yes"/>
      <point x="590" y="167"/>
      <point x="512" y="48"/>
      <point x="368" y="-15"/>
      <point x="266" y="-15" type="qcurve" smooth="yes"/>
      <point x="197" y="-15"/>
      <point x="96" y="30"/>
      <point x="40" y="111"/>
    </contour>
  </outline>
</glyph>
<glyph name="T" format="2">
  <advance width="513"/>
  <unicode hex="0054"/>
  <outline>
    <contour>
      <point x="93" y="0" type="line"/>
      <point x="216" y="635" type="line"/>
      <point x="-20" y="635" type="line"/>
      <point x="-3" y="722" type="line"/>
      <point x="552" y="722" type="line"/>
      <point x="535" y="635" type="line"/>
      <point x="316" y="635" type="line"/>
      <point x="193" y="0" type="line"/>
    </contour>
  </outline>
</glyph>
<glyph name="U" format="2">
  <advance width="710"/>
  <unicode hex="0055"/>
  <outline>
    <contour>
      <point x="41" y="192" type="qcurve" smooth="yes"/>
      <point x="41" y="247"/>
      <point x="55" y="322" type="qcurve" smooth="yes"/>
      <point x="133" y="722" type="line"/>
      <point x="233" y="722" type="line"/>
      <point x="155" y="322" type="line" smooth="yes"/>
      <point x="150" y="293"/>
      <point x="144" y="241"/>
      <point x="144" y="218" type="qcurve" smooth="yes"/>
      <point x="144" y="150"/>
      <point x="211" y="74"/>
      <point x="294" y="74" type="qcurve" smooth="yes"/>
      <point x="368" y="74"/>
      <point x="462" y="135"/>
      <point x="517" y="247"/>
      <point x="531" y="322" type="qcurve" smooth="yes"/>
      <point x="609" y="722" type="line"/>
      <point x="709" y="722" type="line"/>
      <point x="631" y="322" type="line" smooth="yes"/>
      <point x="608" y="200"/>
      <point x="526" y="52"/>
      <point x="387" y="-14"/>
      <point x="278" y="-14" type="qcurve" smooth="yes"/>
      <point x="151" y="-14"/>
      <point x="41" y="88"/>
    </contour>
  </outline>
</glyph>
<glyph name="V" format="2">
  <advance width="575"/>
  <unicode hex="0056"/>
  <outline>
    <contour>
      <point x="157" y="0" type="line"/>
      <point x="40" y="722" type="line"/>
      <point x="153" y="722" type="line"/>
      <point x="239" y="119" type="line"/>
      <point x="231" y="119" type="line"/>
      <point x="551" y="722" type="line"/>
      <point x="664" y="722" type="line"/>
      <point x="267" y="0" type="line"/>
    </contour>
  </outline>
</glyph>
<glyph name="W" format="2">
  <advance width="893"/>
  <unicode hex="0057"/>
  <outline>
    <contour>
      <point x="114" y="0" type="line"/>
      <point x="40" y="722" type="line"/>
      <point x="146" y="722" type="line"/>
      <point x="189" y="138" type="line"/>
      <point x="183" y="138" type="line"/>
      <point x="451" y="722" type="line"/>
      <point x="571" y="722" type="line"/>
      <point x="613" y="138" type="line"/>
      <point x="607" y="138" type="line"/>
      <point x="876" y="722" type="line"/>
      <point x="982" y="722" type="line"/>
      <point x="628" y="0" type="line"/>
      <point x="538" y="0" type="line"/>
      <point x="487" y="614" type="line"/>
      <point x="493" y="614" type="line"/>
      <point x="204" y="0" type="line"/>
    </contour>
  </outline>
</glyph>
<glyph name="X" format="2">
  <advance width="691"/>
  <unicode hex="0058"/>
  <outline>
    <contour>
      <point x="125" y="722" type="line"/>
      <point x="253" y="722" type="line"/>
      <point x="605" y="0" type="line"/>
      <point x="477" y="0" type="line"/>
    </contour>
    <contour>
      <point x="-49" y="0" type="line"/>
      <point x="302" y="397" type="line"/>
      <point x="342" y="327" type="line"/>
      <point x="69" y="0" type="line"/>
    </contour>
    <contour>
      <point x="363" y="443" type="line"/>
      <point x="592" y="722" type="line"/>
      <point x="710" y="722" type="line"/>
      <point x="403" y="373" type="line"/>
    </contour>
  </outline>
</glyph>
<glyph name="Y" format="2">
  <advance width="587"/>
  <unicode hex="0059"/>
  <outline>
    <contour>
      <point x="258" y="206" type="line"/>
      <point x="40" y="722" type="line"/>
      <point x="163" y="722" type="line"/>
      <point x="291" y="375" type="line"/>
      <point x="562" y="722" type="line"/>
      <point x="676" y="722" type="line"/>
    </contour>
    <contour>
      <point x="167" y="0" type="line"/>
      <point x="226" y="302" type="line"/>
      <point x="326" y="302" type="line"/>
      <point x="267" y="0" type="line"/>
    </contour>
  </outline>
</glyph>
<glyph name="Z" format="2">
  <advance width="588"/>
  <unicode hex="005A"/>
  <outline>
    <contour>
      <point x="-29" y="0" type="line"/>
      <point x="-8" y="110" type="line"/>
      <point x="500" y="635" type="line"/>
      <point x="114" y="635" type="line"/>
      <point x="131" y="722" type="line"/>
      <point x="627" y="722" type="line"/>
      <point x="606" y="612" type="line"/>
      <point x="98" y="87" type="line"/>
      <point x="514" y="87" type="line"/>
      <point x="497" y="0" type="line"/>
    </contour>
  </outline>
</glyph>
<glyph name="bracketleft" format="2">
  <advance width="396"/>
  <unicode hex="005B"/>
  <outline>
    <contour>
      <point x="-3" y="-198" type="line"/>
      <point x="176" y="722" type="line"/>
      <point x="362" y="722" type="line"/>
      <point x="352" y="671" type="line"/>
      <point x="252" y="671" type="line"/>
      <point x="93" y="-147" type="line"/>
      <point x="193" y="-147" type="line"/>
      <point x="183" y="-198" type="line"/>
    </contour>
  </outline>
</glyph>
<glyph name="backslash" format="2">
  <advance width="113"/>
  <unicode hex="005C"/>
  <outline>
    <contour>
      <point x="-59" y="736" type="line"/>
      <point x="10" y="736" type="line"/>
      <point x="92" y="-52" type="line"/>
      <point x="23" y="-52" type="line"/>
    </contour>
  </outline>
</glyph>
<glyph name="bracketright" format="2">
  <advance width="396"/>
  <unicode hex="005D"/>
  <outline>
    <contour>
      <point x="-3" y="-198" type="line"/>
      <point x="7" y="-147" type="line"/>
      <point x="106" y="-147" type="line"/>
      <point x="265" y="671" type="line"/>
      <point x="166" y="671" type="line"/>
      <point x="176" y="722" type="line"/>
      <point x="362" y="722" type="line"/>
      <point x="183" y="-198" type="line"/>
    </contour>
  </outline>
</glyph>
<glyph name="asciicircum" format="2">
  <advance width="539"/>
  <unicode hex="005E"/>
  <outline>
    <contour>
      <point x="-59" y="10" type="line"/>
      <point x="281" y="610" type="line"/>
      <point x="412" y="610" type="line"/>
      <point x="518" y="10" type="line"/>
      <point x="429" y="10" type="line"/>
      <point x="334" y="546" type="line"/>
      <point x="31" y="10" type="line"/>
    </contour>
  </outline>
</glyph>
<glyph name="underscore" format="2">
  <advance width="500"/>
  <unicode hex="005F"/>
  <outline>
    <contour>
      <point x="-21" y="-142" type="line"/>
      <point x="-7" y="-72" type="line"/>
      <point x="493" y="-72" type="line"/>
      <point x="479" y="-142" type="line"/>
    </contour>
  </outline>
</glyph>
<glyph name="grave" format="2">
  <advance width="220"/>
  <unicode hex="0060"/>
  <outline>
    <contour>
      <point x="20" y="760" type="line"/>
      <point x="120" y="760" type="line"/>
      <point x="200" y="580" type="line"/>
      <point x="139" y="580" type="line"/>
    </contour>
  </outline>
</glyph>
<glyph name="a" format="2">
  <advance width="522"/>
  <unicode hex="0061"/>
  <outline>
    <contour>
      <point x="4" y="109" type="qcurve" smooth="yes"/>
      <point x="4" y="169"/>
      <point x="64" y="247"/>
      <point x="159" y="291"/>
      <point x="267" y="309"/>
      <point x="315" y="309" type="qcurve" smooth="yes"/>
      <point x="337" y="309"/>
      <point x="390" y="303"/>
      <point x="398" y="301" type="qcurve"/>
      <point x="404" y="232" type="line"/>
      <point x="379" y="235"/>
      <point x="352" y="238"/>
      <point x="331" y="239"/>
      <point x="316" y="239" type="qcurve" smooth="yes"/>
      <point x="289" y="239"/>
      <point x="215" y="231"/>
      <point x="146" y="210"/>
      <point x="100" y="167"/>
      <point x="100" y="132" type="qcurve" smooth="yes"/>
      <point x="100" y="97"/>
      <point x="147" y="56"/>
      <point x="185" y="56" type="qcurve" smooth="yes"/>
      <point x="234" y="56"/>
      <point x="305" y="89"/>
      <point x="350" y="155"/>
      <point x="360" y="204" type="qcurve" smooth="yes"/>
      <point x="388" y="349" type="line" smooth="yes"/>
      <point x="390" y="362"/>
      <point x="390" y="372" type="qcurve" smooth="yes"/>
      <point x="390" y="407"/>
      <point x="343" y="443"/>
      <point x="297" y="443" type="qcurve" smooth="yes"/>
      <point x="247" y="443"/>
      <point x="180" y="401"/>
      <point x="173" y="365" type="qcurve"/>
      <point x="79" y="365" type="line"/>
      <point x="93" y="437"/>
      <point x="211" y="513"/>
      <point x="312" y="513" type="qcurve" smooth="yes"/>
      <point x="398" y="513"/>
      <point x="486" y="453"/>
      <point x="486" y="390" type="qcurve" smooth="yes"/>
      <point x="486" y="365"/>
      <point x="479" y="335" type="qcurve" smooth="yes"/>
      <point x="446" y="182" type="line" smooth="yes"/>
      <point x="433" y="128"/>
      <point x="424" y="51"/>
      <point x="424" y="28" type="qcurve" smooth="yes"/>
      <point x="424" y="19"/>
      <point x="425" y="5"/>
      <point x="426" y="0" type="qcurve"/>
      <point x="338" y="0" type="line"/>
      <point x="337" y="15"/>
      <point x="337" y="30" type="qcurve" smooth="yes"/>
      <point x="337" y="49"/>
      <point x="340" y="85"/>
      <point x="342" y="104" type="qcurve"/>
      <point x="353" y="86" type="line"/>
      <point x="314" y="48"/>
      <point x="256" y="4"/>
      <point x="199" y="-14"/>
      <point x="165" y="-14" type="qcurve" smooth="yes"/>
      <point x="89" y="-14"/>
      <point x="4" y="52"/>
    </contour>
  </outline>
</glyph>
<glyph name="b" format="2">
  <advance width="585"/>
  <unicode hex="0062"/>
  <outline>
    <contour>
      <point x="11" y="0" type="line"/>
      <point x="151" y="722" type="line"/>
      <point x="238" y="722" type="line"/>
      <point x="173" y="389" type="line"/>
      <point x="162" y="389" type="line"/>
      <point x="105" y="100" type="line"/>
      <point x="117" y="99" type="line"/>
      <point x="98" y="0" type="line"/>
    </contour>
    <contour>
      <point x="100" y="109" type="qcurve"/>
      <point x="158" y="406" type="line"/>
      <point x="180" y="441"/>
      <point x="244" y="489"/>
      <point x="320" y="513"/>
      <point x="362" y="513" type="qcurve" smooth="yes"/>
      <point x="449" y="513"/>
      <point x="554" y="414"/>
      <point x="554" y="328" type="qcurve" smooth="yes"/>
      <point x="554" y="265"/>
      <point x="512" y="144"/>
      <point x="435" y="46"/>
      <point x="328" y="-13"/>
      <point x="263" y="-13" type="qcurve" smooth="yes"/>
      <point x="200" y="-13"/>
      <point x="120" y="47"/>
    </contour>
    <contour>
      <point x="143" y="203" type="qcurve" smooth="yes"/>
      <point x="143" y="136"/>
      <point x="204" y="52"/>
      <point x="256" y="52" type="qcurve" smooth="yes"/>
      <point x="307" y="52"/>
      <point x="382" y="101"/>
      <point x="432" y="179"/>
      <point x="457" y="269"/>
      <point x="457" y="310" type="qcurve" smooth="yes"/>
      <point x="457" y="380"/>
      <point x="390" y="455"/>
      <point x="335" y="455" type="qcurve" smooth="yes"/>
      <point x="289" y="455"/>
      <point x="218" y="408"/>
      <point x="168" y="333"/>
      <point x="143" y="245"/>
    </contour>
  </outline>
</glyph>
<glyph name="c" format="2">
  <advance width="515"/>
  <unicode hex="0063"/>
  <outline>
    <contour>
      <point x="30" y="174" type="qcurve" smooth="yes"/>
      <point x="30" y="82"/>
      <point x="122" y="-12"/>
      <point x="208" y="-12" type="qcurve" smooth="yes"/>
      <point x="268" y="-12"/>
      <point x="369" y="33"/>
      <point x="438" y="114"/>
      <point x="452" y="169" type="qcurve"/>
      <point x="357" y="169" type="line"/>
      <point x="350" y="133"/>
      <point x="312" y="80"/>
      <point x="256" y="52"/>
      <point x="222" y="52" type="qcurve" smooth="yes"/>
      <point x="174" y="52"/>
      <point x="126" y="112"/>
      <point x="126" y="174" type="qcurve" smooth="yes"/>
      <point x="126" y="204"/>
      <point x="138" y="277"/>
      <point x="164" y="350"/>
      <point x="205" y="410"/>
      <point x="263" y="447"/>
      <point x="302" y="447" type="qcurve" smooth="yes"/>
      <point x="346" y="447"/>
      <point x="388" y="398"/>
      <point x="388" y="359" type="qcurve" smooth="yes"/>
      <point x="388" y="356"/>
      <point x="387" y="347"/>
      <point x="387" y="341" type="qcurve"/>
      <point x="482" y="341" type="line"/>
      <point x="483" y="353"/>
      <point x="484" y="362"/>
      <point x="484" y="370" type="qcurve" smooth="yes"/>
      <point x="484" y="439"/>
      <point x="396" y="512"/>
      <point x="322" y="512" type="qcurve" smooth="yes"/>
      <point x="252" y="512"/>
      <point x="143" y="452"/>
      <point x="68" y="353"/>
      <point x="30" y="234"/>
    </contour>
  </outline>
</glyph>
<glyph name="d" format="2">
  <advance width="589"/>
  <unicode hex="0064"/>
  <outline>
    <contour>
      <point x="31" y="188" type="qcurve" smooth="yes"/>
      <point x="31" y="246"/>
      <point x="70" y="362"/>
      <point x="144" y="456"/>
      <point x="247" y="513"/>
      <point x="311" y="513" type="qcurve" smooth="yes"/>
      <point x="355" y="513"/>
      <point x="412" y="486"/>
      <point x="447" y="441"/>
      <point x="458" y="415" type="qcurve"/>
      <point x="392" y="72" type="line"/>
      <point x="382" y="58"/>
      <point x="325" y="18"/>
      <point x="251" y="-13"/>
      <point x="216" y="-13" type="qcurve" smooth="yes"/>
      <point x="123" y="-13"/>
      <point x="31" y="100"/>
    </contour>
    <contour>
      <point x="121" y="202" type="qcurve" smooth="yes"/>
      <point x="121" y="143"/>
      <point x="179" y="57"/>
      <point x="242" y="57" type="qcurve" smooth="yes"/>
      <point x="290" y="57"/>
      <point x="359" y="106"/>
      <point x="402" y="183"/>
      <point x="423" y="271"/>
      <point x="423" y="310" type="qcurve" smooth="yes"/>
      <point x="423" y="349"/>
      <point x="402" y="412"/>
      <point x="353" y="449"/>
      <point x="312" y="449" type="qcurve" smooth="yes"/>
      <point x="264" y="449"/>
      <point x="193" y="402"/>
      <point x="145" y="327"/>
      <point x="121" y="241"/>
    </contour>
    <contour>
      <point x="369" y="0" type="line"/>
      <point x="509" y="722" type="line"/>
      <point x="599" y="722" type="line"/>
      <point x="459" y="0" type="line"/>
    </contour>
  </outline>
</glyph>
<glyph name="e" format="2">
  <advance width="537"/>
  <unicode hex="0065"/>
  <outline>
    <contour>
      <point x="31" y="173" type="qcurve" smooth="yes"/>
      <point x="31" y="238"/>
      <point x="68" y="359"/>
      <point x="142" y="455"/>
      <point x="251" y="512"/>
      <point x="322" y="512" type="qcurve" smooth="yes"/>
      <point x="413" y="512"/>
      <point x="506" y="422"/>
      <point x="506" y="343" type="qcurve" smooth="yes"/>
      <point x="506" y="314"/>
      <point x="500" y="282" type="qcurve" smooth="yes"/>
      <point x="491" y="236" type="line"/>
      <point x="115" y="236" type="line"/>
      <point x="128" y="301" type="line"/>
      <point x="410" y="301" type="line"/>
      <point x="414" y="322"/>
      <point x="414" y="341" type="qcurve" smooth="yes"/>
      <point x="414" y="367"/>
      <point x="396" y="416"/>
      <point x="350" y="447"/>
      <point x="309" y="447" type="qcurve" smooth="yes"/>
      <point x="270" y="447"/>
      <point x="201" y="415"/>
      <point x="152" y="350"/>
      <point x="143" y="301" type="qcurve" smooth="yes"/>
      <point x="130" y="236" type="line" smooth="yes"/>
      <point x="127" y="222"/>
      <point x="125" y="196"/>
      <point x="125" y="183" type="qcurve" smooth="yes"/>
      <point x="125" y="126"/>
      <point x="182" y="51"/>
      <point x="240" y="51" type="qcurve" smooth="yes"/>
      <point x="293" y="51"/>
      <point x="368" y="114"/>
      <point x="381" y="160" type="qcurve"/>
      <point x="477" y="160" type="line"/>
      <point x="447" y="81"/>
      <point x="315" y="-14"/>
      <point x="220" y="-14" type="qcurve" smooth="yes"/>
      <point x="120" y="-14"/>
      <point x="31" y="91"/>
    </contour>
  </outline>
</glyph>
<glyph name="g" format="2">
  <advance width="585"/>
  <unicode hex="0067"/>
  <outline>
    <contour>
      <point x="11" y="-67" type="qcurve" smooth="yes"/>
      <point x="11" y="-53"/>
      <point x="14" y="-39" type="qcurve"/>
      <point x="108" y="-39" type="line"/>
      <point x="106" y="-49"/>
      <point x="106" y="-58" type="qcurve" smooth="yes"/>
      <point x="106" y="-96"/>
      <point x="167" y="-134"/>
      <point x="209" y="-134" type="qcurve" smooth="yes"/>
      <point x="253" y="-134"/>
      <point x="324" y="-95"/>
      <point x="372" y="-25"/>
      <point x="381" y="21" type="qcurve" smooth="yes"/>
      <point x="396" y="95" type="line"/>
      <point x="374" y="73"/>
      <point x="323" y="36"/>
      <point x="257" y="14"/>
      <point x="213" y="14" type="qcurve" smooth="yes"/>
      <point x="122" y="14"/>
      <point x="38" y="112"/>
      <point x="38" y="194" type="qcurve" smooth="yes"/>
      <point x="38" y="252"/>
      <point x="76" y="365"/>
      <point x="148" y="457"/>
      <point x="250" y="513"/>
      <point x="314" y="513" type="qcurve" smooth="yes"/>
      <point x="366" y="513"/>
      <point x="441" y="475"/>
      <point x="463" y="444" type="qcurve"/>
      <point x="474" y="500" type="line"/>
      <point x="564" y="500" type="line"/>
      <point x="473" y="29" type="line" smooth="yes"/>
      <point x="459" y="-41"/>
      <point x="378" y="-143"/>
      <point x="257" y="-198"/>
      <point x="182" y="-198" type="qcurve" smooth="yes"/>
      <point x="148" y="-198"/>
      <point x="86" y="-181"/>
      <point x="38" y="-148"/>
      <point x="11" y="-99"/>
    </contour>
    <contour>
      <point x="134" y="211" type="qcurve" smooth="yes"/>
      <point x="134" y="150"/>
      <point x="183" y="78"/>
      <point x="240" y="78" type="qcurve" smooth="yes"/>
      <point x="286" y="78"/>
      <point x="358" y="123"/>
      <point x="409" y="196"/>
      <point x="435" y="281"/>
      <point x="435" y="322" type="qcurve" smooth="yes"/>
      <point x="435" y="363"/>
      <point x="409" y="419"/>
      <point x="357" y="448"/>
      <point x="318" y="448" type="qcurve" smooth="yes"/>
      <point x="268" y="448"/>
      <point x="197" y="404"/>
      <point x="154" y="333"/>
      <point x="134" y="250"/>
    </contour>
  </outline>
</glyph>
<glyph name="h" format="2">
  <advance width="555"/>
  <unicode hex="0068"/>
  <outline>
    <contour>
      <point x="143" y="323" type="line"/>
      <point x="159" y="408" type="line"/>
      <point x="185" y="436" type="line" smooth="yes"/>
      <point x="206" y="460"/>
      <point x="262" y="494"/>
      <point x="325" y="513"/>
      <point x="357" y="513" type="qcurve" smooth="yes"/>
      <point x="435" y="513"/>
      <point x="515" y="448"/>
      <point x="515" y="383" type="qcurve" smooth="yes"/>
      <point x="515" y="358"/>
      <point x="509" y="329" type="qcurve" smooth="yes"/>
      <point x="445" y="0" type="line"/>
      <point x="355" y="0" type="line"/>
      <point x="415" y="311" type="line" smooth="yes"/>
      <point x="421" y="340"/>
      <point x="421" y="362" type="qcurve" smooth="yes"/>
      <point x="421" y="409"/>
      <point x="371" y="453"/>
      <point x="320" y="453" type="qcurve" smooth="yes"/>
      <point x="282" y="453"/>
      <point x="216" y="418"/>
      <point x="170" y="360"/>
      <point x="163" y="323" type="qcurve"/>
    </contour>
    <contour>
      <point x="11" y="0" type="line"/>
      <point x="151" y="722" type="line"/>
      <point x="241" y="722" type="line"/>
      <point x="101" y="0" type="line"/>
    </contour>
  </outline>
</glyph>
<glyph name="k" format="2">
  <advance width="481"/>
  <unicode hex="006B"/>
  <outline>
    <contour>
      <point x="11" y="0" type="line"/>
      <point x="151" y="722" type="line"/>
      <point x="241" y="722" type="line"/>
      <point x="101" y="0" type="line"/>
    </contour>
    <contour>
      <point x="154" y="281" type="line"/>
      <point x="397" y="500" type="line"/>
      <point x="510" y="500" type="line"/>
      <point x="258" y="273" type="line"/>
      <point x="262" y="292" type="line"/>
      <point x="429" y="0" type="line"/>
      <point x="310" y="0" type="line"/>
    </contour>
  </outline>
</glyph>
<glyph name="l" format="2">
  <advance width="232"/>
  <unicode hex="006C"/>
  <outline>
    <contour>
      <point x="11" y="0" type="line"/>
      <point x="151" y="722" type="line"/>
      <point x="241" y="722" type="line"/>
      <point x="101" y="0" type="line"/>
    </contour>
  </outline>
</glyph>
<glyph name="m" format="2">
  <advance width="870"/>
  <unicode hex="006D"/>
  <outline>
    <contour>
      <point x="465" y="314" type="line"/>
      <point x="484" y="409" type="line"/>
      <point x="527" y="460"/>
      <point x="621" y="512"/>
      <point x="675" y="512" type="qcurve" smooth="yes"/>
      <point x="752" y="512"/>
      <point x="829" y="446"/>
      <point x="829" y="381" type="qcurve" smooth="yes"/>
      <point x="829" y="355"/>
      <point x="823" y="325" type="qcurve" smooth="yes"/>
      <point x="760" y="0" type="line"/>
      <point x="670" y="0" type="line"/>
      <point x="733" y="322" type="line" smooth="yes"/>
      <point x="737" y="343"/>
      <point x="737" y="361" type="qcurve" smooth="yes"/>
      <point x="737" y="402"/>
      <point x="692" y="448"/>
      <point x="644" y="448" type="qcurve" smooth="yes"/>
      <point x="610" y="448"/>
      <point x="544" y="409"/>
      <point x="498" y="351"/>
      <point x="493" y="323" type="qcurve" smooth="yes"/>
      <point x="491" y="314" type="line"/>
    </contour>
    <contour>
      <point x="143" y="323" type="line"/>
      <point x="159" y="404" type="line"/>
      <point x="184" y="431" type="line" smooth="yes"/>
      <point x="222" y="472"/>
      <point x="300" y="512"/>
      <point x="344" y="512" type="qcurve" smooth="yes"/>
      <point x="392" y="512"/>
      <point x="451" y="491"/>
      <point x="489" y="440"/>
      <point x="507" y="396" type="qcurve"/>
      <point x="430" y="0" type="line"/>
      <point x="340" y="0" type="line"/>
      <point x="403" y="323" type="line" smooth="yes"/>
      <point x="407" y="342"/>
      <point x="407" y="359" type="qcurve" smooth="yes"/>
      <point x="407" y="402"/>
      <point x="360" y="448"/>
      <point x="320" y="448" type="qcurve" smooth="yes"/>
      <point x="291" y="448"/>
      <point x="237" y="425"/>
      <point x="195" y="388"/>
      <point x="167" y="344"/>
      <point x="163" y="323" type="qcurve"/>
    </contour>
    <contour>
      <point x="10" y="0" type="line"/>
      <point x="107" y="500" type="line"/>
      <point x="197" y="500" type="line"/>
      <point x="100" y="0" type="line"/>
    </contour>
  </outline>
</glyph>
<glyph name="n" format="2">
  <advance width="555"/>
  <unicode hex="006E"/>
  <outline>
    <contour>
      <point x="10" y="0" type="line"/>
      <point x="108" y="500" type="line"/>
      <point x="198" y="500" type="line"/>
      <point x="100" y="0" type="line"/>
    </contour>
    <contour>
      <point x="143" y="323" type="line"/>
      <point x="159" y="408" type="line"/>
      <point x="185" y="436" type="line" smooth="yes"/>
      <point x="207" y="460"/>
      <point x="262" y="494"/>
      <point x="325" y="513"/>
      <point x="357" y="513" type="qcurve" smooth="yes"/>
      <point x="436" y="513"/>
      <point x="515" y="448"/>
      <point x="515" y="383" type="qcurve" smooth="yes"/>
      <point x="515" y="358"/>
      <point x="509" y="329" type="qcurve" smooth="yes"/>
      <point x="445" y="0" type="line"/>
      <point x="355" y="0" type="line"/>
      <point x="416" y="311" type="line" smooth="yes"/>
      <point x="421" y="340"/>
      <point x="421" y="362" type="qcurve" smooth="yes"/>
      <point x="421" y="409"/>
      <point x="372" y="453"/>
      <point x="320" y="453" type="qcurve" smooth="yes"/>
      <point x="283" y="453"/>
      <point x="216" y="418"/>
      <point x="170" y="360"/>
      <point x="163" y="323" type="qcurve"/>
    </contour>
  </outline>
</glyph>
<glyph name="o" format="2">
  <advance width="575"/>
  <unicode hex="006F"/>
  <outline>
    <contour>
      <point x="31" y="193" type="qcurve" smooth="yes"/>
      <point x="31" y="256"/>
      <point x="75" y="371"/>
      <point x="157" y="460"/>
      <point x="271" y="512"/>
      <point x="341" y="512" type="qcurve" smooth="yes"/>
      <point x="438" y="512"/>
      <point x="545" y="407"/>
      <point x="545" y="309" type="qcurve" smooth="yes"/>
      <point x="545" y="246"/>
      <point x="502" y="131"/>
      <point x="421" y="40"/>
      <point x="307" y="-12"/>
      <point x="237" y="-12" type="qcurve" smooth="yes"/>
      <point x="139" y="-12"/>
      <point x="31" y="94"/>
    </contour>
    <contour>
      <point x="125" y="182" type="qcurve" smooth="yes"/>
      <point x="125" y="117"/>
      <point x="188" y="53"/>
      <point x="247" y="53" type="qcurve" smooth="yes"/>
      <point x="302" y="53"/>
      <point x="379" y="100"/>
      <point x="428" y="179"/>
      <point x="451" y="273"/>
      <point x="451" y="319" type="qcurve" smooth="yes"/>
      <point x="451" y="384"/>
      <point x="387" y="447"/>
      <point x="328" y="447" type="qcurve" smooth="yes"/>
      <point x="274" y="447"/>
      <point x="197" y="400"/>
      <point x="148" y="322"/>
      <point x="125" y="228"/>
    </contour>
  </outline>
</glyph>
<glyph name="p" format="2">
  <advance width="586"/>
  <unicode hex="0070"/>
  <outline>
    <contour>
      <point x="-30" y="-200" type="line"/>
      <point x="91" y="421" type="line" smooth="yes"/>
      <point x="95" y="440"/>
      <point x="102" y="480"/>
      <point x="103" y="500" type="qcurve"/>
      <point x="193" y="500" type="line"/>
      <point x="192" y="480"/>
      <point x="185" y="440"/>
      <point x="181" y="421" type="qcurve" smooth="yes"/>
      <point x="60" y="-200" type="line"/>
    </contour>
    <contour>
      <point x="101" y="111" type="qcurve"/>
      <point x="159" y="407" type="line"/>
      <point x="182" y="442"/>
      <point x="245" y="489"/>
      <point x="321" y="513"/>
      <point x="363" y="513" type="qcurve" smooth="yes"/>
      <point x="450" y="513"/>
      <point x="556" y="414"/>
      <point x="556" y="328" type="qcurve" smooth="yes"/>
      <point x="556" y="266"/>
      <point x="514" y="145"/>
      <point x="436" y="46"/>
      <point x="330" y="-13"/>
      <point x="265" y="-13" type="qcurve" smooth="yes"/>
      <point x="202" y="-13"/>
      <point x="121" y="49"/>
    </contour>
    <contour>
      <point x="144" y="204" type="qcurve" smooth="yes"/>
      <point x="144" y="138"/>
      <point x="206" y="54"/>
      <point x="258" y="54" type="qcurve" smooth="yes"/>
      <point x="308" y="54"/>
      <point x="383" y="102"/>
      <point x="433" y="180"/>
      <point x="458" y="270"/>
      <point x="458" y="311" type="qcurve" smooth="yes"/>
      <point x="458" y="381"/>
      <point x="392" y="455"/>
      <point x="336" y="455" type="qcurve" smooth="yes"/>
      <point x="291" y="455"/>
      <point x="219" y="409"/>
      <point x="170" y="333"/>
      <point x="144" y="246"/>
    </contour>
  </outline>
</glyph>
<glyph name="q" format="2">
  <advance width="577"/>
  <unicode hex="0071"/>
  <outline>
    <contour>
      <point x="30" y="188" type="qcurve" smooth="yes"/>
      <point x="30" y="246"/>
      <point x="69" y="362"/>
      <point x="143" y="456"/>
      <point x="246" y="513"/>
      <point x="311" y="513" type="qcurve" smooth="yes"/>
      <point x="355" y="513"/>
      <point x="411" y="486"/>
      <point x="446" y="441"/>
      <point x="458" y="415" type="qcurve"/>
      <point x="391" y="72" type="line"/>
      <point x="381" y="58"/>
      <point x="324" y="18"/>
      <point x="250" y="-13"/>
      <point x="215" y="-13" type="qcurve" smooth="yes"/>
      <point x="123" y="-13"/>
      <point x="30" y="100"/>
    </contour>
    <contour>
      <point x="120" y="202" type="qcurve" smooth="yes"/>
      <point x="120" y="143"/>
      <point x="179" y="57"/>
      <point x="242" y="57" type="qcurve" smooth="yes"/>
      <point x="289" y="57"/>
      <point x="358" y="106"/>
      <point x="402" y="183"/>
      <point x="422" y="271"/>
      <point x="422" y="310" type="qcurve" smooth="yes"/>
      <point x="422" y="349"/>
      <point x="401" y="412"/>
      <point x="352" y="449"/>
      <point x="311" y="449" type="qcurve" smooth="yes"/>
      <point x="264" y="449"/>
      <point x="192" y="402"/>
      <point x="144" y="327"/>
      <point x="120" y="241"/>
    </contour>
    <contour>
      <point x="330" y="-200" type="line"/>
      <point x="466" y="500" type="line"/>
      <point x="556" y="500" type="line"/>
      <point x="420" y="-200" type="line"/>
    </contour>
  </outline>
</glyph>
<glyph name="r" format="2">
  <advance width="352"/>
  <unicode hex="0072"/>
  <outline>
    <contour>
      <point x="10" y="0" type="line"/>
      <point x="108" y="500" type="line"/>
      <point x="198" y="500" type="line"/>
      <point x="100" y="0" type="line"/>
    </contour>
    <contour>
      <point x="137" y="290" type="line"/>
      <point x="161" y="416" type="line"/>
      <point x="186" y="442" type="line" smooth="yes"/>
      <point x="222" y="478"/>
      <point x="313" y="510"/>
      <point x="382" y="510" type="qcurve"/>
      <point x="366" y="430" type="line"/>
      <point x="275" y="430"/>
      <point x="170" y="360"/>
      <point x="157" y="290" type="qcurve"/>
    </contour>
  </outline>
</glyph>
<glyph name="s" format="2">
  <advance width="485"/>
  <unicode hex="0073"/>
  <outline>
    <contour>
      <point x="10" y="111" type="qcurve" smooth="yes"/>
      <point x="10" y="116"/>
      <point x="11" y="134"/>
      <point x="14" y="144" type="qcurve"/>
      <point x="108" y="144" type="line"/>
      <point x="105" y="131"/>
      <point x="105" y="120" type="qcurve" smooth="yes"/>
      <point x="105" y="86"/>
      <point x="150" y="51"/>
      <point x="189" y="51" type="qcurve" smooth="yes"/>
      <point x="212" y="51"/>
      <point x="260" y="63"/>
      <point x="301" y="87"/>
      <point x="326" y="123"/>
      <point x="326" y="146" type="qcurve" smooth="yes"/>
      <point x="326" y="171"/>
      <point x="298" y="198"/>
      <point x="255" y="212"/>
      <point x="232" y="217" type="qcurve" smooth="yes"/>
      <point x="204" y="224" type="line" smooth="yes"/>
      <point x="155" y="236"/>
      <point x="95" y="265"/>
      <point x="67" y="305"/>
      <point x="67" y="332" type="qcurve" smooth="yes"/>
      <point x="67" y="381"/>
      <point x="108" y="450"/>
      <point x="176" y="492"/>
      <point x="261" y="512"/>
      <point x="306" y="512" type="qcurve" smooth="yes"/>
      <point x="349" y="512"/>
      <point x="416" y="493"/>
      <point x="455" y="446"/>
      <point x="455" y="406" type="qcurve" smooth="yes"/>
      <point x="455" y="388"/>
      <point x="450" y="366" type="qcurve"/>
      <point x="359" y="366" type="line"/>
      <point x="361" y="377"/>
      <point x="361" y="387" type="qcurve" smooth="yes"/>
      <point x="361" y="417"/>
      <point x="321" y="447"/>
      <point x="287" y="447" type="qcurve" smooth="yes"/>
      <point x="259" y="447"/>
      <point x="203" y="428"/>
      <point x="164" y="390"/>
      <point x="164" y="362" type="qcurve" smooth="yes"/>
      <point x="164" y="336"/>
      <point x="206" y="306"/>
      <point x="254" y="295" type="qcurve" smooth="yes"/>
      <point x="276" y="290" type="line" smooth="yes"/>
      <point x="309" y="283"/>
      <point x="376" y="262"/>
      <point x="421" y="219"/>
      <point x="421" y="177" type="qcurve" smooth="yes"/>
      <point x="421" y="127"/>
      <point x="378" y="54"/>
      <point x="305" y="8"/>
      <point x="217" y="-14"/>
      <point x="171" y="-14" type="qcurve" smooth="yes"/>
      <point x="123" y="-14"/>
      <point x="50" y="12"/>
      <point x="10" y="67"/>
    </contour>
  </outline>
</glyph>
<glyph name="t" format="2">
  <advance width="294"/>
  <unicode hex="0074"/>
  <outline>
    <contour>
      <point x="45" y="72" type="qcurve" smooth="yes"/>
      <point x="45" y="97"/>
      <point x="52" y="131" type="qcurve" smooth="yes"/>
      <point x="143" y="599" type="line"/>
      <point x="240" y="636" type="line"/>
      <point x="141" y="128" type="line" smooth="yes"/>
      <point x="138" y="109"/>
      <point x="138" y="96" type="qcurve" smooth="yes"/>
      <point x="138" y="76"/>
      <point x="155" y="53"/>
      <point x="176" y="53" type="qcurve" smooth="yes"/>
      <point x="191" y="53"/>
      <point x="223" y="58"/>
      <point x="239" y="62" type="qcurve"/>
      <point x="226" y="0" type="line"/>
      <point x="204" y="-7"/>
      <point x="159" y="-12"/>
      <point x="137" y="-12" type="qcurve" smooth="yes"/>
      <point x="87" y="-12"/>
      <point x="45" y="30"/>
    </contour>
    <contour>
      <point x="186" y="435" type="line"/>
      <point x="198" y="500" type="line"/>
      <point x="323" y="500" type="line"/>
      <point x="311" y="435" type="line"/>
    </contour>
    <contour>
      <point x="21" y="435" type="line"/>
      <point x="33" y="500" type="line"/>
      <point x="138" y="500" type="line"/>
      <point x="126" y="435" type="line"/>
    </contour>
  </outline>
</glyph>
<glyph name="u" format="2">
  <advance width="574"/>
  <unicode hex="0075"/>
  <outline>
    <contour>
      <point x="41" y="120" type="qcurve" smooth="yes"/>
      <point x="41" y="145"/>
      <point x="46" y="174" type="qcurve" smooth="yes"/>
      <point x="110" y="500" type="line"/>
      <point x="200" y="500" type="line"/>
      <point x="136" y="172" type="line" smooth="yes"/>
      <point x="133" y="156"/>
      <point x="133" y="142" type="qcurve" smooth="yes"/>
      <point x="133" y="100"/>
      <point x="185" y="53"/>
      <point x="230" y="53" type="qcurve" smooth="yes"/>
      <point x="260" y="53"/>
      <point x="314" y="73"/>
      <point x="357" y="107"/>
      <point x="386" y="154"/>
      <point x="392" y="181" type="qcurve"/>
      <point x="412" y="181" type="line"/>
      <point x="396" y="100" type="line"/>
      <point x="370" y="69" type="line" smooth="yes"/>
      <point x="347" y="42"/>
      <point x="292" y="6"/>
      <point x="229" y="-12"/>
      <point x="191" y="-12" type="qcurve" smooth="yes"/>
      <point x="116" y="-12"/>
      <point x="41" y="56"/>
    </contour>
    <contour>
      <point x="356" y="0" type="line"/>
      <point x="454" y="500" type="line"/>
      <point x="544" y="500" type="line"/>
      <point x="446" y="0" type="line"/>
    </contour>
  </outline>
</glyph>
<glyph name="v" format="2">
  <advance width="517"/>
  <unicode hex="0076"/>
  <outline>
    <contour>
      <point x="155" y="0" type="line"/>
      <point x="41" y="500" type="line"/>
      <point x="146" y="500" type="line"/>
      <point x="225" y="99" type="line"/>
      <point x="216" y="99" type="line"/>
      <point x="462" y="500" type="line"/>
      <point x="557" y="500" type="line"/>
      <point x="247" y="0" type="line"/>
    </contour>
  </outline>
</glyph>
<glyph name="w" format="2">
  <advance width="785"/>
  <unicode hex="0077"/>
  <outline>
    <contour>
      <point x="112" y="0" type="line"/>
      <point x="41" y="500" type="line"/>
      <point x="137" y="500" type="line"/>
      <point x="180" y="99" type="line"/>
      <point x="173" y="99" type="line"/>
      <point x="373" y="500" type="line"/>
      <point x="493" y="500" type="line"/>
      <point x="536" y="99" type="line"/>
      <point x="529" y="99" type="line"/>
      <point x="729" y="500" type="line"/>
      <point x="825" y="500" type="line"/>
      <point x="558" y="0" type="line"/>
      <point x="468" y="0" type="line"/>
      <point x="415" y="426" type="line"/>
      <point x="422" y="426" type="line"/>
      <point x="202" y="0" type="line"/>
    </contour>
  </outline>
</glyph>
<glyph name="x" format="2">
  <advance width="502"/>
  <unicode hex="0078"/>
  <outline>
    <contour>
      <point x="36" y="500" type="line"/>
      <point x="150" y="500" type="line"/>
      <point x="437" y="0" type="line"/>
      <point x="323" y="0" type="line"/>
    </contour>
    <contour>
      <point x="-70" y="0" type="line"/>
      <point x="191" y="271" type="line"/>
      <point x="227" y="209" type="line"/>
      <point x="35" y="0" type="line"/>
    </contour>
    <contour>
      <point x="243" y="309" type="line"/>
      <point x="417" y="500" type="line"/>
      <point x="522" y="500" type="line"/>
      <point x="277" y="247" type="line"/>
    </contour>
  </outline>
</glyph>
<glyph name="y" format="2">
  <advance width="476"/>
  <unicode hex="0079"/>
  <outline>
    <contour>
      <point x="46" y="-200" type="line"/>
      <point x="449" y="500" type="line"/>
      <point x="546" y="500" type="line"/>
      <point x="138" y="-200" type="line"/>
    </contour>
    <contour>
      <point x="41" y="500" type="line"/>
      <point x="146" y="500" type="line"/>
      <point x="233" y="110" type="line"/>
      <point x="161" y="-13" type="line"/>
    </contour>
  </outline>
</glyph>
<glyph name="z" format="2">
  <advance width="436"/>
  <unicode hex="007A"/>
  <outline>
    <contour>
      <point x="-40" y="0" type="line"/>
      <point x="-24" y="82" type="line"/>
      <point x="319" y="441" type="line"/>
      <point x="322" y="431" type="line"/>
      <point x="64" y="431" type="line"/>
      <point x="78" y="500" type="line"/>
      <point x="426" y="500" type="line"/>
      <point x="410" y="418" type="line"/>
      <point x="65" y="59" type="line"/>
      <point x="62" y="69" type="line"/>
      <point x="342" y="69" type="line"/>
      <point x="328" y="0" type="line"/>
    </contour>
  </outline>
</glyph>
<glyph name="braceleft" format="2">
  <advance width="487"/>
  <unicode hex="007B"/>
  <outline>
    <contour>
      <point x="104" y="-110" type="qcurve" smooth="yes"/>
      <point x="104" y="-154"/>
      <point x="138" y="-211"/>
      <point x="218" y="-240"/>
      <point x="287" y="-240" type="qcurve"/>
      <point x="302" y="-166" type="line"/>
      <point x="265" y="-166"/>
      <point x="220" y="-147"/>
      <point x="199" y="-109"/>
      <point x="199" y="-80" type="qcurve" smooth="yes"/>
      <point x="199" y="-74"/>
      <point x="201" y="-56"/>
      <point x="203" y="-46" type="qcurve"/>
      <point x="227" y="47" type="line" smooth="yes"/>
      <point x="233" y="68"/>
      <point x="236" y="106"/>
      <point x="236" y="119" type="qcurve" smooth="yes"/>
      <point x="236" y="172"/>
      <point x="208" y="243"/>
      <point x="181" y="260" type="qcurve"/>
      <point x="214" y="288"/>
      <point x="266" y="340"/>
      <point x="299" y="404"/>
      <point x="306" y="450" type="qcurve" smooth="yes"/>
      <point x="321" y="559" type="line" smooth="yes"/>
      <point x="327" y="600"/>
      <point x="361" y="657"/>
      <point x="422" y="686"/>
      <point x="467" y="686" type="qcurve"/>
      <point x="482" y="760" type="line"/>
      <point x="418" y="760"/>
      <point x="328" y="735"/>
      <point x="269" y="685"/>
      <point x="236" y="610"/>
      <point x="229" y="559" type="qcurve" smooth="yes"/>
      <point x="214" y="450" type="line" smooth="yes"/>
      <point x="209" y="415"/>
      <point x="179" y="354"/>
      <point x="117" y="308"/>
      <point x="64" y="296" type="qcurve"/>
      <point x="50" y="224" type="line"/>
      <point x="103" y="213"/>
      <point x="145" y="156"/>
      <point x="145" y="115" type="qcurve" smooth="yes"/>
      <point x="145" y="106"/>
      <point x="143" y="83"/>
      <point x="140" y="70" type="qcurve" smooth="yes"/>
      <point x="112" y="-42" type="line" smooth="yes"/>
      <point x="107" y="-62"/>
      <point x="104" y="-97"/>
    </contour>
  </outline>
</glyph>
<glyph name="bar" format="2">
  <advance width="336"/>
  <unicode hex="007C"/>
  <outline>
    <contour>
      <point x="40" y="-258" type="line"/>
      <point x="245" y="796" type="line"/>
      <point x="335" y="796" type="line"/>
      <point x="130" y="-258" type="line"/>
    </contour>
  </outline>
</glyph>
<glyph name="asciitilde" format="2">
  <advance width="633"/>
  <unicode hex="007E"/>
  <outline>
    <contour>
      <point x="57" y="195" type="line"/>
      <point x="85" y="254"/>
      <point x="181" y="313"/>
      <point x="245" y="313" type="qcurve" smooth="yes"/>
      <point x="272" y="313"/>
      <point x="321" y="301"/>
      <point x="369" y="285"/>
      <point x="417" y="273"/>
      <point x="442" y="273" type="qcurve" smooth="yes"/>
      <point x="456" y="273"/>
      <point x="489" y="282"/>
      <point x="518" y="300"/>
      <point x="526" y="315" type="qcurve"/>
      <point x="614" y="315" type="line"/>
      <point x="600" y="281"/>
      <point x="549" y="228"/>
      <point x="481" y="198"/>
      <point x="442" y="198" type="qcurve" smooth="yes"/>
      <point x="414" y="198"/>
      <point x="362" y="210"/>
      <point x="311" y="226"/>
      <point x="260" y="238"/>
      <point x="233" y="238" type="qcurve" smooth="yes"/>
      <point x="213" y="238"/>
      <point x="178" y="227"/>
      <point x="153" y="207"/>
      <point x="148" y="195" type="qcurve"/>
    </contour>
  </outline>
</glyph>
<glyph name="cent" format="2">
  <advance width="558"/>
  <unicode hex="00A2"/>
  <outline>
    <contour>
      <point x="123" y="-80" type="line"/>
      <point x="71" y="-80" type="line"/>
      <point x="413" y="580" type="line"/>
      <point x="467" y="580" type="line"/>
    </contour>
    <contour>
      <point x="35" y="174" type="qcurve" smooth="yes"/>
      <point x="35" y="82"/>
      <point x="127" y="-12"/>
      <point x="213" y="-12" type="qcurve" smooth="yes"/>
      <point x="273" y="-12"/>
      <point x="374" y="33"/>
      <point x="443" y="114"/>
      <point x="457" y="169" type="qcurve"/>
      <point x="362" y="169" type="line"/>
      <point x="355" y="133"/>
      <point x="317" y="80"/>
      <point x="261" y="52"/>
      <point x="227" y="52" type="qcurve" smooth="yes"/>
      <point x="179" y="52"/>
      <point x="131" y="112"/>
      <point x="131" y="174" type="qcurve" smooth="yes"/>
      <point x="131" y="204"/>
      <point x="143" y="277"/>
      <point x="169" y="350"/>
      <point x="210" y="410"/>
      <point x="268" y="447"/>
      <point x="307" y="447" type="qcurve" smooth="yes"/>
      <point x="351" y="447"/>
      <point x="393" y="398"/>
      <point x="393" y="359" type="qcurve" smooth="yes"/>
      <point x="393" y="356"/>
      <point x="392" y="347"/>
      <point x="392" y="341" type="qcurve"/>
      <point x="487" y="341" type="line"/>
      <point x="488" y="353"/>
      <point x="489" y="362"/>
      <point x="489" y="370" type="qcurve" smooth="yes"/>
      <point x="489" y="439"/>
      <point x="401" y="512"/>
      <point x="327" y="512" type="qcurve" smooth="yes"/>
      <point x="257" y="512"/>
      <point x="148" y="452"/>
      <point x="73" y="353"/>
      <point x="35" y="234"/>
    </contour>
  </outline>
</glyph>
<glyph name="sterling" format="2">
  <advance width="558"/>
  <unicode hex="00A3"/>
  <outline>
    <contour>
      <point x="51" y="49" type="line"/>
      <point x="146" y="539" type="line" smooth="yes"/>
      <point x="159" y="606"/>
      <point x="241" y="693"/>
      <point x="348" y="736"/>
      <point x="401" y="736" type="qcurve" smooth="yes"/>
      <point x="448" y="736"/>
      <point x="533" y="704"/>
      <point x="586" y="645"/>
      <point x="586" y="603" type="qcurve" smooth="yes"/>
      <point x="586" y="591"/>
      <point x="584" y="579" type="qcurve"/>
      <point x="495" y="579" type="line"/>
      <point x="496" y="586"/>
      <point x="496" y="593" type="qcurve" smooth="yes"/>
      <point x="496" y="618"/>
      <point x="464" y="653"/>
      <point x="414" y="672"/>
      <point x="387" y="672" type="qcurve" smooth="yes"/>
      <point x="357" y="672"/>
      <point x="294" y="645"/>
      <point x="244" y="587"/>
      <point x="235" y="539" type="qcurve" smooth="yes"/>
      <point x="140" y="49" type="line"/>
    </contour>
    <contour>
      <point x="-28" y="0" type="line"/>
      <point x="-15" y="64" type="line"/>
      <point x="464" y="64" type="line"/>
      <point x="451" y="0" type="line"/>
    </contour>
    <contour>
      <point x="49" y="392" type="line"/>
      <point x="61" y="456" type="line"/>
      <point x="384" y="456" type="line"/>
      <point x="372" y="392" type="line"/>
    </contour>
  </outline>
</glyph>
<glyph name="currency" format="2">
  <advance width="619"/>
  <unicode hex="00A4"/>
  <outline>
    <contour>
      <point x="110" y="386" type="qcurve" smooth="yes"/>
      <point x="110" y="437"/>
      <point x="152" y="529"/>
      <point x="225" y="599"/>
      <point x="318" y="639"/>
      <point x="369" y="639" type="qcurve" smooth="yes"/>
      <point x="420" y="639"/>
      <point x="497" y="595"/>
      <point x="541" y="519"/>
      <point x="541" y="471" type="qcurve" smooth="yes"/>
      <point x="541" y="421"/>
      <point x="499" y="329"/>
      <point x="428" y="257"/>
      <point x="336" y="216"/>
      <point x="286" y="216" type="qcurve" smooth="yes"/>
      <point x="234" y="216"/>
      <point x="154" y="260"/>
      <point x="110" y="337"/>
    </contour>
    <contour>
      <point x="199" y="401" type="qcurve" smooth="yes"/>
      <point x="199" y="357"/>
      <point x="255" y="303"/>
      <point x="302" y="303" type="qcurve" smooth="yes"/>
      <point x="343" y="303"/>
      <point x="410" y="345"/>
      <point x="451" y="414"/>
      <point x="451" y="454" type="qcurve" smooth="yes"/>
      <point x="451" y="497"/>
      <point x="396" y="552"/>
      <point x="351" y="552" type="qcurve" smooth="yes"/>
      <point x="310" y="552"/>
      <point x="241" y="511"/>
      <point x="199" y="442"/>
    </contour>
    <contour>
      <point x="101" y="664" type="line"/>
      <point x="144" y="700" type="line"/>
      <point x="239" y="584" type="line"/>
      <point x="196" y="548" type="line"/>
    </contour>
    <contour>
      <point x="473" y="583" type="line"/>
      <point x="612" y="700" type="line"/>
      <point x="641" y="664" type="line"/>
      <point x="504" y="549" type="line"/>
    </contour>
    <contour>
      <point x="415" y="274" type="line"/>
      <point x="459" y="310" type="line"/>
      <point x="550" y="196" type="line"/>
      <point x="506" y="160" type="line"/>
    </contour>
    <contour>
      <point x="10" y="196" type="line"/>
      <point x="148" y="310" type="line"/>
      <point x="177" y="274" type="line"/>
      <point x="39" y="160" type="line"/>
    </contour>
  </outline>
</glyph>
<glyph name="yen" format="2">
  <advance width="558"/>
  <unicode hex="00A5"/>
  <outline>
    <contour>
      <point x="159" y="0" type="line"/>
      <point x="215" y="287" type="line"/>
      <point x="209" y="287" type="line"/>
      <point x="74" y="722" type="line"/>
      <point x="179" y="722" type="line"/>
      <point x="285" y="354" type="line"/>
      <point x="275" y="354" type="line"/>
      <point x="521" y="722" type="line"/>
      <point x="626" y="722" type="line"/>
      <point x="324" y="287" type="line"/>
      <point x="317" y="287" type="line"/>
      <point x="261" y="0" type="line"/>
    </contour>
    <contour>
      <point x="0" y="287" type="line"/>
      <point x="10" y="338" type="line"/>
      <point x="209" y="338" type="line"/>
      <point x="230" y="287" type="line"/>
    </contour>
    <contour>
      <point x="302" y="287" type="line"/>
      <point x="345" y="338" type="line"/>
      <point x="542" y="338" type="line"/>
      <point x="532" y="287" type="line"/>
    </contour>
    <contour>
      <point x="33" y="457" type="line"/>
      <point x="43" y="508" type="line"/>
      <point x="159" y="508" type="line"/>
      <point x="174" y="457" type="line"/>
    </contour>
    <contour>
      <point x="426" y="457" type="line"/>
      <point x="461" y="508" type="line"/>
      <point x="575" y="508" type="line"/>
      <point x="565" y="457" type="line"/>
    </contour>
  </outline>
</glyph>
<glyph name="brokenbar" format="2">
  <advance width="313"/>
  <unicode hex="00A6"/>
  <outline>
    <contour>
      <point x="145" y="336" type="line"/>
      <point x="223" y="736" type="line"/>
      <point x="313" y="736" type="line"/>
      <point x="235" y="336" type="line"/>
    </contour>
    <contour>
      <point x="41" y="-198" type="line"/>
      <point x="119" y="202" type="line"/>
      <point x="209" y="202" type="line"/>
      <point x="131" y="-198" type="line"/>
    </contour>
  </outline>
</glyph>
<glyph name="section" format="2">
  <advance width="467"/>
  <unicode hex="00A7"/>
  <outline>
    <contour>
      <point x="-36" y="-139" type="qcurve"/>
      <point x="-21" y="-62" type="line"/>
      <point x="6" y="-81"/>
      <point x="65" y="-103"/>
      <point x="98" y="-103" type="qcurve" smooth="yes"/>
      <point x="130" y="-103"/>
      <point x="200" y="-79"/>
      <point x="249" y="-32"/>
      <point x="249" y="3" type="qcurve" smooth="yes"/>
      <point x="249" y="27"/>
      <point x="222" y="59"/>
      <point x="191" y="88" type="qcurve" smooth="yes"/>
      <point x="40" y="227" type="line" smooth="yes"/>
      <point x="28" y="238"/>
      <point x="-6" y="282"/>
      <point x="-6" y="313" type="qcurve" smooth="yes"/>
      <point x="-6" y="356"/>
      <point x="32" y="415"/>
      <point x="94" y="454"/>
      <point x="167" y="475"/>
      <point x="202" y="480" type="qcurve"/>
      <point x="267" y="425" type="line"/>
      <point x="241" y="425"/>
      <point x="182" y="420"/>
      <point x="129" y="402"/>
      <point x="95" y="366"/>
      <point x="95" y="334" type="qcurve" smooth="yes"/>
      <point x="95" y="318"/>
      <point x="105" y="300"/>
      <point x="116" y="291" type="qcurve"/>
      <point x="284" y="136" type="line" smooth="yes"/>
      <point x="311" y="111"/>
      <point x="349" y="55"/>
      <point x="349" y="25" type="qcurve" smooth="yes"/>
      <point x="349" y="-22"/>
      <point x="305" y="-96"/>
      <point x="233" y="-147"/>
      <point x="149" y="-173"/>
      <point x="108" y="-173" type="qcurve" smooth="yes"/>
      <point x="83" y="-173"/>
      <point x="29" y="-164"/>
      <point x="-20" y="-148"/>
    </contour>
    <contour>
      <point x="180" y="170" type="line"/>
      <point x="203" y="170"/>
      <point x="263" y="177"/>
      <point x="319" y="196"/>
      <point x="356" y="233"/>
      <point x="356" y="263" type="qcurve" smooth="yes"/>
      <point x="356" y="275"/>
      <point x="347" y="293"/>
      <point x="335" y="303" type="qcurve" smooth="yes"/>
      <point x="186" y="429" type="line" smooth="yes"/>
      <point x="168" y="444"/>
      <point x="129" y="482"/>
      <point x="103" y="532"/>
      <point x="103" y="565" type="qcurve" smooth="yes"/>
      <point x="103" y="603"/>
      <point x="141" y="666"/>
      <point x="205" y="711"/>
      <point x="282" y="735"/>
      <point x="321" y="735" type="qcurve" smooth="yes"/>
      <point x="355" y="735"/>
      <point x="419" y="716"/>
      <point x="449" y="699" type="qcurve"/>
      <point x="436" y="631" type="line"/>
      <point x="409" y="651"/>
      <point x="346" y="671"/>
      <point x="312" y="671" type="qcurve" smooth="yes"/>
      <point x="289" y="671"/>
      <point x="237" y="644"/>
      <point x="201" y="601"/>
      <point x="201" y="575" type="qcurve" smooth="yes"/>
      <point x="201" y="548"/>
      <point x="241" y="510"/>
      <point x="265" y="488" type="qcurve" smooth="yes"/>
      <point x="369" y="394" type="line" smooth="yes"/>
      <point x="391" y="374"/>
      <point x="425" y="343"/>
      <point x="444" y="308"/>
      <point x="444" y="282" type="qcurve" smooth="yes"/>
      <point x="444" y="246"/>
      <point x="409" y="190"/>
      <point x="352" y="149"/>
      <point x="285" y="122"/>
      <point x="252" y="114" type="qcurve"/>
    </contour>
  </outline>
</glyph>
<glyph name="dieresis" format="2">
  <advance width="359"/>
  <unicode hex="00A8"/>
  <outline>
    <contour>
      <point x="10" y="620" type="line"/>
      <point x="28" y="712" type="line"/>
      <point x="118" y="712" type="line"/>
      <point x="100" y="620" type="line"/>
    </contour>
    <contour>
      <point x="210" y="620" type="line"/>
      <point x="228" y="712" type="line"/>
      <point x="318" y="712" type="line"/>
      <point x="300" y="620" type="line"/>
    </contour>
  </outline>
</glyph>
<glyph name="copyright" format="2">
  <advance width="867"/>
  <unicode hex="00A9"/>
  <outline>
    <contour>
      <point x="211" y="283" type="qcurve" smooth="yes"/>
      <point x="211" y="342"/>
      <point x="242" y="453"/>
      <point x="306" y="542"/>
      <point x="403" y="594"/>
      <point x="469" y="594" type="qcurve" smooth="yes"/>
      <point x="532" y="594"/>
      <point x="606" y="562"/>
      <point x="639" y="508"/>
      <point x="639" y="475" type="qcurve" smooth="yes"/>
      <point x="639" y="459"/>
      <point x="635" y="441" type="qcurve"/>
      <point x="555" y="441" type="line"/>
      <point x="558" y="454"/>
      <point x="558" y="465" type="qcurve" smooth="yes"/>
      <point x="558" y="502"/>
      <point x="505" y="539"/>
      <point x="452" y="539" type="qcurve" smooth="yes"/>
      <point x="422" y="539"/>
      <point x="363" y="503"/>
      <point x="317" y="431"/>
      <point x="306" y="377" type="qcurve" smooth="yes"/>
      <point x="302" y="355" type="line"/>
      <point x="298" y="338"/>
      <point x="295" y="306"/>
      <point x="295" y="292" type="qcurve" smooth="yes"/>
      <point x="295" y="238"/>
      <point x="345" y="184"/>
      <point x="392" y="184" type="qcurve" smooth="yes"/>
      <point x="430" y="184"/>
      <point x="486" y="214"/>
      <point x="522" y="260"/>
      <point x="530" y="285" type="qcurve"/>
      <point x="610" y="285" type="line"/>
      <point x="595" y="233"/>
      <point x="534" y="160"/>
      <point x="443" y="120"/>
      <point x="384" y="120" type="qcurve" smooth="yes"/>
      <point x="296" y="120"/>
      <point x="211" y="206"/>
    </contour>
    <contour>
      <point x="50" y="290" type="qcurve" smooth="yes"/>
      <point x="50" y="360"/>
      <point x="100" y="490"/>
      <point x="187" y="603"/>
      <point x="302" y="687"/>
      <point x="435" y="735"/>
      <point x="504" y="735" type="qcurve" smooth="yes"/>
      <point x="595" y="735"/>
      <point x="735" y="655"/>
      <point x="814" y="517"/>
      <point x="814" y="430" type="qcurve" smooth="yes"/>
      <point x="814" y="361"/>
      <point x="764" y="230"/>
      <point x="676" y="117"/>
      <point x="560" y="32"/>
      <point x="427" y="-16"/>
      <point x="357" y="-16" type="qcurve" smooth="yes"/>
      <point x="267" y="-16"/>
      <point x="128" y="64"/>
      <point x="50" y="203"/>
    </contour>
    <contour>
      <point x="101" y="295" type="qcurve" smooth="yes"/>
      <point x="101" y="219"/>
      <point x="169" y="101"/>
      <point x="289" y="32"/>
      <point x="367" y="32" type="qcurve" smooth="yes"/>
      <point x="442" y="32"/>
      <point x="582" y="95"/>
      <point x="694" y="202"/>
      <point x="759" y="340"/>
      <point x="759" y="414" type="qcurve" smooth="yes"/>
      <point x="759" y="490"/>
      <point x="691" y="610"/>
      <point x="571" y="680"/>
      <point x="493" y="680" type="qcurve" smooth="yes"/>
      <point x="418" y="680"/>
      <point x="278" y="617"/>
      <point x="166" y="508"/>
      <point x="101" y="370"/>
    </contour>
  </outline>
</glyph>
<glyph name="ordfeminine" format="2">
  <advance width="388"/>
  <unicode hex="00AA"/>
  <outline>
    <contour>
      <point x="-3" y="243" type="line"/>
      <point x="4" y="280" type="line"/>
      <point x="353" y="280" type="line"/>
      <point x="346" y="243" type="line"/>
    </contour>
    <contour>
      <point x="449" y="428" type="qcurve" smooth="yes"/>
      <point x="449" y="471"/>
      <point x="491" y="526"/>
      <point x="558" y="557"/>
      <point x="635" y="569"/>
      <point x="669" y="569" type="qcurve" smooth="yes"/>
      <point x="684" y="569"/>
      <point x="721" y="565"/>
      <point x="727" y="564" type="qcurve"/>
      <point x="731" y="515" type="line"/>
      <point x="705" y="517"/>
      <point x="685" y="520"/>
      <point x="669" y="520" type="qcurve" smooth="yes"/>
      <point x="650" y="520"/>
      <point x="598" y="514"/>
      <point x="549" y="499"/>
      <point x="517" y="469"/>
      <point x="517" y="444" type="qcurve" smooth="yes"/>
      <point x="517" y="420"/>
      <point x="550" y="391"/>
      <point x="577" y="391" type="qcurve" smooth="yes"/>
      <point x="611" y="391"/>
      <point x="661" y="414"/>
      <point x="693" y="460"/>
      <point x="700" y="495" type="qcurve" smooth="yes"/>
      <point x="720" y="597" type="line" smooth="yes"/>
      <point x="722" y="606"/>
      <point x="722" y="614" type="qcurve" smooth="yes"/>
      <point x="722" y="638"/>
      <point x="688" y="663"/>
      <point x="656" y="663" type="qcurve" smooth="yes"/>
      <point x="621" y="663"/>
      <point x="573" y="634"/>
      <point x="568" y="609" type="qcurve"/>
      <point x="502" y="609" type="line"/>
      <point x="512" y="659"/>
      <point x="595" y="713"/>
      <point x="666" y="713" type="qcurve" smooth="yes"/>
      <point x="727" y="713"/>
      <point x="789" y="671"/>
      <point x="789" y="626" type="qcurve" smooth="yes"/>
      <point x="789" y="608"/>
      <point x="784" y="587" type="qcurve" smooth="yes"/>
      <point x="761" y="480" type="line" smooth="yes"/>
      <point x="752" y="441"/>
      <point x="745" y="387"/>
      <point x="745" y="371" type="qcurve" smooth="yes"/>
      <point x="745" y="364"/>
      <point x="746" y="355"/>
      <point x="747" y="351" type="qcurve"/>
      <point x="684" y="351" type="line"/>
      <point x="684" y="362"/>
      <point x="684" y="372" type="qcurve" smooth="yes"/>
      <point x="684" y="386"/>
      <point x="686" y="411"/>
      <point x="688" y="424" type="qcurve"/>
      <point x="695" y="412" type="line"/>
      <point x="655" y="371"/>
      <point x="599" y="341"/>
      <point x="562" y="341" type="qcurve" smooth="yes"/>
      <point x="509" y="341"/>
      <point x="449" y="388"/>
    </contour>
  </outline>
</glyph>
<glyph name="guillemotleft" format="2">
  <advance width="569"/>
  <unicode hex="00AB"/>
  <outline>
    <contour>
      <point x="61" y="252" type="line"/>
      <point x="235" y="447" type="line"/>
      <point x="313" y="447" type="line"/>
      <point x="147" y="242" type="line"/>
      <point x="151" y="262" type="line"/>
      <point x="238" y="57" type="line"/>
      <point x="160" y="57" type="line"/>
    </contour>
    <contour>
      <point x="256" y="252" type="line"/>
      <point x="430" y="447" type="line"/>
      <point x="508" y="447" type="line"/>
      <point x="342" y="242" type="line"/>
      <point x="346" y="262" type="line"/>
      <point x="433" y="57" type="line"/>
      <point x="355" y="57" type="line"/>
    </contour>
  </outline>
</glyph>
<glyph name="logicalnot" format="2">
  <advance width="619"/>
  <unicode hex="00AC"/>
  <outline>
    <contour>
      <point x="69" y="360" type="line"/>
      <point x="81" y="420" type="line"/>
      <point x="621" y="420" type="line"/>
      <point x="576" y="189" type="line"/>
      <point x="516" y="189" type="line"/>
      <point x="549" y="360" type="line"/>
    </contour>
  </outline>
</glyph>
<glyph name="uni00AD" format="2">
  <advance width="310"/>
  <unicode hex="00AD"/>
  <outline>
    <contour>
      <point x="59" y="264" type="line"/>
      <point x="72" y="334" type="line"/>
      <point x="302" y="334" type="line"/>
      <point x="289" y="264" type="line"/>
    </contour>
  </outline>
</glyph>
<glyph name="registered" format="2">
  <advance width="867"/>
  <unicode hex="00AE"/>
  <outline>
    <contour>
      <point x="52" y="287" type="qcurve" smooth="yes"/>
      <point x="52" y="376"/>
      <point x="126" y="538"/>
      <point x="253" y="663"/>
      <point x="415" y="736"/>
      <point x="505" y="736" type="qcurve" smooth="yes"/>
      <point x="596" y="736"/>
      <point x="734" y="659"/>
      <point x="809" y="524"/>
      <point x="809" y="438" type="qcurve" smooth="yes"/>
      <point x="809" y="367"/>
      <point x="762" y="234"/>
      <point x="677" y="120"/>
      <point x="564" y="35"/>
      <point x="431" y="-12"/>
      <point x="359" y="-12" type="qcurve" smooth="yes"/>
      <point x="267" y="-12"/>
      <point x="129" y="65"/>
      <point x="52" y="200"/>
    </contour>
    <contour>
      <point x="102" y="299" type="qcurve" smooth="yes"/>
      <point x="102" y="224"/>
      <point x="169" y="105"/>
      <point x="289" y="36"/>
      <point x="368" y="36" type="qcurve" smooth="yes"/>
      <point x="445" y="36"/>
      <point x="585" y="100"/>
      <point x="696" y="209"/>
      <point x="760" y="349"/>
      <point x="760" y="426" type="qcurve" smooth="yes"/>
      <point x="760" y="500"/>
      <point x="694" y="619"/>
      <point x="574" y="688"/>
      <point x="495" y="688" type="qcurve" smooth="yes"/>
      <point x="419" y="688"/>
      <point x="278" y="624"/>
      <point x="167" y="515"/>
      <point x="102" y="375"/>
    </contour>
    <contour>
      <point x="325" y="342" type="line"/>
      <point x="336" y="401" type="line"/>
      <point x="452" y="401" type="line" smooth="yes"/>
      <point x="483" y="401"/>
      <point x="536" y="415"/>
      <point x="569" y="452"/>
      <point x="569" y="488" type="qcurve" smooth="yes"/>
      <point x="569" y="519"/>
      <point x="520" y="536"/>
      <point x="479" y="536" type="qcurve" smooth="yes"/>
      <point x="308" y="536" type="line"/>
      <point x="320" y="600" type="line"/>
      <point x="494" y="600" type="line" smooth="yes"/>
      <point x="570" y="600"/>
      <point x="641" y="555"/>
      <point x="641" y="506" type="qcurve" smooth="yes"/>
      <point x="641" y="471"/>
      <point x="615" y="417"/>
      <point x="567" y="379"/>
      <point x="533" y="369" type="qcurve"/>
      <point x="565" y="358"/>
      <point x="584" y="306"/>
      <point x="584" y="273" type="qcurve" smooth="yes"/>
      <point x="584" y="251"/>
      <point x="580" y="202"/>
      <point x="580" y="177" type="qcurve" smooth="yes"/>
      <point x="580" y="165"/>
      <point x="582" y="141"/>
      <point x="584" y="130" type="qcurve"/>
      <point x="512" y="130" type="line"/>
      <point x="510" y="141"/>
      <point x="509" y="163"/>
      <point x="509" y="174" type="qcurve" smooth="yes"/>
      <point x="509" y="198"/>
      <point x="512" y="241"/>
      <point x="512" y="260" type="qcurve" smooth="yes"/>
      <point x="512" y="285"/>
      <point x="500" y="322"/>
      <point x="462" y="342"/>
      <point x="425" y="342" type="qcurve" smooth="yes"/>
    </contour>
    <contour>
      <point x="229" y="131" type="line"/>
      <point x="320" y="600" type="line"/>
      <point x="390" y="600" type="line"/>
      <point x="299" y="131" type="line"/>
    </contour>
  </outline>
</glyph>
<glyph name="macron" format="2">
  <advance width="384"/>
  <unicode hex="00AF"/>
  <outline>
    <contour>
      <point x="40" y="620" type="line"/>
      <point x="54" y="690" type="line"/>
      <point x="343" y="690" type="line"/>
      <point x="329" y="620" type="line"/>
    </contour>
  </outline>
</glyph>
<glyph name="degree" format="2">
  <advance width="321"/>
  <unicode hex="00B0"/>
  <outline>
    <contour>
      <point x="97" y="589" type="qcurve" smooth="yes"/>
      <point x="97" y="623"/>
      <point x="135" y="683"/>
      <point x="196" y="720"/>
      <point x="230" y="720" type="qcurve" smooth="yes"/>
      <point x="271" y="720"/>
      <point x="321" y="669"/>
      <point x="321" y="631" type="qcurve" smooth="yes"/>
      <point x="321" y="597"/>
      <point x="283" y="537"/>
      <point x="222" y="500"/>
      <point x="188" y="500" type="qcurve" smooth="yes"/>
      <point x="147" y="500"/>
      <point x="97" y="551"/>
    </contour>
    <contour>
      <point x="137" y="597" type="qcurve" smooth="yes"/>
      <point x="137" y="572"/>
      <point x="170" y="540"/>
      <point x="195" y="540" type="qcurve" smooth="yes"/>
      <point x="217" y="540"/>
      <point x="256" y="563"/>
      <point x="280" y="602"/>
      <point x="280" y="624" type="qcurve" smooth="yes"/>
      <point x="280" y="648"/>
      <point x="248" y="680"/>
      <point x="223" y="680" type="qcurve" smooth="yes"/>
      <point x="201" y="680"/>
      <point x="162" y="657"/>
      <point x="137" y="619"/>
    </contour>
  </outline>
</glyph>
<glyph name="plusminus" format="2">
  <advance width="1000"/>
  <unicode hex="00B1"/>
  <outline>
    <contour>
      <point x="211" y="356" type="line"/>
      <point x="223" y="420" type="line"/>
      <point x="492" y="420" type="line"/>
      <point x="527" y="600" type="line"/>
      <point x="589" y="600" type="line"/>
      <point x="554" y="420" type="line"/>
      <point x="823" y="420" type="line"/>
      <point x="811" y="356" type="line"/>
      <point x="542" y="356" type="line"/>
      <point x="507" y="178" type="line"/>
      <point x="445" y="178" type="line"/>
      <point x="480" y="356" type="line"/>
    </contour>
    <contour>
      <point x="142" y="0" type="line"/>
      <point x="154" y="64" type="line"/>
      <point x="754" y="64" type="line"/>
      <point x="742" y="0" type="line"/>
    </contour>
  </outline>
</glyph>
<glyph name="twosuperior" format="2">
  <advance width="353"/>
  <unicode hex="00B2"/>
  <outline>
    <contour>
      <point x="23" y="342" type="line"/>
      <point x="36" y="407" type="line"/>
      <point x="95" y="446" type="line" smooth="yes"/>
      <point x="110" y="455"/>
      <point x="158" y="484"/>
      <point x="213" y="521"/>
      <point x="262" y="564"/>
      <point x="293" y="610"/>
      <point x="293" y="634" type="qcurve" smooth="yes"/>
      <point x="293" y="654"/>
      <point x="266" y="675"/>
      <point x="239" y="675" type="qcurve" smooth="yes"/>
      <point x="207" y="675"/>
      <point x="169" y="645"/>
      <point x="159" y="615" type="qcurve"/>
      <point x="85" y="615" type="line"/>
      <point x="94" y="650"/>
      <point x="140" y="703"/>
      <point x="206" y="734"/>
      <point x="243" y="734" type="qcurve" smooth="yes"/>
      <point x="280" y="734"/>
      <point x="335" y="716"/>
      <point x="366" y="676"/>
      <point x="366" y="645" type="qcurve" smooth="yes"/>
      <point x="366" y="605"/>
      <point x="321" y="539"/>
      <point x="253" y="484"/>
      <point x="182" y="439"/>
      <point x="155" y="421" type="qcurve" smooth="yes"/>
      <point x="115" y="394" type="line"/>
      <point x="114" y="401" type="line"/>
      <point x="328" y="401" type="line"/>
      <point x="316" y="342" type="line"/>
    </contour>
  </outline>
</glyph>
<glyph name="threesuperior" format="2">
  <advance width="371"/>
  <unicode hex="00B3"/>
  <outline>
    <contour>
      <point x="46" y="426" type="qcurve" smooth="yes"/>
      <point x="46" y="438"/>
      <point x="48" y="452" type="qcurve"/>
      <point x="114" y="452" type="line"/>
      <point x="113" y="447"/>
      <point x="113" y="442" type="qcurve" smooth="yes"/>
      <point x="113" y="413"/>
      <point x="148" y="390"/>
      <point x="180" y="390" type="qcurve" smooth="yes"/>
      <point x="203" y="390"/>
      <point x="255" y="402"/>
      <point x="293" y="430"/>
      <point x="293" y="455" type="qcurve" smooth="yes"/>
      <point x="293" y="472"/>
      <point x="272" y="497"/>
      <point x="230" y="510"/>
      <point x="199" y="510" type="qcurve" smooth="yes"/>
      <point x="182" y="510" type="line"/>
      <point x="192" y="563" type="line"/>
      <point x="212" y="563" type="line" smooth="yes"/>
      <point x="234" y="563"/>
      <point x="276" y="576"/>
      <point x="302" y="605"/>
      <point x="302" y="629" type="qcurve" smooth="yes"/>
      <point x="302" y="677"/>
      <point x="240" y="677" type="qcurve" smooth="yes"/>
      <point x="211" y="677"/>
      <point x="170" y="652"/>
      <point x="160" y="624" type="qcurve"/>
      <point x="96" y="624" type="line"/>
      <point x="105" y="672"/>
      <point x="198" y="734"/>
      <point x="264" y="734" type="qcurve" smooth="yes"/>
      <point x="319" y="734"/>
      <point x="380" y="687"/>
      <point x="380" y="644" type="qcurve" smooth="yes"/>
      <point x="380" y="603"/>
      <point x="327" y="545"/>
      <point x="283" y="539" type="qcurve"/>
      <point x="283" y="543" type="line"/>
      <point x="362" y="530"/>
      <point x="362" y="461" type="qcurve" smooth="yes"/>
      <point x="362" y="427"/>
      <point x="325" y="378"/>
      <point x="266" y="346"/>
      <point x="197" y="331"/>
      <point x="165" y="331" type="qcurve" smooth="yes"/>
      <point x="108" y="331"/>
      <point x="46" y="377"/>
    </contour>
  </outline>
</glyph>
<glyph name="acute" format="2">
  <advance width="220"/>
  <unicode hex="00B4"/>
  <outline>
    <contour>
      <point x="20" y="580" type="line"/>
      <point x="100" y="760" type="line"/>
      <point x="200" y="760" type="line"/>
      <point x="90" y="580" type="line"/>
    </contour>
  </outline>
</glyph>
<glyph name="paragraph" format="2">
  <advance width="559"/>
  <unicode hex="00B6"/>
  <outline>
    <contour>
      <point x="148" y="-160" type="line"/>
      <point x="247" y="352" type="line"/>
      <point x="202" y="352"/>
      <point x="125" y="380"/>
      <point x="77" y="439"/>
      <point x="77" y="485" type="qcurve" smooth="yes"/>
      <point x="77" y="531"/>
      <point x="119" y="615"/>
      <point x="189" y="683"/>
      <point x="276" y="722"/>
      <point x="320" y="722" type="qcurve" smooth="yes"/>
      <point x="570" y="722" type="line"/>
      <point x="563" y="683" type="line"/>
      <point x="502" y="683" type="line"/>
      <point x="338" y="-160" type="line"/>
      <point x="288" y="-160" type="line"/>
      <point x="452" y="683" type="line"/>
      <point x="362" y="683" type="line"/>
      <point x="198" y="-160" type="line"/>
    </contour>
  </outline>
</glyph>
<glyph name="periodcentered" format="2">
  <advance width="252"/>
  <unicode hex="00B7"/>
  <outline>
    <contour>
      <point x="60" y="278" type="line"/>
      <point x="84" y="401" type="line"/>
      <point x="192" y="401" type="line"/>
      <point x="168" y="278" type="line"/>
    </contour>
  </outline>
</glyph>
<glyph name="cedilla" format="2">
  <advance width="278"/>
  <unicode hex="00B8"/>
  <outline>
    <contour>
      <point x="21" y="-211" type="qcurve"/>
      <point x="35" y="-165" type="line"/>
      <point x="68" y="-173"/>
      <point x="100" y="-173" type="qcurve" smooth="yes"/>
      <point x="127" y="-173"/>
      <point x="164" y="-155"/>
      <point x="164" y="-135" type="qcurve" smooth="yes"/>
      <point x="164" y="-121"/>
      <point x="132" y="-97"/>
      <point x="105" y="-97" type="qcurve" smooth="yes"/>
      <point x="98" y="-97"/>
      <point x="82" y="-99"/>
      <point x="71" y="-103" type="qcurve"/>
      <point x="54" y="-93" type="line"/>
      <point x="111" y="0" type="line"/>
      <point x="172" y="0" type="line"/>
      <point x="129" y="-65" type="line"/>
      <point x="100" y="-58" type="line"/>
      <point x="115" y="-54"/>
      <point x="141" y="-51"/>
      <point x="155" y="-51" type="qcurve" smooth="yes"/>
      <point x="200" y="-51"/>
      <point x="237" y="-93"/>
      <point x="237" y="-124" type="qcurve" smooth="yes"/>
      <point x="237" y="-154"/>
      <point x="200" y="-197"/>
      <point x="138" y="-220"/>
      <point x="102" y="-220" type="qcurve" smooth="yes"/>
      <point x="88" y="-220"/>
      <point x="49" y="-215"/>
    </contour>
  </outline>
</glyph>
<glyph name="onesuperior" format="2">
  <advance width="290"/>
  <unicode hex="00B9"/>
  <outline>
    <contour>
      <point x="150" y="343" type="line"/>
      <point x="211" y="658" type="line"/>
      <point x="182" y="639"/>
      <point x="127" y="615"/>
      <point x="104" y="610" type="qcurve"/>
      <point x="115" y="665" type="line"/>
      <point x="127" y="669"/>
      <point x="164" y="686"/>
      <point x="199" y="704"/>
      <point x="208" y="711" type="qcurve" smooth="yes"/>
      <point x="223" y="722" type="line"/>
      <point x="287" y="722" type="line"/>
      <point x="214" y="343" type="line"/>
    </contour>
  </outline>
</glyph>
<glyph name="ordmasculine" format="2">
  <advance width="418"/>
  <unicode hex="00BA"/>
  <outline>
    <contour>
      <point x="63" y="477" type="qcurve" smooth="yes"/>
      <point x="63" y="538"/>
      <point x="116" y="645"/>
      <point x="211" y="710"/>
      <point x="276" y="710" type="qcurve" smooth="yes"/>
      <point x="344" y="710"/>
      <point x="417" y="637"/>
      <point x="417" y="574" type="qcurve" smooth="yes"/>
      <point x="417" y="513"/>
      <point x="365" y="407"/>
      <point x="269" y="341"/>
      <point x="204" y="341" type="qcurve" smooth="yes"/>
      <point x="136" y="341"/>
      <point x="63" y="414"/>
    </contour>
    <contour>
      <point x="129" y="485" type="qcurve" smooth="yes"/>
      <point x="129" y="444"/>
      <point x="169" y="386"/>
      <point x="213" y="386" type="qcurve" smooth="yes"/>
      <point x="246" y="386"/>
      <point x="297" y="419"/>
      <point x="331" y="473"/>
      <point x="349" y="535"/>
      <point x="349" y="564" type="qcurve" smooth="yes"/>
      <point x="349" y="605"/>
      <point x="309" y="664"/>
      <point x="266" y="664" type="qcurve" smooth="yes"/>
      <point x="233" y="664"/>
      <point x="182" y="631"/>
      <point x="147" y="577"/>
      <point x="129" y="514"/>
    </contour>
    <contour>
      <point x="11" y="242" type="line"/>
      <point x="18" y="279" type="line"/>
      <point x="371" y="279" type="line"/>
      <point x="364" y="242" type="line"/>
    </contour>
  </outline>
</glyph>
<glyph name="guillemotright" format="2">
  <advance width="569"/>
  <unicode hex="00BB"/>
  <outline>
    <contour>
      <point x="61" y="57" type="line"/>
      <point x="227" y="262" type="line"/>
      <point x="223" y="242" type="line"/>
      <point x="136" y="447" type="line"/>
      <point x="214" y="447" type="line"/>
      <point x="314" y="252" type="line"/>
      <point x="139" y="57" type="line"/>
    </contour>
    <contour>
      <point x="256" y="57" type="line"/>
      <point x="422" y="262" type="line"/>
      <point x="418" y="242" type="line"/>
      <point x="331" y="447" type="line"/>
      <point x="409" y="447" type="line"/>
      <point x="509" y="252" type="line"/>
      <point x="334" y="57" type="line"/>
    </contour>
  </outline>
</glyph>
<glyph name="onequarter" format="2">
  <advance width="799"/>
  <unicode hex="00BC"/>
  <outline>
    <contour>
      <point x="48" y="-14" type="line"/>
      <point x="620" y="736" type="line"/>
      <point x="689" y="736" type="line"/>
      <point x="117" y="-14" type="line"/>
    </contour>
    <contour>
      <point x="366" y="95" type="line"/>
      <point x="376" y="148" type="line"/>
      <point x="597" y="390" type="line"/>
      <point x="667" y="390" type="line"/>
      <point x="591" y="0" type="line"/>
      <point x="527" y="0" type="line"/>
      <point x="591" y="326" type="line"/>
      <point x="597" y="324" type="line"/>
      <point x="426" y="139" type="line"/>
      <point x="423" y="149" type="line"/>
      <point x="701" y="149" type="line"/>
      <point x="691" y="95" type="line"/>
    </contour>
    <contour>
      <point x="150" y="343" type="line"/>
      <point x="211" y="658" type="line"/>
      <point x="182" y="639"/>
      <point x="127" y="615"/>
      <point x="104" y="610" type="qcurve"/>
      <point x="115" y="665" type="line"/>
      <point x="127" y="669"/>
      <point x="164" y="686"/>
      <point x="199" y="704"/>
      <point x="208" y="711" type="qcurve" smooth="yes"/>
      <point x="223" y="722" type="line"/>
      <point x="287" y="722" type="line"/>
      <point x="214" y="343" type="line"/>
    </contour>
  </outline>
</glyph>
<glyph name="onehalf" format="2">
  <advance width="799"/>
  <unicode hex="00BD"/>
  <outline>
    <contour>
      <point x="43" y="-14" type="line"/>
      <point x="615" y="736" type="line"/>
      <point x="684" y="736" type="line"/>
      <point x="112" y="-14" type="line"/>
    </contour>
    <contour>
      <point x="150" y="343" type="line"/>
      <point x="211" y="658" type="line"/>
      <point x="182" y="639"/>
      <point x="127" y="615"/>
      <point x="104" y="610" type="qcurve"/>
      <point x="115" y="665" type="line"/>
      <point x="127" y="669"/>
      <point x="164" y="686"/>
      <point x="199" y="704"/>
      <point x="208" y="711" type="qcurve" smooth="yes"/>
      <point x="223" y="722" type="line"/>
      <point x="287" y="722" type="line"/>
      <point x="214" y="343" type="line"/>
    </contour>
    <contour>
      <point x="382" y="1" type="line"/>
      <point x="394" y="66" type="line"/>
      <point x="454" y="105" type="line" smooth="yes"/>
      <point x="469" y="114"/>
      <point x="517" y="143"/>
      <point x="572" y="180"/>
      <point x="621" y="223"/>
      <point x="652" y="269"/>
      <point x="652" y="292" type="qcurve" smooth="yes"/>
      <point x="652" y="313"/>
      <point x="624" y="334"/>
      <point x="598" y="334" type="qcurve" smooth="yes"/>
      <point x="565" y="334"/>
      <point x="527" y="304"/>
      <point x="518" y="274" type="qcurve"/>
      <point x="444" y="274" type="line"/>
      <point x="453" y="308"/>
      <point x="499" y="362"/>
      <point x="565" y="393"/>
      <point x="602" y="393" type="qcurve" smooth="yes"/>
      <point x="639" y="393"/>
      <point x="694" y="374"/>
      <point x="725" y="335"/>
      <point x="725" y="304" type="qcurve" smooth="yes"/>
      <point x="725" y="264"/>
      <point x="680" y="198"/>
      <point x="612" y="143"/>
      <point x="540" y="98"/>
      <point x="514" y="80" type="qcurve" smooth="yes"/>
      <point x="473" y="52" type="line"/>
      <point x="472" y="60" type="line"/>
      <point x="686" y="60" type="line"/>
      <point x="675" y="1" type="line"/>
    </contour>
  </outline>
</glyph>
<glyph name="threequarters" format="2">
  <advance width="799"/>
  <unicode hex="00BE"/>
  <outline>
    <contour>
      <point x="45" y="428" type="qcurve"/>
      <point x="46" y="439"/>
      <point x="47" y="452" type="qcurve"/>
      <point x="113" y="452" type="line"/>
      <point x="111" y="445"/>
      <point x="111" y="431" type="qcurve" smooth="yes"/>
      <point x="111" y="406"/>
      <point x="145" y="390"/>
      <point x="172" y="390" type="qcurve" smooth="yes"/>
      <point x="199" y="390"/>
      <point x="254" y="402"/>
      <point x="293" y="430"/>
      <point x="293" y="455" type="qcurve" smooth="yes"/>
      <point x="293" y="472"/>
      <point x="272" y="496"/>
      <point x="230" y="509"/>
      <point x="198" y="509" type="qcurve" smooth="yes"/>
      <point x="182" y="509" type="line"/>
      <point x="192" y="563" type="line"/>
      <point x="212" y="563" type="line" smooth="yes"/>
      <point x="234" y="563"/>
      <point x="276" y="576"/>
      <point x="302" y="605"/>
      <point x="302" y="629" type="qcurve" smooth="yes"/>
      <point x="302" y="677"/>
      <point x="240" y="677" type="qcurve" smooth="yes"/>
      <point x="211" y="677"/>
      <point x="169" y="652"/>
      <point x="160" y="624" type="qcurve"/>
      <point x="96" y="624" type="line"/>
      <point x="105" y="672"/>
      <point x="197" y="734"/>
      <point x="263" y="734" type="qcurve" smooth="yes"/>
      <point x="319" y="734"/>
      <point x="379" y="687"/>
      <point x="379" y="644" type="qcurve" smooth="yes"/>
      <point x="379" y="603"/>
      <point x="327" y="544"/>
      <point x="282" y="539" type="qcurve"/>
      <point x="283" y="543" type="line"/>
      <point x="361" y="530"/>
      <point x="361" y="461" type="qcurve" smooth="yes"/>
      <point x="361" y="427"/>
      <point x="325" y="378"/>
      <point x="266" y="346"/>
      <point x="197" y="331"/>
      <point x="164" y="331" type="qcurve" smooth="yes"/>
      <point x="106" y="331"/>
      <point x="45" y="378"/>
    </contour>
    <contour>
      <point x="92" y="-14" type="line"/>
      <point x="664" y="736" type="line"/>
      <point x="733" y="736" type="line"/>
      <point x="161" y="-14" type="line"/>
    </contour>
    <contour>
      <point x="366" y="95" type="line"/>
      <point x="376" y="148" type="line"/>
      <point x="597" y="390" type="line"/>
      <point x="667" y="390" type="line"/>
      <point x="591" y="0" type="line"/>
      <point x="527" y="0" type="line"/>
      <point x="591" y="326" type="line"/>
      <point x="597" y="324" type="line"/>
      <point x="426" y="139" type="line"/>
      <point x="423" y="149" type="line"/>
      <point x="701" y="149" type="line"/>
      <point x="691" y="95" type="line"/>
    </contour>
  </outline>
</glyph>
<glyph name="AE" format="2">
  <advance width="943"/>
  <unicode hex="00C6"/>
  <outline>
    <contour>
      <point x="-59" y="0" type="line"/>
      <point x="464" y="722" type="line"/>
      <point x="536" y="722" type="line"/>
      <point x="521" y="645" type="line"/>
      <point x="47" y="0" type="line"/>
    </contour>
    <contour>
      <point x="177" y="193" type="line"/>
      <point x="239" y="280" type="line"/>
      <point x="455" y="280" type="line"/>
      <point x="438" y="193" type="line"/>
    </contour>
    <contour>
      <point x="485" y="0" type="line"/>
      <point x="502" y="87" type="line"/>
      <point x="859" y="87" type="line"/>
      <point x="842" y="0" type="line"/>
    </contour>
    <contour>
      <point x="548" y="326" type="line"/>
      <point x="565" y="413" type="line"/>
      <point x="902" y="413" type="line"/>
      <point x="885" y="326" type="line"/>
    </contour>
    <contour>
      <point x="608" y="635" type="line"/>
      <point x="625" y="722" type="line"/>
      <point x="962" y="722" type="line"/>
      <point x="945" y="635" type="line"/>
    </contour>
    <contour>
      <point x="396" y="0" type="line"/>
      <point x="536" y="722" type="line"/>
      <point x="636" y="722" type="line"/>
      <point x="496" y="0" type="line"/>
    </contour>
  </outline>
</glyph>
<glyph name="Eth" format="2">
  <advance width="719"/>
  <unicode hex="00D0"/>
  <outline>
    <contour>
      <point x="-8" y="320" type="line"/>
      <point x="8" y="403" type="line"/>
      <point x="359" y="403" type="line"/>
      <point x="343" y="320" type="line"/>
    </contour>
    <contour>
      <point x="78" y="0" type="line"/>
      <point x="218" y="722" type="line"/>
      <point x="318" y="722" type="line"/>
      <point x="178" y="0" type="line"/>
    </contour>
    <contour>
      <point x="142" y="0" type="line"/>
      <point x="142" y="87" type="line"/>
      <point x="320" y="87" type="line" smooth="yes"/>
      <point x="379" y="87"/>
      <point x="478" y="124"/>
      <point x="554" y="191"/>
      <point x="607" y="280"/>
      <point x="635" y="383"/>
      <point x="635" y="438" type="qcurve" smooth="yes"/>
      <point x="635" y="530"/>
      <point x="530" y="635"/>
      <point x="427" y="635" type="qcurve" smooth="yes"/>
      <point x="242" y="635" type="line"/>
      <point x="242" y="722" type="line"/>
      <point x="442" y="722" type="line" smooth="yes"/>
      <point x="540" y="722"/>
      <point x="672" y="662"/>
      <point x="739" y="548"/>
      <point x="739" y="465" type="qcurve" smooth="yes"/>
      <point x="739" y="387"/>
      <point x="700" y="248"/>
      <point x="626" y="132"/>
      <point x="520" y="47"/>
      <point x="383" y="0"/>
      <point x="302" y="0" type="qcurve" smooth="yes"/>
    </contour>
  </outline>
</glyph>
<glyph name="multiply" format="2">
  <advance width="640"/>
  <unicode hex="00D7"/>
  <outline>
    <contour>
      <point x="8" y="69" type="line"/>
      <point x="606" y="570" type="line"/>
      <point x="638" y="531" type="line"/>
      <point x="39" y="30" type="line"/>
    </contour>
    <contour>
      <point x="98" y="531" type="line"/>
      <point x="144" y="570" type="line"/>
      <point x="548" y="69" type="line"/>
      <point x="501" y="30" type="line"/>
    </contour>
  </outline>
</glyph>
<glyph name="Oslash" format="2">
  <advance width="793"/>
  <unicode hex="00D8"/>
  <outline>
    <contour>
      <point x="30" y="-12" type="line"/>
      <point x="675" y="734" type="line"/>
      <point x="783" y="734" type="line"/>
      <point x="138" y="-12" type="line"/>
    </contour>
    <contour>
      <point x="65" y="255" type="qcurve" smooth="yes"/>
      <point x="65" y="358"/>
      <point x="127" y="533"/>
      <point x="239" y="662"/>
      <point x="390" y="734"/>
      <point x="479" y="734" type="qcurve" smooth="yes"/>
      <point x="605" y="734"/>
      <point x="743" y="595"/>
      <point x="743" y="467" type="qcurve" smooth="yes"/>
      <point x="743" y="364"/>
      <point x="681" y="189"/>
      <point x="569" y="60"/>
      <point x="418" y="-12"/>
      <point x="329" y="-12" type="qcurve" smooth="yes"/>
      <point x="244" y="-12"/>
      <point x="127" y="51"/>
      <point x="65" y="170"/>
    </contour>
    <contour>
      <point x="168" y="258" type="qcurve" smooth="yes"/>
      <point x="168" y="197"/>
      <point x="207" y="117"/>
      <point x="285" y="76"/>
      <point x="343" y="76" type="qcurve" smooth="yes"/>
      <point x="410" y="76"/>
      <point x="519" y="132"/>
      <point x="597" y="235"/>
      <point x="640" y="377"/>
      <point x="640" y="464" type="qcurve" smooth="yes"/>
      <point x="640" y="555"/>
      <point x="552" y="646"/>
      <point x="464" y="646" type="qcurve" smooth="yes"/>
      <point x="398" y="646"/>
      <point x="289" y="590"/>
      <point x="210" y="487"/>
      <point x="168" y="345"/>
    </contour>
  </outline>
</glyph>
<glyph name="Thorn" format="2">
  <advance width="584"/>
  <unicode hex="00DE"/>
  <outline>
    <contour>
      <point x="160" y="172" type="line"/>
      <point x="177" y="260" type="line"/>
      <point x="298" y="260" type="line" smooth="yes"/>
      <point x="352" y="260"/>
      <point x="445" y="282"/>
      <point x="504" y="347"/>
      <point x="504" y="410" type="qcurve" smooth="yes"/>
      <point x="504" y="465"/>
      <point x="417" y="501"/>
      <point x="345" y="501" type="qcurve" smooth="yes"/>
      <point x="224" y="501" type="line"/>
      <point x="241" y="588" type="line"/>
      <point x="359" y="588" type="line" smooth="yes"/>
      <point x="429" y="588"/>
      <point x="540" y="563"/>
      <point x="603" y="497"/>
      <point x="603" y="435" type="qcurve" smooth="yes"/>
      <point x="603" y="360"/>
      <point x="553" y="258"/>
      <point x="463" y="198"/>
      <point x="345" y="172"/>
      <point x="278" y="172" type="qcurve" smooth="yes"/>
    </contour>
    <contour>
      <point x="41" y="0" type="line"/>
      <point x="181" y="723" type="line"/>
      <point x="282" y="723" type="line"/>
      <point x="142" y="0" type="line"/>
    </contour>
  </outline>
</glyph>
<glyph name="germandbls" format="2">
  <advance width="619"/>
  <unicode hex="00DF"/>
  <outline>
    <contour>
      <point x="41" y="0" type="line"/>
      <point x="145" y="539" type="line" smooth="yes"/>
      <point x="157" y="598"/>
      <point x="228" y="685"/>
      <point x="336" y="733"/>
      <point x="403" y="733" type="qcurve" smooth="yes"/>
      <point x="461" y="733"/>
      <point x="541" y="706"/>
      <point x="583" y="653"/>
      <point x="583" y="613" type="qcurve" smooth="yes"/>
      <point x="583" y="597"/>
      <point x="579" y="579" type="qcurve" smooth="yes"/>
      <point x="572" y="541"/>
      <point x="537" y="491"/>
      <point x="493" y="458"/>
      <point x="450" y="433"/>
      <point x="420" y="407"/>
      <point x="416" y="389" type="qcurve" smooth="yes"/>
      <point x="412" y="369"/>
      <point x="443" y="340"/>
      <point x="493" y="313"/>
      <point x="545" y="277"/>
      <point x="580" y="224"/>
      <point x="580" y="183" type="qcurve" smooth="yes"/>
      <point x="580" y="124"/>
      <point x="526" y="35"/>
      <point x="432" y="-14"/>
      <point x="374" y="-14" type="qcurve" smooth="yes"/>
      <point x="302" y="-14"/>
      <point x="222" y="51"/>
      <point x="222" y="107" type="qcurve" smooth="yes"/>
      <point x="222" y="122"/>
      <point x="225" y="139" type="qcurve"/>
      <point x="319" y="139" type="line"/>
      <point x="316" y="126"/>
      <point x="316" y="115" type="qcurve" smooth="yes"/>
      <point x="316" y="51"/>
      <point x="403" y="51" type="qcurve" smooth="yes"/>
      <point x="428" y="51"/>
      <point x="466" y="85"/>
      <point x="486" y="133"/>
      <point x="486" y="156" type="qcurve" smooth="yes"/>
      <point x="486" y="188"/>
      <point x="452" y="228"/>
      <point x="401" y="259"/>
      <point x="350" y="289"/>
      <point x="315" y="328"/>
      <point x="315" y="359" type="qcurve" smooth="yes"/>
      <point x="315" y="360"/>
      <point x="315" y="364"/>
      <point x="316" y="368"/>
      <point x="316" y="372"/>
      <point x="317" y="376"/>
      <point x="317" y="378" type="qcurve"/>
      <point x="324" y="412"/>
      <point x="358" y="455"/>
      <point x="402" y="484"/>
      <point x="445" y="510"/>
      <point x="477" y="544"/>
      <point x="483" y="570" type="qcurve" smooth="yes"/>
      <point x="491" y="612"/>
      <point x="441" y="659"/>
      <point x="388" y="659" type="qcurve" smooth="yes"/>
      <point x="324" y="659"/>
      <point x="245" y="587"/>
      <point x="231" y="517" type="qcurve" smooth="yes"/>
      <point x="131" y="0" type="line"/>
    </contour>
  </outline>
</glyph>
<glyph name="ae" format="2">
  <advance width="905"/>
  <unicode hex="00E6"/>
  <outline>
    <contour>
      <point x="14" y="110" type="qcurve" smooth="yes"/>
      <point x="14" y="167"/>
      <point x="64" y="243"/>
      <point x="145" y="288"/>
      <point x="242" y="307"/>
      <point x="290" y="307" type="qcurve" smooth="yes"/>
      <point x="321" y="307"/>
      <point x="390" y="303"/>
      <point x="408" y="301" type="qcurve"/>
      <point x="410" y="312"/>
      <point x="412" y="332"/>
      <point x="412" y="342" type="qcurve" smooth="yes"/>
      <point x="412" y="389"/>
      <point x="360" y="447"/>
      <point x="308" y="447" type="qcurve" smooth="yes"/>
      <point x="272" y="447"/>
      <point x="219" y="432"/>
      <point x="187" y="401"/>
      <point x="182" y="376" type="qcurve"/>
      <point x="89" y="376" type="line"/>
      <point x="103" y="444"/>
      <point x="230" y="512"/>
      <point x="325" y="512" type="qcurve" smooth="yes"/>
      <point x="395" y="512"/>
      <point x="472" y="452"/>
      <point x="485" y="390" type="qcurve"/>
      <point x="509" y="431"/>
      <point x="569" y="485"/>
      <point x="649" y="511"/>
      <point x="701" y="511" type="qcurve" smooth="yes"/>
      <point x="788" y="511"/>
      <point x="875" y="414"/>
      <point x="875" y="338" type="qcurve" smooth="yes"/>
      <point x="875" y="310"/>
      <point x="869" y="280" type="qcurve" smooth="yes"/>
      <point x="861" y="238" type="line"/>
      <point x="497" y="238" type="line"/>
      <point x="494" y="225"/>
      <point x="491" y="199"/>
      <point x="491" y="187" type="qcurve" smooth="yes"/>
      <point x="491" y="149"/>
      <point x="516" y="87"/>
      <point x="567" y="51"/>
      <point x="605" y="51" type="qcurve" smooth="yes"/>
      <point x="650" y="51"/>
      <point x="721" y="105"/>
      <point x="743" y="157" type="qcurve"/>
      <point x="838" y="157" type="line"/>
      <point x="813" y="80"/>
      <point x="689" y="-14"/>
      <point x="599" y="-14" type="qcurve" smooth="yes"/>
      <point x="521" y="-14"/>
      <point x="429" y="59"/>
      <point x="429" y="126" type="qcurve"/>
      <point x="422" y="113"/>
      <point x="384" y="67"/>
      <point x="321" y="19"/>
      <point x="233" y="-14"/>
      <point x="177" y="-14" type="qcurve" smooth="yes"/>
      <point x="131" y="-14"/>
      <point x="57" y="13"/>
      <point x="14" y="68"/>
    </contour>
    <contour>
      <point x="111" y="124" type="qcurve" smooth="yes"/>
      <point x="111" y="88"/>
      <point x="164" y="51"/>
      <point x="202" y="51" type="qcurve" smooth="yes"/>
      <point x="245" y="51"/>
      <point x="311" y="75"/>
      <point x="359" y="120"/>
      <point x="390" y="185"/>
      <point x="398" y="225" type="qcurve" smooth="yes"/>
      <point x="401" y="243" type="line"/>
      <point x="389" y="245"/>
      <point x="364" y="246"/>
      <point x="342" y="247"/>
      <point x="333" y="247" type="qcurve" smooth="yes"/>
      <point x="300" y="247"/>
      <point x="223" y="238"/>
      <point x="155" y="212"/>
      <point x="111" y="163"/>
    </contour>
    <contour>
      <point x="512" y="303" type="qcurve"/>
      <point x="774" y="303" type="line"/>
      <point x="776" y="320"/>
      <point x="776" y="335" type="qcurve" smooth="yes"/>
      <point x="776" y="383"/>
      <point x="735" y="447"/>
      <point x="681" y="447" type="qcurve" smooth="yes"/>
      <point x="634" y="447"/>
      <point x="566" y="402"/>
      <point x="522" y="335"/>
    </contour>
  </outline>
</glyph>
<glyph name="eth" format="2">
  <advance width="587"/>
  <unicode hex="00F0"/>
  <outline>
    <contour>
      <point x="18" y="177" type="qcurve" smooth="yes"/>
      <point x="18" y="245"/>
      <point x="57" y="366"/>
      <point x="134" y="459"/>
      <point x="247" y="513"/>
      <point x="320" y="513" type="qcurve" smooth="yes"/>
      <point x="332" y="513"/>
      <point x="363" y="510"/>
      <point x="389" y="505"/>
      <point x="392" y="503" type="qcurve"/>
      <point x="389" y="499" type="line"/>
      <point x="383" y="520"/>
      <point x="331" y="579"/>
      <point x="258" y="641"/>
      <point x="183" y="692"/>
      <point x="155" y="705" type="qcurve"/>
      <point x="210" y="734" type="line"/>
      <point x="312" y="692"/>
      <point x="452" y="572"/>
      <point x="524" y="419"/>
      <point x="524" y="330" type="qcurve" smooth="yes"/>
      <point x="524" y="264"/>
      <point x="484" y="141"/>
      <point x="406" y="44"/>
      <point x="291" y="-13"/>
      <point x="216" y="-13" type="qcurve" smooth="yes"/>
      <point x="117" y="-13"/>
      <point x="18" y="89"/>
    </contour>
    <contour>
      <point x="110" y="191" type="qcurve" smooth="yes"/>
      <point x="110" y="133"/>
      <point x="167" y="57"/>
      <point x="230" y="57" type="qcurve" smooth="yes"/>
      <point x="279" y="57"/>
      <point x="353" y="103"/>
      <point x="403" y="179"/>
      <point x="428" y="266"/>
      <point x="428" y="307" type="qcurve" smooth="yes"/>
      <point x="428" y="368"/>
      <point x="371" y="443"/>
      <point x="312" y="443" type="qcurve" smooth="yes"/>
      <point x="264" y="443"/>
      <point x="189" y="396"/>
      <point x="137" y="321"/>
      <point x="110" y="233"/>
    </contour>
    <contour>
      <point x="116" y="523" type="line"/>
      <point x="106" y="566" type="line"/>
      <point x="506" y="732" type="line"/>
      <point x="519" y="691" type="line"/>
    </contour>
  </outline>
</glyph>
<glyph name="divide" format="2">
  <advance width="1000"/>
  <unicode hex="00F7"/>
  <outline>
    <contour>
      <point x="201" y="265" type="line"/>
      <point x="214" y="335" type="line"/>
      <point x="814" y="335" type="line"/>
      <point x="801" y="265" type="line"/>
    </contour>
    <contour>
      <point x="411" y="78" type="line"/>
      <point x="435" y="201" type="line"/>
      <point x="543" y="201" type="line"/>
      <point x="519" y="78" type="line"/>
    </contour>
    <contour>
      <point x="473" y="399" type="line"/>
      <point x="497" y="522" type="line"/>
      <point x="605" y="522" type="line"/>
      <point x="581" y="399" type="line"/>
    </contour>
  </outline>
</glyph>
<glyph name="oslash" format="2">
  <advance width="591"/>
  <unicode hex="00F8"/>
  <outline>
    <contour>
      <point x="2" y="-12" type="line"/>
      <point x="489" y="512" type="line"/>
      <point x="569" y="512" type="line"/>
      <point x="81" y="-12" type="line"/>
    </contour>
    <contour>
      <point x="38" y="183" type="qcurve" smooth="yes"/>
      <point x="38" y="249"/>
      <point x="82" y="368"/>
      <point x="164" y="460"/>
      <point x="277" y="512"/>
      <point x="347" y="512" type="qcurve" smooth="yes"/>
      <point x="445" y="512"/>
      <point x="552" y="409"/>
      <point x="552" y="318" type="qcurve" smooth="yes"/>
      <point x="552" y="252"/>
      <point x="509" y="133"/>
      <point x="428" y="41"/>
      <point x="315" y="-12"/>
      <point x="245" y="-12" type="qcurve" smooth="yes"/>
      <point x="146" y="-12"/>
      <point x="38" y="92"/>
    </contour>
    <contour>
      <point x="132" y="182" type="qcurve" smooth="yes"/>
      <point x="132" y="117"/>
      <point x="196" y="53"/>
      <point x="257" y="53" type="qcurve" smooth="yes"/>
      <point x="310" y="53"/>
      <point x="386" y="100"/>
      <point x="435" y="178"/>
      <point x="458" y="272"/>
      <point x="458" y="318" type="qcurve" smooth="yes"/>
      <point x="458" y="383"/>
      <point x="394" y="447"/>
      <point x="333" y="447" type="qcurve" smooth="yes"/>
      <point x="280" y="447"/>
      <point x="203" y="400"/>
      <point x="155" y="322"/>
      <point x="132" y="228"/>
    </contour>
  </outline>
</glyph>
<glyph name="thorn" format="2">
  <advance width="627"/>
  <unicode hex="00FE"/>
  <outline>
    <contour>
      <point x="11" y="-200" type="line"/>
      <point x="190" y="722" type="line"/>
      <point x="280" y="722" type="line"/>
      <point x="101" y="-200" type="line"/>
    </contour>
    <contour>
      <point x="142" y="109" type="qcurve"/>
      <point x="200" y="406" type="line"/>
      <point x="222" y="441"/>
      <point x="286" y="489"/>
      <point x="362" y="513"/>
      <point x="404" y="513" type="qcurve" smooth="yes"/>
      <point x="491" y="513"/>
      <point x="596" y="414"/>
      <point x="596" y="328" type="qcurve" smooth="yes"/>
      <point x="596" y="265"/>
      <point x="554" y="144"/>
      <point x="477" y="46"/>
      <point x="370" y="-13"/>
      <point x="305" y="-13" type="qcurve" smooth="yes"/>
      <point x="242" y="-13"/>
      <point x="162" y="47"/>
    </contour>
    <contour>
      <point x="185" y="203" type="qcurve" smooth="yes"/>
      <point x="185" y="136"/>
      <point x="246" y="52"/>
      <point x="298" y="52" type="qcurve" smooth="yes"/>
      <point x="349" y="52"/>
      <point x="424" y="101"/>
      <point x="474" y="179"/>
      <point x="499" y="269"/>
      <point x="499" y="310" type="qcurve" smooth="yes"/>
      <point x="499" y="380"/>
      <point x="432" y="455"/>
      <point x="377" y="455" type="qcurve" smooth="yes"/>
      <point x="331" y="455"/>
      <point x="260" y="408"/>
      <point x="210" y="333"/>
      <point x="185" y="245"/>
    </contour>
  </outline>
</glyph>
<glyph name="dcroat" format="2">
  <advance width="561"/>
  <unicode hex="0111"/>
  <outline>
    <contour>
      <point x="339" y="573" type="line"/>
      <point x="353" y="642" type="line"/>
      <point x="615" y="642" type="line"/>
      <point x="601" y="573" type="line"/>
    </contour>
    <contour>
      <point x="19" y="188" type="qcurve" smooth="yes"/>
      <point x="19" y="246"/>
      <point x="58" y="362"/>
      <point x="132" y="456"/>
      <point x="235" y="513"/>
      <point x="300" y="513" type="qcurve" smooth="yes"/>
      <point x="344" y="513"/>
      <point x="400" y="486"/>
      <point x="435" y="441"/>
      <point x="447" y="415" type="qcurve"/>
      <point x="380" y="72" type="line"/>
      <point x="370" y="58"/>
      <point x="313" y="18"/>
      <point x="239" y="-13"/>
      <point x="204" y="-13" type="qcurve" smooth="yes"/>
      <point x="112" y="-13"/>
      <point x="19" y="100"/>
    </contour>
    <contour>
      <point x="109" y="202" type="qcurve" smooth="yes"/>
      <point x="109" y="143"/>
      <point x="168" y="57"/>
      <point x="231" y="57" type="qcurve" smooth="yes"/>
      <point x="278" y="57"/>
      <point x="347" y="106"/>
      <point x="391" y="183"/>
      <point x="412" y="271"/>
      <point x="412" y="310" type="qcurve" smooth="yes"/>
      <point x="412" y="349"/>
      <point x="390" y="412"/>
      <point x="341" y="449"/>
      <point x="300" y="449" type="qcurve" smooth="yes"/>
      <point x="253" y="449"/>
      <point x="181" y="402"/>
      <point x="133" y="327"/>
      <point x="109" y="241"/>
    </contour>
    <contour>
      <point x="357" y="0" type="line"/>
      <point x="497" y="722" type="line"/>
      <point x="587" y="722" type="line"/>
      <point x="447" y="0" type="line"/>
    </contour>
  </outline>
</glyph>
<glyph name="Hbar" format="2">
  <advance width="669"/>
  <unicode hex="0126"/>
  <outline>
    <contour>
      <point x="165" y="516" type="line"/>
      <point x="178" y="581" type="line"/>
      <point x="817" y="581" type="line"/>
      <point x="804" y="516" type="line"/>
    </contour>
    <contour>
      <point x="301" y="326" type="line"/>
      <point x="318" y="414" type="line"/>
      <point x="707" y="414" type="line"/>
      <point x="690" y="326" type="line"/>
    </contour>
    <contour>
      <point x="159" y="0" type="line"/>
      <point x="299" y="722" type="line"/>
      <point x="399" y="722" type="line"/>
      <point x="259" y="0" type="line"/>
    </contour>
    <contour>
      <point x="608" y="0" type="line"/>
      <point x="748" y="722" type="line"/>
      <point x="848" y="722" type="line"/>
      <point x="708" y="0" type="line"/>
    </contour>
  </outline>
</glyph>
<glyph name="hbar" format="2">
  <advance width="583"/>
  <unicode hex="0127"/>
  <outline>
    <contour>
      <point x="99" y="565" type="line"/>
      <point x="109" y="620" type="line"/>
      <point x="474" y="620" type="line"/>
      <point x="464" y="565" type="line"/>
    </contour>
    <contour>
      <point x="143" y="323" type="line"/>
      <point x="159" y="408" type="line"/>
      <point x="185" y="436" type="line" smooth="yes"/>
      <point x="206" y="460"/>
      <point x="262" y="494"/>
      <point x="325" y="513"/>
      <point x="357" y="513" type="qcurve" smooth="yes"/>
      <point x="435" y="513"/>
      <point x="515" y="448"/>
      <point x="515" y="383" type="qcurve" smooth="yes"/>
      <point x="515" y="358"/>
      <point x="509" y="329" type="qcurve" smooth="yes"/>
      <point x="445" y="0" type="line"/>
      <point x="355" y="0" type="line"/>
      <point x="415" y="311" type="line" smooth="yes"/>
      <point x="421" y="340"/>
      <point x="421" y="362" type="qcurve" smooth="yes"/>
      <point x="421" y="409"/>
      <point x="371" y="453"/>
      <point x="320" y="453" type="qcurve" smooth="yes"/>
      <point x="282" y="453"/>
      <point x="216" y="418"/>
      <point x="170" y="360"/>
      <point x="163" y="323" type="qcurve"/>
    </contour>
    <contour>
      <point x="11" y="0" type="line"/>
      <point x="151" y="722" type="line"/>
      <point x="241" y="722" type="line"/>
      <point x="101" y="0" type="line"/>
    </contour>
  </outline>
</glyph>
<glyph name="dotlessi" format="2">
  <advance width="278"/>
  <unicode hex="0131"/>
  <outline>
    <contour>
      <point x="40" y="0" type="line"/>
      <point x="138" y="500" type="line"/>
      <point x="228" y="500" type="line"/>
      <point x="130" y="0" type="line"/>
    </contour>
  </outline>
</glyph>
<glyph name="kgreenlandic" format="2">
  <advance width="451"/>
  <unicode hex="0138"/>
  <outline>
    <contour>
      <point x="10" y="0" type="line"/>
      <point x="102" y="470" type="line"/>
      <point x="198" y="500" type="line"/>
      <point x="100" y="0" type="line"/>
    </contour>
    <contour>
      <point x="125" y="281" type="line"/>
      <point x="368" y="500" type="line"/>
      <point x="481" y="500" type="line"/>
      <point x="228" y="273" type="line"/>
      <point x="233" y="292" type="line"/>
      <point x="399" y="0" type="line"/>
      <point x="280" y="0" type="line"/>
    </contour>
  </outline>
</glyph>
<glyph name="Lslash" format="2">
  <advance width="487"/>
  <unicode hex="0141"/>
  <outline>
    <contour>
      <point x="216" y="311" type="line"/>
      <point x="232" y="392" type="line"/>
      <point x="392" y="522" type="line"/>
      <point x="376" y="440" type="line"/>
    </contour>
    <contour>
      <point x="4" y="136" type="line"/>
      <point x="20" y="215" type="line"/>
      <point x="146" y="320" type="line"/>
      <point x="131" y="240" type="line"/>
    </contour>
    <contour>
      <point x="102" y="0" type="line"/>
      <point x="119" y="87" type="line"/>
      <point x="476" y="87" type="line"/>
      <point x="459" y="0" type="line"/>
    </contour>
    <contour>
      <point x="72" y="0" type="line"/>
      <point x="212" y="722" type="line"/>
      <point x="312" y="722" type="line"/>
      <point x="172" y="0" type="line"/>
    </contour>
  </outline>
</glyph>
<glyph name="lslash" format="2">
  <advance width="343"/>
  <unicode hex="0142"/>
  <outline>
    <contour>
      <point x="11" y="215" type="line"/>
      <point x="26" y="294" type="line"/>
      <point x="353" y="565" type="line"/>
      <point x="337" y="483" type="line"/>
    </contour>
    <contour>
      <point x="64" y="0" type="line"/>
      <point x="204" y="722" type="line"/>
      <point x="304" y="722" type="line"/>
      <point x="164" y="0" type="line"/>
    </contour>
  </outline>
</glyph>
<glyph name="Eng" format="2">
  <advance width="745"/>
  <unicode hex="014A"/>
  <outline>
    <contour>
      <point x="211" y="722" type="line"/>
      <point x="323" y="722" type="line"/>
      <point x="574" y="0" type="line"/>
      <point x="461" y="0" type="line"/>
    </contour>
    <contour>
      <point x="41" y="0" type="line"/>
      <point x="181" y="722" type="line"/>
      <point x="281" y="722" type="line"/>
      <point x="141" y="0" type="line"/>
    </contour>
    <contour>
      <point x="504" y="0" type="line"/>
      <point x="644" y="722" type="line"/>
      <point x="744" y="722" type="line"/>
      <point x="604" y="0" type="line"/>
    </contour>
    <contour>
      <point x="293" y="-143" type="qcurve"/>
      <point x="361" y="-86" type="line"/>
      <point x="373" y="-108"/>
      <point x="405" y="-130"/>
      <point x="426" y="-130" type="qcurve" smooth="yes"/>
      <point x="455" y="-130"/>
      <point x="496" y="-91"/>
      <point x="502" y="-62" type="qcurve" smooth="yes"/>
      <point x="518" y="20" type="line"/>
      <point x="608" y="20" type="line"/>
      <point x="592" y="-62" type="line" smooth="yes"/>
      <point x="584" y="-104"/>
      <point x="534" y="-166"/>
      <point x="461" y="-200"/>
      <point x="416" y="-200" type="qcurve" smooth="yes"/>
      <point x="376" y="-200"/>
      <point x="314" y="-171"/>
    </contour>
  </outline>
</glyph>
<glyph name="eng" format="2">
  <advance width="555"/>
  <unicode hex="014B"/>
  <outline>
    <contour>
      <point x="10" y="0" type="line"/>
      <point x="108" y="500" type="line"/>
      <point x="198" y="500" type="line"/>
      <point x="100" y="0" type="line"/>
    </contour>
    <contour>
      <point x="143" y="323" type="line"/>
      <point x="159" y="408" type="line"/>
      <point x="185" y="436" type="line" smooth="yes"/>
      <point x="207" y="460"/>
      <point x="262" y="494"/>
      <point x="325" y="513"/>
      <point x="357" y="513" type="qcurve" smooth="yes"/>
      <point x="436" y="513"/>
      <point x="515" y="448"/>
      <point x="515" y="383" type="qcurve" smooth="yes"/>
      <point x="515" y="358"/>
      <point x="509" y="329" type="qcurve" smooth="yes"/>
      <point x="445" y="0" type="line"/>
      <point x="355" y="0" type="line"/>
      <point x="416" y="311" type="line" smooth="yes"/>
      <point x="421" y="340"/>
      <point x="421" y="362" type="qcurve" smooth="yes"/>
      <point x="421" y="409"/>
      <point x="372" y="453"/>
      <point x="320" y="453" type="qcurve" smooth="yes"/>
      <point x="283" y="453"/>
      <point x="216" y="418"/>
      <point x="170" y="360"/>
      <point x="163" y="323" type="qcurve"/>
    </contour>
    <contour>
      <point x="193" y="-143" type="qcurve"/>
      <point x="261" y="-86" type="line"/>
      <point x="272" y="-108"/>
      <point x="305" y="-130"/>
      <point x="327" y="-130" type="qcurve" smooth="yes"/>
      <point x="355" y="-130"/>
      <point x="396" y="-91"/>
      <point x="402" y="-62" type="qcurve" smooth="yes"/>
      <point x="424" y="50" type="line"/>
      <point x="514" y="50" type="line"/>
      <point x="492" y="-62" type="line" smooth="yes"/>
      <point x="484" y="-104"/>
      <point x="435" y="-166"/>
      <point x="363" y="-200"/>
      <point x="319" y="-200" type="qcurve" smooth="yes"/>
      <point x="291" y="-200"/>
      <point x="244" y="-187"/>
      <point x="207" y="-162"/>
    </contour>
  </outline>
</glyph>
<glyph name="OE" format="2">
  <advance width="913"/>
  <unicode hex="0152"/>
  <outline>
    <contour>
      <point x="31" y="255" type="qcurve" smooth="yes"/>
      <point x="31" y="327"/>
      <point x="66" y="467"/>
      <point x="134" y="588"/>
      <point x="233" y="681"/>
      <point x="363" y="734"/>
      <point x="442" y="734" type="qcurve"/>
      <point x="425" y="646" type="line"/>
      <point x="362" y="646"/>
      <point x="266" y="601"/>
      <point x="197" y="523"/>
      <point x="154" y="423"/>
      <point x="134" y="312"/>
      <point x="134" y="258" type="qcurve" smooth="yes"/>
      <point x="134" y="200"/>
      <point x="171" y="118"/>
      <point x="251" y="76"/>
      <point x="314" y="76" type="qcurve"/>
      <point x="297" y="-12" type="line"/>
      <point x="207" y="-12"/>
      <point x="89" y="55"/>
      <point x="31" y="175"/>
    </contour>
    <contour>
      <point x="425" y="646" type="qcurve"/>
      <point x="442" y="734" type="line"/>
      <point x="465" y="734"/>
      <point x="523" y="731"/>
      <point x="578" y="725"/>
      <point x="597" y="720" type="qcurve"/>
      <point x="576" y="615" type="line"/>
      <point x="550" y="633"/>
      <point x="475" y="646"/>
    </contour>
    <contour>
      <point x="297" y="-12" type="qcurve"/>
      <point x="314" y="76" type="line"/>
      <point x="366" y="76"/>
      <point x="446" y="86"/>
      <point x="477" y="113" type="qcurve"/>
      <point x="456" y="3" type="line"/>
      <point x="438" y="-5"/>
      <point x="383" y="-11"/>
      <point x="322" y="-12"/>
    </contour>
    <contour>
      <point x="445" y="0" type="line"/>
      <point x="462" y="87" type="line"/>
      <point x="819" y="87" type="line"/>
      <point x="802" y="0" type="line"/>
    </contour>
    <contour>
      <point x="415" y="0" type="line"/>
      <point x="555" y="722" type="line"/>
      <point x="655" y="722" type="line"/>
      <point x="515" y="0" type="line"/>
    </contour>
    <contour>
      <point x="509" y="326" type="line"/>
      <point x="525" y="413" type="line"/>
      <point x="862" y="413" type="line"/>
      <point x="846" y="326" type="line"/>
    </contour>
    <contour>
      <point x="569" y="635" type="line"/>
      <point x="586" y="722" type="line"/>
      <point x="933" y="722" type="line"/>
      <point x="916" y="635" type="line"/>
    </contour>
  </outline>
</glyph>
<glyph name="oe" format="2">
  <advance width="942"/>
  <unicode hex="0153"/>
  <outline>
    <contour>
      <point x="31" y="183" type="qcurve" smooth="yes"/>
      <point x="31" y="249"/>
      <point x="75" y="368"/>
      <point x="157" y="460"/>
      <point x="270" y="512"/>
      <point x="340" y="512" type="qcurve" smooth="yes"/>
      <point x="438" y="512"/>
      <point x="545" y="409"/>
      <point x="545" y="318" type="qcurve" smooth="yes"/>
      <point x="545" y="252"/>
      <point x="502" y="133"/>
      <point x="421" y="41"/>
      <point x="308" y="-12"/>
      <point x="238" y="-12" type="qcurve" smooth="yes"/>
      <point x="139" y="-12"/>
      <point x="31" y="92"/>
    </contour>
    <contour>
      <point x="125" y="182" type="qcurve" smooth="yes"/>
      <point x="125" y="117"/>
      <point x="189" y="53"/>
      <point x="250" y="53" type="qcurve" smooth="yes"/>
      <point x="303" y="53"/>
      <point x="379" y="100"/>
      <point x="428" y="178"/>
      <point x="451" y="272"/>
      <point x="451" y="318" type="qcurve" smooth="yes"/>
      <point x="451" y="383"/>
      <point x="387" y="447"/>
      <point x="326" y="447" type="qcurve" smooth="yes"/>
      <point x="273" y="447"/>
      <point x="196" y="400"/>
      <point x="148" y="322"/>
      <point x="125" y="228"/>
    </contour>
    <contour>
      <point x="436" y="173" type="qcurve" smooth="yes"/>
      <point x="436" y="238"/>
      <point x="473" y="359"/>
      <point x="547" y="455"/>
      <point x="656" y="512"/>
      <point x="727" y="512" type="qcurve" smooth="yes"/>
      <point x="818" y="512"/>
      <point x="911" y="422"/>
      <point x="911" y="343" type="qcurve" smooth="yes"/>
      <point x="911" y="314"/>
      <point x="905" y="282" type="qcurve" smooth="yes"/>
      <point x="896" y="236" type="line"/>
      <point x="535" y="236" type="line"/>
      <point x="532" y="222"/>
      <point x="530" y="196"/>
      <point x="530" y="183" type="qcurve" smooth="yes"/>
      <point x="530" y="126"/>
      <point x="587" y="51"/>
      <point x="645" y="51" type="qcurve" smooth="yes"/>
      <point x="698" y="51"/>
      <point x="773" y="114"/>
      <point x="786" y="160" type="qcurve"/>
      <point x="882" y="160" type="line"/>
      <point x="852" y="81"/>
      <point x="720" y="-14"/>
      <point x="625" y="-14" type="qcurve" smooth="yes"/>
      <point x="525" y="-14"/>
      <point x="436" y="91"/>
    </contour>
    <contour>
      <point x="548" y="301" type="qcurve"/>
      <point x="815" y="301" type="line"/>
      <point x="819" y="322"/>
      <point x="819" y="341" type="qcurve" smooth="yes"/>
      <point x="819" y="367"/>
      <point x="801" y="416"/>
      <point x="755" y="447"/>
      <point x="714" y="447" type="qcurve" smooth="yes"/>
      <point x="675" y="447"/>
      <point x="606" y="415"/>
      <point x="557" y="350"/>
    </contour>
  </outline>
</glyph>
<glyph name="Tbar" format="2">
  <advance width="622"/>
  <unicode hex="0166"/>
  <outline>
    <contour>
      <point x="96" y="298" type="line"/>
      <point x="108" y="363" type="line"/>
      <point x="408" y="363" type="line"/>
      <point x="396" y="298" type="line"/>
    </contour>
    <contour>
      <point x="136" y="0" type="line"/>
      <point x="260" y="635" type="line"/>
      <point x="24" y="635" type="line"/>
      <point x="41" y="722" type="line"/>
      <point x="596" y="722" type="line"/>
      <point x="579" y="635" type="line"/>
      <point x="360" y="635" type="line"/>
      <point x="236" y="0" type="line"/>
    </contour>
  </outline>
</glyph>
<glyph name="tbar" format="2">
  <advance width="313"/>
  <unicode hex="0167"/>
  <outline>
    <contour>
      <point x="20" y="248" type="line"/>
      <point x="33" y="313" type="line"/>
      <point x="273" y="313" type="line"/>
      <point x="260" y="248" type="line"/>
    </contour>
    <contour>
      <point x="64" y="73" type="qcurve" smooth="yes"/>
      <point x="64" y="98"/>
      <point x="71" y="133" type="qcurve" smooth="yes"/>
      <point x="162" y="599" type="line"/>
      <point x="259" y="636" type="line"/>
      <point x="160" y="130" type="line" smooth="yes"/>
      <point x="157" y="111"/>
      <point x="157" y="98" type="qcurve" smooth="yes"/>
      <point x="157" y="78"/>
      <point x="174" y="55"/>
      <point x="195" y="55" type="qcurve" smooth="yes"/>
      <point x="210" y="55"/>
      <point x="242" y="60"/>
      <point x="258" y="64" type="qcurve"/>
      <point x="245" y="0" type="line"/>
      <point x="223" y="-7"/>
      <point x="178" y="-12"/>
      <point x="156" y="-12" type="qcurve" smooth="yes"/>
      <point x="106" y="-12"/>
      <point x="64" y="31"/>
    </contour>
    <contour>
      <point x="205" y="435" type="line"/>
      <point x="217" y="500" type="line"/>
      <point x="342" y="500" type="line"/>
      <point x="330" y="435" type="line"/>
    </contour>
    <contour>
      <point x="40" y="435" type="line"/>
      <point x="52" y="500" type="line"/>
      <point x="157" y="500" type="line"/>
      <point x="145" y="435" type="line"/>
    </contour>
  </outline>
</glyph>
<glyph name="longs" format="2">
  <advance width="305"/>
  <unicode hex="017F"/>
  <outline>
    <contour>
      <point x="53" y="0" type="line"/>
      <point x="165" y="575" type="line" smooth="yes"/>
      <point x="181" y="660"/>
      <point x="264" y="732"/>
      <point x="342" y="732" type="qcurve" smooth="yes"/>
      <point x="363" y="732"/>
      <point x="400" y="727"/>
      <point x="414" y="722" type="qcurve"/>
      <point x="400" y="648" type="line"/>
      <point x="389" y="655"/>
      <point x="361" y="660"/>
      <point x="348" y="660" type="qcurve" smooth="yes"/>
      <point x="305" y="660"/>
      <point x="263" y="617"/>
      <point x="254" y="573" type="qcurve" smooth="yes"/>
      <point x="143" y="0" type="line"/>
    </contour>
    <contour>
      <point x="37" y="435" type="line"/>
      <point x="50" y="500" type="line"/>
      <point x="165" y="500" type="line"/>
      <point x="152" y="435" type="line"/>
    </contour>
  </outline>
</glyph>
<glyph name="florin" format="2">
  <advance width="503"/>
  <unicode hex="0192"/>
  <outline>
    <contour>
      <point x="-183" y="-199" type="qcurve"/>
      <point x="-148" y="-124" type="line"/>
      <point x="-143" y="-131"/>
      <point x="-123" y="-138"/>
      <point x="-106" y="-138" type="qcurve" smooth="yes"/>
      <point x="-76" y="-138"/>
      <point x="-29" y="-112"/>
      <point x="14" y="-53"/>
      <point x="37" y="-3" type="qcurve" smooth="yes"/>
      <point x="293" y="549" type="line" smooth="yes"/>
      <point x="319" y="604"/>
      <point x="357" y="675"/>
      <point x="403" y="715"/>
      <point x="471" y="732"/>
      <point x="525" y="732" type="qcurve" smooth="yes"/>
      <point x="543" y="732"/>
      <point x="576" y="728"/>
      <point x="592" y="722" type="qcurve"/>
      <point x="555" y="646" type="line"/>
      <point x="547" y="652"/>
      <point x="521" y="658"/>
      <point x="504" y="658" type="qcurve" smooth="yes"/>
      <point x="481" y="658"/>
      <point x="449" y="651"/>
      <point x="422" y="625"/>
      <point x="389" y="565"/>
      <point x="365" y="512" type="qcurve" smooth="yes"/>
      <point x="126" y="-4" type="line" smooth="yes"/>
      <point x="98" y="-64"/>
      <point x="45" y="-144"/>
      <point x="-14" y="-191"/>
      <point x="-86" y="-212"/>
      <point x="-132" y="-212" type="qcurve" smooth="yes"/>
      <point x="-147" y="-212"/>
      <point x="-172" y="-206"/>
    </contour>
    <contour>
      <point x="140" y="435" type="line"/>
      <point x="170" y="500" type="line"/>
      <point x="479" y="500" type="line"/>
      <point x="449" y="435" type="line"/>
    </contour>
  </outline>
</glyph>
<glyph name="uni019E" format="2">
  <advance width="608"/>
  <unicode hex="019E"/>
  <outline>
    <contour>
      <point x="30" y="0" type="line"/>
      <point x="127" y="500" type="line"/>
      <point x="217" y="500" type="line"/>
      <point x="120" y="0" type="line"/>
    </contour>
    <contour>
      <point x="163" y="323" type="line"/>
      <point x="179" y="408" type="line"/>
      <point x="205" y="436" type="line" smooth="yes"/>
      <point x="227" y="460"/>
      <point x="282" y="494"/>
      <point x="345" y="513"/>
      <point x="377" y="513" type="qcurve" smooth="yes"/>
      <point x="456" y="513"/>
      <point x="535" y="448"/>
      <point x="535" y="383" type="qcurve" smooth="yes"/>
      <point x="535" y="358"/>
      <point x="529" y="329" type="qcurve" smooth="yes"/>
      <point x="465" y="0" type="line"/>
      <point x="375" y="0" type="line"/>
      <point x="436" y="311" type="line" smooth="yes"/>
      <point x="441" y="340"/>
      <point x="441" y="362" type="qcurve" smooth="yes"/>
      <point x="441" y="409"/>
      <point x="392" y="453"/>
      <point x="340" y="453" type="qcurve" smooth="yes"/>
      <point x="303" y="453"/>
      <point x="236" y="418"/>
      <point x="190" y="360"/>
      <point x="183" y="323" type="qcurve"/>
    </contour>
    <contour>
      <point x="336" y="-200" type="line"/>
      <point x="395" y="100" type="line"/>
      <point x="485" y="100" type="line"/>
      <point x="426" y="-200" type="line"/>
    </contour>
  </outline>
</glyph>
<glyph name="uni01C0" format="2">
  <advance width="344"/>
  <unicode hex="01C0"/>
  <outline>
    <contour>
      <point x="-5" y="-258" type="line"/>
      <point x="200" y="796" type="line"/>
      <point x="300" y="796" type="line"/>
      <point x="95" y="-258" type="line"/>
    </contour>
  </outline>
</glyph>
<glyph name="uni01C1" format="2">
  <advance width="688"/>
  <unicode hex="01C1"/>
  <outline>
    <contour>
      <point x="-5" y="-258" type="line"/>
      <point x="200" y="796" type="line"/>
      <point x="300" y="796" type="line"/>
      <point x="95" y="-258" type="line"/>
    </contour>
    <contour>
      <point x="339" y="-258" type="line"/>
      <point x="544" y="796" type="line"/>
      <point x="644" y="796" type="line"/>
      <point x="439" y="-258" type="line"/>
    </contour>
  </outline>
</glyph>
<glyph name="uni01C2" format="2">
  <advance width="405"/>
  <unicode hex="01C2"/>
  <outline>
    <contour>
      <point x="81" y="0" type="line"/>
      <point x="224" y="736" type="line"/>
      <point x="324" y="736" type="line"/>
      <point x="181" y="0" type="line"/>
    </contour>
    <contour>
      <point x="28" y="413" type="line"/>
      <point x="47" y="513" type="line"/>
      <point x="413" y="513" type="line"/>
      <point x="394" y="413" type="line"/>
    </contour>
    <contour>
      <point x="-9" y="223" type="line"/>
      <point x="10" y="323" type="line"/>
      <point x="376" y="323" type="line"/>
      <point x="357" y="223" type="line"/>
    </contour>
  </outline>
</glyph>
<glyph name="uni01DD" format="2">
  <advance width="537"/>
  <unicode hex="01DD"/>
  <outline>
    <contour>
      <point x="31" y="155" type="qcurve" smooth="yes"/>
      <point x="31" y="184"/>
      <point x="37" y="216" type="qcurve" smooth="yes"/>
      <point x="46" y="262" type="line"/>
      <point x="407" y="262" type="line"/>
      <point x="410" y="276"/>
      <point x="413" y="302"/>
      <point x="413" y="315" type="qcurve" smooth="yes"/>
      <point x="413" y="372"/>
      <point x="356" y="447"/>
      <point x="297" y="447" type="qcurve" smooth="yes"/>
      <point x="244" y="447"/>
      <point x="169" y="385"/>
      <point x="156" y="338" type="qcurve"/>
      <point x="60" y="338" type="line"/>
      <point x="90" y="417"/>
      <point x="223" y="512"/>
      <point x="318" y="512" type="qcurve" smooth="yes"/>
      <point x="418" y="512"/>
      <point x="506" y="407"/>
      <point x="506" y="325" type="qcurve" smooth="yes"/>
      <point x="506" y="260"/>
      <point x="469" y="139"/>
      <point x="395" y="43"/>
      <point x="287" y="-14"/>
      <point x="216" y="-14" type="qcurve" smooth="yes"/>
      <point x="125" y="-14"/>
      <point x="31" y="76"/>
    </contour>
    <contour>
      <point x="124" y="157" type="qcurve" smooth="yes"/>
      <point x="124" y="131"/>
      <point x="142" y="82"/>
      <point x="187" y="51"/>
      <point x="228" y="51" type="qcurve" smooth="yes"/>
      <point x="267" y="51"/>
      <point x="336" y="83"/>
      <point x="385" y="148"/>
      <point x="395" y="197" type="qcurve"/>
      <point x="128" y="197" type="line"/>
      <point x="124" y="176"/>
    </contour>
  </outline>
</glyph>
<glyph name="dotlessj" format="2">
  <advance width="275"/>
  <unicode hex="0237"/>
  <outline>
    <contour>
      <point x="-47" y="-200" type="line"/>
      <point x="-35" y="-134" type="line"/>
      <point x="-10" y="-134" type="line" smooth="yes"/>
      <point x="13" y="-134"/>
      <point x="32" y="-79"/>
      <point x="39" y="-44" type="qcurve" smooth="yes"/>
      <point x="145" y="500" type="line"/>
      <point x="235" y="500" type="line"/>
      <point x="123" y="-74" type="line" smooth="yes"/>
      <point x="110" y="-139"/>
      <point x="30" y="-200"/>
      <point x="-22" y="-200" type="qcurve" smooth="yes"/>
    </contour>
  </outline>
</glyph>
<glyph name="uni0251" format="2">
  <advance width="591"/>
  <unicode hex="0251"/>
  <outline>
    <contour>
      <point x="126" y="195" type="qcurve" smooth="yes"/>
      <point x="126" y="233"/>
      <point x="148" y="320"/>
      <point x="191" y="398"/>
      <point x="253" y="448"/>
      <point x="293" y="448" type="qcurve" smooth="yes"/>
      <point x="345" y="448"/>
      <point x="409" y="364"/>
      <point x="409" y="300" type="qcurve" smooth="yes"/>
      <point x="409" y="262"/>
      <point x="385" y="176"/>
      <point x="341" y="100"/>
      <point x="278" y="52"/>
      <point x="237" y="52" type="qcurve" smooth="yes"/>
      <point x="187" y="52"/>
      <point x="126" y="131"/>
    </contour>
    <contour>
      <point x="30" y="196" type="qcurve" smooth="yes"/>
      <point x="30" y="135"/>
      <point x="73" y="41"/>
      <point x="148" y="-12"/>
      <point x="196" y="-12" type="qcurve" smooth="yes"/>
      <point x="239" y="-12"/>
      <point x="337" y="32"/>
      <point x="378" y="75" type="qcurve"/>
      <point x="363" y="0" type="line"/>
      <point x="453" y="0" type="line"/>
      <point x="551" y="500" type="line"/>
      <point x="461" y="500" type="line"/>
      <point x="447" y="429" type="line"/>
      <point x="433" y="456"/>
      <point x="392" y="493"/>
      <point x="339" y="512"/>
      <point x="306" y="512" type="qcurve" smooth="yes"/>
      <point x="246" y="512"/>
      <point x="145" y="465"/>
      <point x="71" y="380"/>
      <point x="30" y="265"/>
    </contour>
  </outline>
</glyph>
<glyph name="uni0253" format="2">
  <advance width="569"/>
  <unicode hex="0253"/>
  <outline>
    <contour>
      <point x="40" y="380" type="line"/>
      <point x="72" y="545" type="line" smooth="yes"/>
      <point x="82" y="599"/>
      <point x="149" y="684"/>
      <point x="246" y="732"/>
      <point x="303" y="732" type="qcurve" smooth="yes"/>
      <point x="339" y="732"/>
      <point x="396" y="721"/>
      <point x="437" y="700"/>
      <point x="450" y="683" type="qcurve"/>
      <point x="386" y="631" type="line"/>
      <point x="370" y="647"/>
      <point x="323" y="662"/>
      <point x="293" y="662" type="qcurve" smooth="yes"/>
      <point x="248" y="662"/>
      <point x="193" y="619"/>
      <point x="162" y="548"/>
      <point x="154" y="506" type="qcurve" smooth="yes"/>
      <point x="130" y="380" type="line"/>
    </contour>
    <contour>
      <point x="414" y="195" type="qcurve" smooth="yes"/>
      <point x="389" y="131"/>
      <point x="297" y="52"/>
      <point x="247" y="52" type="qcurve" smooth="yes"/>
      <point x="206" y="52"/>
      <point x="161" y="100"/>
      <point x="147" y="176"/>
      <point x="157" y="262"/>
      <point x="171" y="300" type="qcurve" smooth="yes"/>
      <point x="188" y="343"/>
      <point x="243" y="410"/>
      <point x="310" y="448"/>
      <point x="344" y="448" type="qcurve" smooth="yes"/>
      <point x="385" y="448"/>
      <point x="428" y="398"/>
      <point x="440" y="320"/>
      <point x="428" y="233"/>
    </contour>
    <contour>
      <point x="509" y="196" type="qcurve" smooth="yes"/>
      <point x="536" y="265"/>
      <point x="540" y="380"/>
      <point x="499" y="465"/>
      <point x="416" y="512"/>
      <point x="356" y="512" type="qcurve" smooth="yes"/>
      <point x="323" y="512"/>
      <point x="263" y="493"/>
      <point x="208" y="456"/>
      <point x="184" y="429" type="qcurve"/>
      <point x="198" y="500" type="line"/>
      <point x="108" y="500" type="line"/>
      <point x="10" y="0" type="line"/>
      <point x="100" y="0" type="line"/>
      <point x="115" y="75" type="line"/>
      <point x="139" y="32"/>
      <point x="220" y="-12"/>
      <point x="263" y="-12" type="qcurve" smooth="yes"/>
      <point x="311" y="-12"/>
      <point x="406" y="41"/>
      <point x="485" y="135"/>
    </contour>
  </outline>
</glyph>
<glyph name="uni0255" format="2">
  <advance width="555"/>
  <unicode hex="0255"/>
  <outline>
    <contour>
      <point x="-15" y="-133" type="line"/>
      <point x="21" y="-53"/>
      <point x="115" y="81"/>
      <point x="220" y="180"/>
      <point x="328" y="234"/>
      <point x="378" y="234" type="qcurve" smooth="yes"/>
      <point x="424" y="234"/>
      <point x="482" y="186"/>
      <point x="482" y="144" type="qcurve" smooth="yes"/>
      <point x="482" y="104"/>
      <point x="432" y="45"/>
      <point x="353" y="7"/>
      <point x="269" y="-12"/>
      <point x="235" y="-12" type="qcurve" smooth="yes"/>
      <point x="137" y="-12"/>
      <point x="49" y="83"/>
      <point x="49" y="163" type="qcurve" smooth="yes"/>
      <point x="49" y="226"/>
      <point x="87" y="350"/>
      <point x="161" y="451"/>
      <point x="270" y="512"/>
      <point x="341" y="512" type="qcurve" smooth="yes"/>
      <point x="415" y="512"/>
      <point x="502" y="439"/>
      <point x="502" y="368" type="qcurve" smooth="yes"/>
      <point x="502" y="356"/>
      <point x="501" y="341" type="qcurve"/>
      <point x="405" y="341" type="line"/>
      <point x="406" y="346"/>
      <point x="406" y="355"/>
      <point x="406" y="360" type="qcurve" smooth="yes"/>
      <point x="406" y="398"/>
      <point x="364" y="447"/>
      <point x="321" y="447" type="qcurve" smooth="yes"/>
      <point x="273" y="447"/>
      <point x="205" y="391"/>
      <point x="163" y="305"/>
      <point x="143" y="212"/>
      <point x="143" y="176" type="qcurve" smooth="yes"/>
      <point x="143" y="118"/>
      <point x="198" y="52"/>
      <point x="272" y="52" type="qcurve" smooth="yes"/>
      <point x="289" y="52"/>
      <point x="330" y="63"/>
      <point x="368" y="83"/>
      <point x="393" y="114"/>
      <point x="393" y="134" type="qcurve" smooth="yes"/>
      <point x="393" y="152"/>
      <point x="369" y="175"/>
      <point x="348" y="175" type="qcurve" smooth="yes"/>
      <point x="317" y="175"/>
      <point x="237" y="124"/>
      <point x="149" y="35"/>
      <point x="66" y="-83"/>
      <point x="33" y="-150" type="qcurve"/>
    </contour>
  </outline>
</glyph>
<glyph name="uni0256" format="2">
  <advance width="582"/>
  <unicode hex="0256"/>
  <outline>
    <contour>
      <point x="355" y="-91" type="qcurve" smooth="yes"/>
      <point x="355" y="-76"/>
      <point x="358" y="-60" type="qcurve" smooth="yes"/>
      <point x="396" y="134" type="line"/>
      <point x="486" y="134" type="line"/>
      <point x="448" y="-61" type="line"/>
      <point x="447" y="-65"/>
      <point x="446" y="-73"/>
      <point x="446" y="-77" type="qcurve" smooth="yes"/>
      <point x="446" y="-101"/>
      <point x="475" y="-129"/>
      <point x="498" y="-129" type="qcurve" smooth="yes"/>
      <point x="519" y="-129"/>
      <point x="560" y="-107"/>
      <point x="580" y="-85" type="qcurve"/>
      <point x="626" y="-142" type="line"/>
      <point x="563" y="-199"/>
      <point x="481" y="-199" type="qcurve" smooth="yes"/>
      <point x="421" y="-199"/>
      <point x="355" y="-141"/>
    </contour>
    <contour>
      <point x="30" y="188" type="qcurve" smooth="yes"/>
      <point x="30" y="246"/>
      <point x="69" y="362"/>
      <point x="143" y="456"/>
      <point x="246" y="513"/>
      <point x="311" y="513" type="qcurve" smooth="yes"/>
      <point x="355" y="513"/>
      <point x="411" y="486"/>
      <point x="446" y="441"/>
      <point x="458" y="415" type="qcurve"/>
      <point x="391" y="72" type="line"/>
      <point x="381" y="58"/>
      <point x="324" y="18"/>
      <point x="250" y="-13"/>
      <point x="215" y="-13" type="qcurve" smooth="yes"/>
      <point x="123" y="-13"/>
      <point x="30" y="100"/>
    </contour>
    <contour>
      <point x="120" y="202" type="qcurve" smooth="yes"/>
      <point x="120" y="143"/>
      <point x="179" y="57"/>
      <point x="242" y="57" type="qcurve" smooth="yes"/>
      <point x="289" y="57"/>
      <point x="358" y="106"/>
      <point x="402" y="183"/>
      <point x="423" y="271"/>
      <point x="423" y="310" type="qcurve" smooth="yes"/>
      <point x="423" y="349"/>
      <point x="401" y="412"/>
      <point x="352" y="449"/>
      <point x="311" y="449" type="qcurve" smooth="yes"/>
      <point x="264" y="449"/>
      <point x="192" y="402"/>
      <point x="144" y="327"/>
      <point x="120" y="241"/>
    </contour>
    <contour>
      <point x="368" y="0" type="line"/>
      <point x="508" y="722" type="line"/>
      <point x="598" y="722" type="line"/>
      <point x="458" y="0" type="line"/>
    </contour>
  </outline>
</glyph>
<glyph name="uni0257" format="2">
  <advance width="590"/>
  <unicode hex="0257"/>
  <outline>
    <contour>
      <point x="126" y="196" type="qcurve" smooth="yes"/>
      <point x="126" y="136"/>
      <point x="183" y="52"/>
      <point x="237" y="52" type="qcurve" smooth="yes"/>
      <point x="278" y="52"/>
      <point x="342" y="100"/>
      <point x="386" y="176"/>
      <point x="409" y="262"/>
      <point x="409" y="300" type="qcurve" smooth="yes"/>
      <point x="409" y="364"/>
      <point x="346" y="448"/>
      <point x="294" y="448" type="qcurve" smooth="yes"/>
      <point x="254" y="448"/>
      <point x="191" y="398"/>
      <point x="148" y="321"/>
      <point x="126" y="234"/>
    </contour>
    <contour>
      <point x="31" y="202" type="qcurve" smooth="yes"/>
      <point x="31" y="259"/>
      <point x="71" y="369"/>
      <point x="147" y="459"/>
      <point x="251" y="512"/>
      <point x="316" y="512" type="qcurve" smooth="yes"/>
      <point x="353" y="512"/>
      <point x="401" y="493"/>
      <point x="434" y="456"/>
      <point x="447" y="429" type="qcurve"/>
      <point x="461" y="500" type="line"/>
      <point x="551" y="500" type="line"/>
      <point x="454" y="0" type="line"/>
      <point x="364" y="0" type="line"/>
      <point x="378" y="75" type="line"/>
      <point x="337" y="32"/>
      <point x="240" y="-12"/>
      <point x="198" y="-12" type="qcurve" smooth="yes"/>
      <point x="148" y="-12"/>
      <point x="73" y="46"/>
      <point x="31" y="143"/>
    </contour>
    <contour>
      <point x="438" y="380" type="line"/>
      <point x="470" y="545" type="line" smooth="yes"/>
      <point x="480" y="599"/>
      <point x="547" y="684"/>
      <point x="644" y="732"/>
      <point x="701" y="732" type="qcurve" smooth="yes"/>
      <point x="737" y="732"/>
      <point x="794" y="721"/>
      <point x="835" y="700"/>
      <point x="848" y="683" type="qcurve"/>
      <point x="784" y="631" type="line"/>
      <point x="768" y="647"/>
      <point x="723" y="662"/>
      <point x="696" y="662" type="qcurve" smooth="yes"/>
      <point x="649" y="662"/>
      <point x="592" y="619"/>
      <point x="560" y="548"/>
      <point x="552" y="506" type="qcurve" smooth="yes"/>
      <point x="528" y="380" type="line"/>
    </contour>
  </outline>
</glyph>
<glyph name="uni025A" format="2">
  <advance width="766"/>
  <unicode hex="025A"/>
  <outline>
    <contour>
      <point x="43" y="131" type="qcurve" smooth="yes"/>
      <point x="43" y="142"/>
      <point x="46" y="165"/>
      <point x="48" y="177" type="qcurve"/>
      <point x="150" y="221" type="line"/>
      <point x="147" y="204"/>
      <point x="143" y="171"/>
      <point x="143" y="156" type="qcurve" smooth="yes"/>
      <point x="143" y="111"/>
      <point x="187" y="51"/>
      <point x="246" y="51" type="qcurve" smooth="yes"/>
      <point x="288" y="51"/>
      <point x="350" y="82"/>
      <point x="393" y="134"/>
      <point x="418" y="200"/>
      <point x="430" y="269"/>
      <point x="430" y="301" type="qcurve" smooth="yes"/>
      <point x="430" y="342"/>
      <point x="410" y="408"/>
      <point x="361" y="447"/>
      <point x="318" y="447" type="qcurve" smooth="yes"/>
      <point x="263" y="447"/>
      <point x="188" y="385"/>
      <point x="174" y="338" type="qcurve"/>
      <point x="77" y="338" type="line"/>
      <point x="108" y="417"/>
      <point x="241" y="512"/>
      <point x="336" y="512" type="qcurve" smooth="yes"/>
      <point x="436" y="512"/>
      <point x="525" y="407"/>
      <point x="525" y="325" type="qcurve" smooth="yes"/>
      <point x="525" y="260"/>
      <point x="487" y="139"/>
      <point x="413" y="43"/>
      <point x="305" y="-14"/>
      <point x="234" y="-14" type="qcurve" smooth="yes"/>
      <point x="171" y="-14"/>
      <point x="87" y="20"/>
      <point x="43" y="85"/>
    </contour>
    <contour>
      <point x="64" y="121" type="line"/>
      <point x="64" y="183" type="line"/>
      <point x="670" y="452" type="line"/>
      <point x="641" y="303" type="line" smooth="yes"/>
      <point x="639" y="293"/>
      <point x="639" y="286" type="qcurve" smooth="yes"/>
      <point x="639" y="253"/>
      <point x="673" y="253" type="qcurve" smooth="yes"/>
      <point x="699" y="253"/>
      <point x="728" y="288"/>
      <point x="734" y="319" type="qcurve"/>
      <point x="779" y="319" type="line"/>
      <point x="773" y="288"/>
      <point x="741" y="240"/>
      <point x="696" y="213"/>
      <point x="671" y="213" type="qcurve" smooth="yes"/>
      <point x="643" y="213"/>
      <point x="604" y="229"/>
      <point x="585" y="259"/>
      <point x="585" y="280" type="qcurve" smooth="yes"/>
      <point x="585" y="290"/>
      <point x="587" y="301" type="qcurve" smooth="yes"/>
      <point x="600" y="370" type="line"/>
      <point x="610" y="363" type="line"/>
    </contour>
  </outline>
</glyph>
<glyph name="uni025F" format="2">
  <advance width="317"/>
  <unicode hex="025F"/>
  <outline>
    <contour>
      <point x="-105" y="-147" type="qcurve"/>
      <point x="-37" y="-90" type="line"/>
      <point x="-25" y="-108"/>
      <point x="-5" y="-121"/>
      <point x="9" y="-121" type="qcurve" smooth="yes"/>
      <point x="34" y="-121"/>
      <point x="60" y="-92"/>
      <point x="66" y="-64" type="qcurve" smooth="yes"/>
      <point x="176" y="500" type="line"/>
      <point x="266" y="500" type="line"/>
      <point x="154" y="-74" type="line" smooth="yes"/>
      <point x="142" y="-134"/>
      <point x="64" y="-200"/>
      <point x="4" y="-200" type="qcurve" smooth="yes"/>
      <point x="-31" y="-200"/>
      <point x="-84" y="-175"/>
    </contour>
    <contour>
      <point x="32" y="222" type="line"/>
      <point x="42" y="278" type="line"/>
      <point x="312" y="278" type="line"/>
      <point x="302" y="222" type="line"/>
    </contour>
  </outline>
</glyph>
